Georama-LightItalic.ufo
<glyph name="exclam" format="2">
  <advance width="212.24"/>
  <unicode hex="0021"/>
  <outline>
    <contour>
      <point x="78.72" y="263.0" type="line"/>
      <point x="128.56" y="263.0" type="line"/>
      <point x="207.64" y="740.0" type="line"/>
      <point x="151.6" y="740.0" type="line"/>
    </contour>
    <contour>
      <point x="32.24" y="22.36" type="curve" smooth="yes"/>
      <point x="31.440000000000005" y="4.800000000000001"/>
      <point x="39.00000000000001" y="-2.0"/>
      <point x="61.16" y="-2.0" type="curve" smooth="yes"/>
      <point x="92.88" y="-2.0"/>
      <point x="101.72000000000001" y="13.08"/>
      <point x="104.12000000000002" y="47.36" type="curve" smooth="yes"/>
      <point x="104.92000000000002" y="65.4"/>
      <point x="96.40000000000002" y="71.72"/>
      <point x="74.8" y="71.72" type="curve" smooth="yes"/>
      <point x="43.88" y="71.72"/>
      <point x="34.64" y="56.48"/>
    </contour>
  </outline>
</glyph>
<glyph name="numbersign" format="2">
  <advance width="585.28"/>
  <unicode hex="0023"/>
  <outline>
    <contour>
      <point x="132.64" y="465.24" type="line"/>
      <point x="224.16000000000003" y="465.24" type="line"/>
      <point x="149.16" y="229.88000000000002" type="line"/>
      <point x="63.48000000000001" y="229.88000000000002" type="line"/>
      <point x="55.76" y="183.76" type="line"/>
      <point x="136.04000000000002" y="183.76" type="line"/>
      <point x="78.36000000000001" y="0.0" type="line"/>
      <point x="130.88000000000002" y="0.0" type="line"/>
      <point x="187.76000000000002" y="183.76" type="line"/>
      <point x="320.64000000000004" y="183.76" type="line"/>
      <point x="263.76" y="0.0" type="line"/>
      <point x="315.67999999999995" y="0.0" type="line"/>
      <point x="372.56" y="183.76" type="line"/>
      <point x="468.96000000000004" y="183.76" type="line"/>
      <point x="476.12" y="229.88000000000002" type="line"/>
      <point x="386.16" y="229.88000000000002" type="line"/>
      <point x="460.68" y="465.24" type="line"/>
      <point x="545.28" y="465.24" type="line"/>
      <point x="552.96" y="511.44" type="line"/>
      <point x="474.12" y="511.44" type="line"/>
      <point x="533.76" y="700.0" type="line"/>
      <point x="481.72" y="700.0" type="line"/>
      <point x="422.08000000000004" y="511.44" type="line"/>
      <point x="289.2" y="511.44" type="line"/>
      <point x="348.84" y="700.0" type="line"/>
      <point x="296.91999999999996" y="700.0" type="line"/>
      <point x="237.28" y="511.44" type="line"/>
      <point x="140.23999999999998" y="511.44" type="line"/>
    </contour>
    <contour>
      <point x="276.08" y="465.24" type="line"/>
      <point x="408.96" y="465.24" type="line"/>
      <point x="334.08" y="229.88000000000002" type="line"/>
      <point x="201.20000000000002" y="229.88000000000002" type="line"/>
    </contour>
  </outline>
</glyph>
<glyph name="dollar" format="2">
  <advance width="585.28"/>
  <unicode hex="0024"/>
  <outline>
    <contour>
      <point x="542.04" y="679.84" type="line"/>
      <point x="515.8000000000001" y="690.28"/>
      <point x="463.84" y="706.9200000000001"/>
      <point x="394.40000000000003" y="709.44" type="curve"/>
      <point x="409.8" y="804.76" type="line"/>
      <point x="363.00000000000006" y="804.76" type="line"/>
      <point x="347.08" y="707.2399999999999" type="line"/>
      <point x="228.88" y="698.88"/>
      <point x="120.55999999999999" y="625.28"/>
      <point x="120.55999999999999" y="509.2799999999999" type="curve" smooth="yes"/>
      <point x="120.55999999999999" y="323.43999999999994"/>
      <point x="437.8" y="328.16"/>
      <point x="437.8" y="183.64" type="curve" smooth="yes"/>
      <point x="437.8" y="89.92"/>
      <point x="331.08000000000004" y="40.96000000000001"/>
      <point x="244.08000000000004" y="40.96000000000001" type="curve" smooth="yes"/>
      <point x="168.12" y="40.96000000000001"/>
      <point x="83.12" y="62.84"/>
      <point x="46.12" y="78.8" type="curve"/>
      <point x="25.280000000000005" y="29.2" type="line"/>
      <point x="64.11999999999999" y="14.479999999999999"/>
      <point x="138.84000000000003" y="-7.16"/>
      <point x="219.08" y="-9.200000000000001" type="curve"/>
      <point x="204.08" y="-105.0" type="line"/>
      <point x="250.79999999999998" y="-105.0" type="line"/>
      <point x="265.79999999999995" y="-7.960000000000001" type="line"/>
      <point x="387.8" y="0.9599999999999997"/>
      <point x="498.04" y="71.84"/>
      <point x="498.04" y="191.44000000000003" type="curve" smooth="yes"/>
      <point x="498.04" y="375.24"/>
      <point x="181.04" y="368.68"/>
      <point x="181.04" y="515.0400000000001" type="curve" smooth="yes"/>
      <point x="181.04" y="605.16"/>
      <point x="283.28" y="658.72"/>
      <point x="365.4" y="658.72" type="curve" smooth="yes"/>
      <point x="435.0" y="658.72"/>
      <point x="483.44" y="646.24"/>
      <point x="522.28" y="630.96" type="curve"/>
    </contour>
  </outline>
</glyph>
<glyph name="ampersand" format="2">
  <advance width="639.24"/>
  <unicode hex="0026"/>
  <outline>
    <contour>
      <point x="243.76000000000002" y="-10.0" type="curve" smooth="yes"/>
      <point x="393.32" y="-10.0"/>
      <point x="518.28" y="117.35999999999999"/>
      <point x="531.0000000000001" y="291.79999999999995" type="curve"/>
      <point x="483.24" y="294.0" type="line"/>
      <point x="477.20000000000005" y="149.55999999999997"/>
      <point x="364.68000000000006" y="38.120000000000005"/>
      <point x="250.2" y="38.120000000000005" type="curve" smooth="yes"/>
      <point x="145.76000000000002" y="38.120000000000005"/>
      <point x="91.36" y="87.44"/>
      <point x="91.36" y="161.95999999999998" type="curve" smooth="yes"/>
      <point x="91.36" y="294.96000000000004"/>
      <point x="208.71999999999997" y="370.24"/>
      <point x="334.6" y="370.24" type="curve" smooth="yes"/>
      <point x="350.68" y="370.24" type="line"/>
      <point x="358.16" y="409.64" type="line"/>
      <point x="347.96" y="410.44" type="line" smooth="yes"/>
      <point x="262.08" y="413.08000000000004"/>
      <point x="206.76" y="455.52"/>
      <point x="206.76" y="533.68" type="curve" smooth="yes"/>
      <point x="206.76" y="602.76"/>
      <point x="257.16" y="664.6400000000001"/>
      <point x="343.40000000000003" y="664.6400000000001" type="curve" smooth="yes"/>
      <point x="392.00000000000006" y="664.6400000000001"/>
      <point x="438.88000000000005" y="646.96"/>
      <point x="473.15999999999997" y="615.76" type="curve"/>
      <point x="502.36" y="654.32" type="line"/>
      <point x="462.84" y="689.0"/>
      <point x="402.59999999999997" y="710.0"/>
      <point x="339.84000000000003" y="710.0" type="curve" smooth="yes"/>
      <point x="219.28" y="710.0"/>
      <point x="149.92" y="629.92"/>
      <point x="149.92" y="539.0400000000001" type="curve" smooth="yes"/>
      <point x="149.92" y="465.28000000000003"/>
      <point x="195.56" y="412.56000000000006"/>
      <point x="262.88" y="395.6" type="curve"/>
      <point x="130.88000000000002" y="377.6"/>
      <point x="33.559999999999995" y="290.96"/>
      <point x="33.559999999999995" y="155.56" type="curve" smooth="yes"/>
      <point x="33.559999999999995" y="57.239999999999995"/>
      <point x="102.32" y="-10.0"/>
    </contour>
    <contour>
      <point x="362.40000000000003" y="242.20000000000002" type="line"/>
      <point x="366.80000000000007" y="278.92"/>
      <point x="391.64000000000004" y="295.84"/>
      <point x="422.20000000000005" y="295.84" type="curve" smooth="yes"/>
      <point x="477.32000000000005" y="295.84"/>
      <point x="505.76000000000005" y="272.24000000000007"/>
      <point x="563.4399999999999" y="272.24000000000007" type="curve" smooth="yes"/>
      <point x="617.6" y="272.24000000000007"/>
      <point x="653.0799999999999" y="313.24"/>
      <point x="654.64" y="366.32" type="curve"/>
      <point x="616.4399999999999" y="370.64" type="line"/>
      <point x="612.84" y="332.23999999999995"/>
      <point x="588.2799999999999" y="312.08000000000004"/>
      <point x="548.4799999999999" y="312.08000000000004" type="curve" smooth="yes"/>
      <point x="500.00000000000006" y="312.08000000000004"/>
      <point x="468.64" y="336.64"/>
      <point x="417.12000000000006" y="336.64" type="curve" smooth="yes"/>
      <point x="366.92" y="336.64"/>
      <point x="332.04" y="303.64"/>
      <point x="325.71999999999997" y="253.76000000000005" type="curve"/>
    </contour>
  </outline>
</glyph>
<glyph name="quotesingle" format="2">
  <advance width="156.83999999999997"/>
  <unicode hex="0027"/>
  <outline>
    <contour>
      <point x="79.96000000000001" y="427.0" type="line"/>
      <point x="124.12" y="427.0" type="line"/>
      <point x="172.32" y="700.0" type="line"/>
      <point x="118.52" y="700.0" type="line"/>
    </contour>
  </outline>
</glyph>
<glyph name="parenleft" format="2">
  <advance width="293.64000000000004"/>
  <unicode hex="0028"/>
  <outline>
    <contour>
      <point x="62.04" y="47.6" type="curve" smooth="yes"/>
      <point x="62.04" y="-89.08000000000001"/>
      <point x="100.44" y="-194.48000000000002"/>
      <point x="190.12" y="-220.0" type="curve"/>
      <point x="202.64000000000001" y="-174.79999999999998" type="line"/>
      <point x="143.88" y="-154.52"/>
      <point x="109.84" y="-70.64"/>
      <point x="109.84" y="51.76" type="curve" smooth="yes"/>
      <point x="109.84" y="260.72"/>
      <point x="203.4" y="655.0799999999999"/>
      <point x="339.92" y="702.2399999999999" type="curve"/>
      <point x="342.59999999999997" y="749.52" type="line"/>
      <point x="147.92" y="693.52"/>
      <point x="62.04" y="279.92"/>
    </contour>
  </outline>
</glyph>
<glyph name="parenright" format="2">
  <advance width="293.64000000000004"/>
  <unicode hex="0029"/>
  <outline>
    <contour>
      <point x="229.0" y="481.76" type="curve" smooth="yes"/>
      <point x="229.0" y="620.76"/>
      <point x="190.44" y="724.48"/>
      <point x="100.44" y="750.0" type="curve"/>
      <point x="88.88000000000001" y="702.32" type="line"/>
      <point x="151.8" y="678.52"/>
      <point x="181.20000000000002" y="595.76"/>
      <point x="181.20000000000002" y="483.44" type="curve" smooth="yes"/>
      <point x="181.20000000000002" y="276.71999999999997"/>
      <point x="89.4" y="-123.96000000000001"/>
      <point x="-50.0" y="-172.56" type="curve"/>
      <point x="-52.2" y="-220.0" type="line"/>
      <point x="129.68" y="-162.72"/>
      <point x="229.0" y="235.51999999999995"/>
    </contour>
  </outline>
</glyph>
<glyph name="asterisk" format="2">
  <advance width="309.28000000000003"/>
  <unicode hex="002A"/>
  <outline>
    <contour>
      <point x="98.12" y="364.0" type="line"/>
      <point x="186.56" y="476.28" type="line"/>
      <point x="237.96" y="364.47999999999996" type="line"/>
      <point x="265.56" y="382.64" type="line"/>
      <point x="218.35999999999999" y="502.32000000000005" type="line"/>
      <point x="335.84" y="552.12" type="line"/>
      <point x="330.44" y="582.48" type="line"/>
      <point x="214.8" y="540.88" type="line"/>
      <point x="234.79999999999998" y="682.72" type="line"/>
      <point x="203.35999999999999" y="682.72" type="line"/>
      <point x="178.48000000000002" y="541.3599999999999" type="line"/>
      <point x="75.48000000000002" y="582.96" type="line"/>
      <point x="61.36" y="553.08" type="line"/>
      <point x="161.92" y="503.28" type="line"/>
      <point x="75.47999999999999" y="383.28" type="line"/>
    </contour>
  </outline>
</glyph>
<glyph name="plus" format="2">
  <advance width="432.84"/>
  <unicode hex="002B"/>
  <outline>
    <contour>
      <point x="161.44" y="84.12" type="line"/>
      <point x="212.08" y="84.12" type="line"/>
      <point x="241.44" y="270.91999999999996" type="line"/>
      <point x="383.56" y="270.91999999999996" type="line"/>
      <point x="391.68" y="321.40000000000003" type="line"/>
      <point x="249.56" y="321.40000000000003" type="line"/>
      <point x="279.32" y="508.6" type="line"/>
      <point x="228.84000000000003" y="508.6" type="line"/>
      <point x="198.92" y="321.40000000000003" type="line"/>
      <point x="56.56" y="321.40000000000003" type="line"/>
      <point x="48.44" y="270.91999999999996" type="line"/>
      <point x="190.96" y="270.91999999999996" type="line"/>
    </contour>
  </outline>
</glyph>
<glyph name="comma" format="2">
  <advance width="164.48"/>
  <unicode hex="002C"/>
  <outline>
    <contour>
      <point x="20.32" y="47.48" type="line"/>
      <point x="21.88" y="32.0"/>
      <point x="21.72" y="16.24"/>
      <point x="21.04" y="3.080000000000001" type="curve" smooth="yes"/>
      <point x="18.84" y="-60.44"/>
      <point x="-18.879999999999995" y="-143.88000000000002"/>
      <point x="-71.32" y="-179.88" type="curve"/>
      <point x="-35.8" y="-198.68000000000004" type="line"/>
      <point x="39.80000000000001" y="-148.24"/>
      <point x="76.8" y="-47.28000000000001"/>
      <point x="76.8" y="15.880000000000003" type="curve" smooth="yes"/>
      <point x="76.8" y="28.919999999999998"/>
      <point x="75.64000000000001" y="41.04"/>
      <point x="72.84000000000002" y="53.92" type="curve"/>
    </contour>
  </outline>
</glyph>
<glyph name="hyphen" format="2">
  <advance width="304.52"/>
  <unicode hex="002D"/>
  <outline>
    <contour>
      <point x="37.00000000000001" y="248.24" type="line"/>
      <point x="258.88" y="248.24" type="line"/>
      <point x="267.96" y="300.96" type="line"/>
      <point x="46.08" y="300.96" type="line"/>
    </contour>
  </outline>
</glyph>
<glyph name="period" format="2">
  <advance width="165.52"/>
  <unicode hex="002E"/>
  <outline>
    <contour>
      <point x="8.72" y="22.72" type="curve" smooth="yes"/>
      <point x="7.92" y="5.04"/>
      <point x="15.360000000000001" y="-1.6400000000000001"/>
      <point x="37.64" y="-1.6400000000000001" type="curve" smooth="yes"/>
      <point x="69.36" y="-1.6400000000000001"/>
      <point x="78.08" y="13.440000000000001"/>
      <point x="80.48" y="47.959999999999994" type="curve" smooth="yes"/>
      <point x="81.28" y="65.88"/>
      <point x="72.88000000000001" y="72.08000000000001"/>
      <point x="51.28" y="72.08000000000001" type="curve" smooth="yes"/>
      <point x="20.24" y="72.08000000000001"/>
      <point x="11.12" y="56.84"/>
    </contour>
  </outline>
</glyph>
<glyph name="slash" format="2">
  <advance width="322.8"/>
  <unicode hex="002F"/>
  <outline>
    <contour>
      <point x="-68.92" y="-210.0" type="line"/>
      <point x="-19.32" y="-210.0" type="line"/>
      <point x="388.72" y="740.0" type="line"/>
      <point x="338.8" y="740.0" type="line"/>
    </contour>
  </outline>
</glyph>
<glyph name="zero" format="2">
  <advance width="585.76"/>
  <unicode hex="0030"/>
  <outline>
    <contour>
      <point x="261.92" y="-10.8" type="curve" smooth="yes"/>
      <point x="461.52000000000004" y="-10.8"/>
      <point x="567.5999999999999" y="256.16"/>
      <point x="567.5999999999999" y="473.79999999999995" type="curve" smooth="yes"/>
      <point x="567.5999999999999" y="631.6800000000001"/>
      <point x="496.68" y="710.4"/>
      <point x="346.88" y="710.4" type="curve" smooth="yes"/>
      <point x="143.44000000000003" y="710.4"/>
      <point x="41.040000000000006" y="441.92"/>
      <point x="41.040000000000006" y="226.68" type="curve" smooth="yes"/>
      <point x="41.040000000000006" y="69.2"/>
      <point x="112.6" y="-10.8"/>
    </contour>
    <contour>
      <point x="265.12" y="40.6" type="curve" smooth="yes"/>
      <point x="152.08" y="40.6"/>
      <point x="100.08000000000001" y="105.0"/>
      <point x="100.44000000000001" y="227.12" type="curve" smooth="yes"/>
      <point x="101.16" y="416.52"/>
      <point x="182.72" y="659.4"/>
      <point x="343.67999999999995" y="659.4" type="curve" smooth="yes"/>
      <point x="457.2" y="659.4"/>
      <point x="508.55999999999995" y="596.28"/>
      <point x="508.19999999999993" y="474.1600000000001" type="curve" smooth="yes"/>
      <point x="507.48" y="285.80000000000007"/>
      <point x="425.03999999999996" y="40.6"/>
    </contour>
  </outline>
</glyph>
<glyph name="one" format="2">
  <advance width="585.28"/>
  <unicode hex="0031"/>
  <outline>
    <contour>
      <point x="39.96000000000001" y="0.0" type="line"/>
      <point x="499.12000000000006" y="0.0" type="line"/>
      <point x="507.28" y="50.88" type="line"/>
      <point x="321.04" y="50.88" type="line"/>
      <point x="425.08" y="703.2" type="line"/>
      <point x="395.24" y="703.2" type="line"/>
      <point x="113.28" y="559.36" type="line"/>
      <point x="122.56" y="508.43999999999994" type="line"/>
      <point x="355.0" y="628.9200000000001" type="line"/>
      <point x="263.28" y="50.88" type="line"/>
      <point x="48.00000000000001" y="50.88" type="line"/>
    </contour>
  </outline>
</glyph>
<glyph name="two" format="2">
  <advance width="585.76"/>
  <unicode hex="0032"/>
  <outline>
    <contour>
      <point x="44.88" y="41.39999999999999" type="curve"/>
      <point x="41.2" y="0.0" type="line"/>
      <point x="484.24" y="0.0" type="line"/>
      <point x="491.72" y="49.8" type="line"/>
      <point x="134.72000000000003" y="49.8" type="line"/>
      <point x="361.08000000000004" y="224.07999999999998"/>
      <point x="493.84" y="385.48"/>
      <point x="493.84" y="558.1600000000001" type="curve" smooth="yes"/>
      <point x="493.84" y="657.04"/>
      <point x="422.12" y="710.0"/>
      <point x="323.24" y="710.0" type="curve" smooth="yes"/>
      <point x="256.56" y="710.0"/>
      <point x="184.04" y="687.7599999999999"/>
      <point x="130.23999999999998" y="649.32" type="curve"/>
      <point x="146.64000000000001" y="604.7200000000001" type="line"/>
      <point x="198.32000000000002" y="638.3199999999999"/>
      <point x="254.04000000000002" y="657.0799999999999"/>
      <point x="306.87999999999994" y="657.0799999999999" type="curve" smooth="yes"/>
      <point x="381.15999999999997" y="657.0799999999999"/>
      <point x="434.44000000000005" y="616.5999999999999"/>
      <point x="434.44000000000005" y="542.68" type="curve" smooth="yes"/>
      <point x="434.08" y="395.92"/>
      <point x="292.23999999999995" y="222.19999999999996"/>
    </contour>
  </outline>
</glyph>
<glyph name="three" format="2">
  <advance width="586.0"/>
  <unicode hex="0033"/>
  <outline>
    <contour>
      <point x="4.799999999999999" y="51.8" type="line"/>
      <point x="62.599999999999994" y="10.8"/>
      <point x="137.4" y="-10.0"/>
      <point x="232.4" y="-10.0" type="curve" smooth="yes"/>
      <point x="384.6" y="-10.0"/>
      <point x="504.20000000000005" y="73.6"/>
      <point x="504.20000000000005" y="221.4" type="curve" smooth="yes"/>
      <point x="504.20000000000005" y="312.59999999999997"/>
      <point x="458.6" y="357.4"/>
      <point x="391.8" y="371.40000000000003" type="curve"/>
      <point x="460.2" y="391.79999999999995"/>
      <point x="521.2" y="452.59999999999997"/>
      <point x="521.2" y="550.8000000000001" type="curve" smooth="yes"/>
      <point x="521.2" y="647.0"/>
      <point x="450.0" y="710.0"/>
      <point x="318.00000000000006" y="710.0" type="curve" smooth="yes"/>
      <point x="259.40000000000003" y="710.0"/>
      <point x="185.39999999999998" y="699.8000000000001"/>
      <point x="130.20000000000002" y="668.8000000000001" type="curve"/>
      <point x="145.60000000000002" y="624.0" type="line"/>
      <point x="197.40000000000003" y="650.1999999999999"/>
      <point x="255.20000000000002" y="659.0"/>
      <point x="307.0" y="659.0" type="curve" smooth="yes"/>
      <point x="403.0" y="659.0"/>
      <point x="463.40000000000003" y="613.8"/>
      <point x="463.40000000000003" y="538.0" type="curve" smooth="yes"/>
      <point x="463.40000000000003" y="441.40000000000003"/>
      <point x="391.6" y="387.99999999999994"/>
      <point x="302.4" y="387.99999999999994" type="curve" smooth="yes"/>
      <point x="190.39999999999998" y="387.99999999999994" type="line"/>
      <point x="182.6" y="342.8" type="line"/>
      <point x="302.2" y="342.8" type="line" smooth="yes"/>
      <point x="396.59999999999997" y="342.8"/>
      <point x="445.2" y="304.40000000000003"/>
      <point x="445.2" y="218.39999999999998" type="curve" smooth="yes"/>
      <point x="445.2" y="106.99999999999999"/>
      <point x="359.8" y="41.400000000000006"/>
      <point x="236.60000000000002" y="41.400000000000006" type="curve" smooth="yes"/>
      <point x="149.6" y="41.400000000000006"/>
      <point x="85.6" y="59.4"/>
      <point x="31.6" y="94.6" type="curve"/>
    </contour>
  </outline>
</glyph>
<glyph name="four" format="2">
  <advance width="586.0"/>
  <unicode hex="0034"/>
  <outline>
    <contour>
      <point x="29.6" y="174.20000000000002" type="line"/>
      <point x="358.4" y="174.20000000000002" type="line"/>
      <point x="330.4" y="-2.1999999999999997" type="line"/>
      <point x="389.79999999999995" y="-2.1999999999999997" type="line"/>
      <point x="417.2" y="174.20000000000002" type="line"/>
      <point x="531.0" y="174.20000000000002" type="line"/>
      <point x="538.4000000000001" y="222.59999999999997" type="line"/>
      <point x="425.00000000000006" y="222.59999999999997" type="line"/>
      <point x="500.6" y="697.8000000000001" type="line"/>
      <point x="453.4" y="703.2" type="line"/>
      <point x="32.8" y="216.8" type="line"/>
    </contour>
    <contour>
      <point x="94.8" y="222.59999999999997" type="line"/>
      <point x="430.2" y="612.8" type="line"/>
      <point x="367.0" y="222.59999999999997" type="line"/>
    </contour>
  </outline>
</glyph>
<glyph name="five" format="2">
  <advance width="585.76"/>
  <unicode hex="0035"/>
  <outline>
    <contour>
      <point x="22.72" y="52.96" type="line"/>
      <point x="73.44" y="12.200000000000001"/>
      <point x="136.48000000000002" y="-10.0"/>
      <point x="229.44" y="-10.0" type="curve" smooth="yes"/>
      <point x="436.0400000000001" y="-10.0"/>
      <point x="510.76" y="129.40000000000003"/>
      <point x="510.76" y="250.31999999999996" type="curve" smooth="yes"/>
      <point x="510.76" y="348.88"/>
      <point x="456.03999999999996" y="401.96000000000004"/>
      <point x="338.72" y="401.96000000000004" type="curve" smooth="yes"/>
      <point x="167.8" y="401.96" type="line"/>
      <point x="228.99999999999997" y="647.44" type="line"/>
      <point x="536.8" y="647.44" type="line"/>
      <point x="545.2399999999999" y="700.0" type="line"/>
      <point x="193.28" y="700.0" type="line"/>
      <point x="106.32000000000001" y="363.76000000000005" type="line"/>
      <point x="114.03999999999999" y="353.0" type="line"/>
      <point x="314.56" y="353.0" type="line" smooth="yes"/>
      <point x="411.92" y="353.0"/>
      <point x="452.08" y="315.12"/>
      <point x="452.08" y="239.8" type="curve" smooth="yes"/>
      <point x="452.08" y="152.72"/>
      <point x="385.4" y="41.0"/>
      <point x="233.44" y="41.0" type="curve" smooth="yes"/>
      <point x="147.4" y="41.0"/>
      <point x="90.56" y="66.92"/>
      <point x="47.480000000000004" y="98.39999999999999" type="curve"/>
    </contour>
  </outline>
</glyph>
<glyph name="six" format="2">
  <advance width="586.0"/>
  <unicode hex="0036"/>
  <note>
14
</note>
  <outline>
    <contour>
      <point x="296.8" y="-10.0" type="curve" smooth="yes"/>
      <point x="438.6" y="-10.0"/>
      <point x="539.8000000000001" y="81.80000000000001"/>
      <point x="539.8000000000001" y="236.6" type="curve" smooth="yes"/>
      <point x="539.8000000000001" y="363.8"/>
      <point x="465.59999999999997" y="424.8"/>
      <point x="339.0" y="424.8" type="curve" smooth="yes"/>
      <point x="258.8" y="424.8"/>
      <point x="166.8" y="397.4"/>
      <point x="108.80000000000001" y="331.8" type="curve"/>
      <point x="104.80000000000001" y="278.0" type="line"/>
      <point x="156.39999999999998" y="342.40000000000003"/>
      <point x="241.2" y="375.8"/>
      <point x="325.79999999999995" y="375.8" type="curve" smooth="yes"/>
      <point x="435.0" y="375.8"/>
      <point x="483.6" y="325.79999999999995"/>
      <point x="483.6" y="229.40000000000003" type="curve" smooth="yes"/>
      <point x="483.6" y="115.8"/>
      <point x="409.6" y="40.2"/>
      <point x="299.6" y="40.2" type="curve" smooth="yes"/>
      <point x="176.6" y="40.2"/>
      <point x="110.60000000000001" y="107.6"/>
      <point x="110.60000000000001" y="245.79999999999998" type="curve" smooth="yes"/>
      <point x="110.60000000000001" y="384.4"/>
      <point x="147.8" y="499.0"/>
      <point x="215.0" y="570.4" type="curve" smooth="yes"/>
      <point x="267.40000000000003" y="627.0"/>
      <point x="336.59999999999997" y="658.1999999999999"/>
      <point x="419.8" y="658.1999999999999" type="curve" smooth="yes"/>
      <point x="469.6" y="658.1999999999999"/>
      <point x="517.2" y="648.2"/>
      <point x="559.5999999999999" y="627.2" type="curve"/>
      <point x="581.6" y="673.8000000000001" type="line"/>
      <point x="538.6" y="696.5999999999999"/>
      <point x="481.40000000000003" y="710.0"/>
      <point x="416.8" y="710.0" type="curve" smooth="yes"/>
      <point x="194.20000000000002" y="710.0"/>
      <point x="54.8" y="529.6"/>
      <point x="54.8" y="242.4" type="curve" smooth="yes"/>
      <point x="54.8" y="74.2"/>
      <point x="140.4" y="-10.0"/>
    </contour>
  </outline>
</glyph>
<glyph name="seven" format="2">
  <advance width="585.28"/>
  <unicode hex="0037"/>
  <note>
9
</note>
  <outline>
    <contour>
      <point x="149.64000000000001" y="0.0" type="curve"/>
      <point x="210.95999999999998" y="0.0" type="line"/>
      <point x="232.48000000000002" y="128.44"/>
      <point x="279.96" y="226.56"/>
      <point x="402.88" y="413.68" type="curve" smooth="yes"/>
      <point x="562.5200000000001" y="656.8" type="line"/>
      <point x="569.6400000000001" y="700.0" type="line"/>
      <point x="116.12" y="700.0" type="line"/>
      <point x="107.83999999999999" y="646.44" type="line"/>
      <point x="493.76000000000005" y="646.44" type="line"/>
      <point x="346.76000000000005" y="428.8" type="line" smooth="yes"/>
      <point x="228.92" y="254.56"/>
      <point x="173.39999999999998" y="149.4"/>
    </contour>
  </outline>
</glyph>
<glyph name="eight" format="2">
  <advance width="586.0"/>
  <unicode hex="0038"/>
  <outline>
    <contour>
      <point x="266.2" y="-10.0" type="curve" smooth="yes"/>
      <point x="421.8" y="-10.0"/>
      <point x="529.5999999999999" y="61.199999999999996"/>
      <point x="529.5999999999999" y="200.4" type="curve" smooth="yes"/>
      <point x="529.5999999999999" y="434.59999999999997"/>
      <point x="164.0" y="343.40000000000003"/>
      <point x="164.0" y="532.6" type="curve" smooth="yes"/>
      <point x="164.0" y="613.4000000000001"/>
      <point x="242.6" y="661.0"/>
      <point x="348.4" y="661.0" type="curve" smooth="yes"/>
      <point x="456.4" y="661.0"/>
      <point x="504.0" y="613.8"/>
      <point x="504.0" y="548.4" type="curve" smooth="yes"/>
      <point x="504.0" y="459.8"/>
      <point x="451.6" y="408.59999999999997"/>
      <point x="365.0" y="365.0" type="curve"/>
      <point x="406.4" y="345.2" type="line"/>
      <point x="495.59999999999997" y="391.0"/>
      <point x="559.8" y="451.4"/>
      <point x="559.8" y="556.0" type="curve" smooth="yes"/>
      <point x="559.8" y="643.1999999999999"/>
      <point x="497.0" y="710.0"/>
      <point x="351.20000000000005" y="710.0" type="curve" smooth="yes"/>
      <point x="212.0" y="710.0"/>
      <point x="107.0" y="646.6"/>
      <point x="107.0" y="524.0" type="curve" smooth="yes"/>
      <point x="107.0" y="299.4"/>
      <point x="470.2" y="396.2"/>
      <point x="470.2" y="193.4" type="curve" smooth="yes"/>
      <point x="470.2" y="89.8"/>
      <point x="389.0" y="37.00000000000001"/>
      <point x="271.2" y="37.00000000000001" type="curve" smooth="yes"/>
      <point x="148.0" y="37.00000000000001"/>
      <point x="81.80000000000001" y="92.0"/>
      <point x="81.80000000000001" y="173.79999999999998" type="curve" smooth="yes"/>
      <point x="81.80000000000001" y="267.8"/>
      <point x="153.4" y="335.8"/>
      <point x="253.20000000000002" y="371.2" type="curve"/>
      <point x="210.0" y="393.4" type="line"/>
      <point x="103.0" y="354.8"/>
      <point x="23.2" y="273.8"/>
      <point x="23.2" y="164.4" type="curve" smooth="yes"/>
      <point x="23.2" y="61.2"/>
      <point x="104.0" y="-10.0"/>
    </contour>
  </outline>
</glyph>
<glyph name="nine" format="2">
  <advance width="586.0"/>
  <unicode hex="0039"/>
  <outline>
    <contour>
      <point x="314.2" y="710.0" type="curve" smooth="yes"/>
      <point x="172.4" y="710.0"/>
      <point x="71.2" y="618.2"/>
      <point x="71.2" y="463.40000000000003" type="curve" smooth="yes"/>
      <point x="71.2" y="336.2"/>
      <point x="145.4" y="275.2"/>
      <point x="272.0" y="275.2" type="curve" smooth="yes"/>
      <point x="352.2" y="275.2"/>
      <point x="444.20000000000005" y="302.59999999999997"/>
      <point x="502.2" y="368.2" type="curve"/>
      <point x="506.2" y="422.0" type="line"/>
      <point x="454.59999999999997" y="357.6"/>
      <point x="369.8" y="324.20000000000005"/>
      <point x="285.2" y="324.20000000000005" type="curve" smooth="yes"/>
      <point x="176.0" y="324.20000000000005"/>
      <point x="127.4" y="374.20000000000005"/>
      <point x="127.4" y="470.59999999999997" type="curve" smooth="yes"/>
      <point x="127.4" y="584.1999999999999"/>
      <point x="201.4" y="659.8"/>
      <point x="311.4" y="659.8" type="curve" smooth="yes"/>
      <point x="434.40000000000003" y="659.8"/>
      <point x="500.4" y="592.4"/>
      <point x="500.4" y="454.20000000000005" type="curve" smooth="yes"/>
      <point x="500.4" y="315.6"/>
      <point x="464.4" y="199.79999999999998"/>
      <point x="397.2" y="128.4" type="curve" smooth="yes"/>
      <point x="344.8" y="71.8"/>
      <point x="275.6" y="40.6"/>
      <point x="192.4" y="40.6" type="curve" smooth="yes"/>
      <point x="142.6" y="40.6"/>
      <point x="93.8" y="51.800000000000004"/>
      <point x="51.4" y="72.8" type="curve"/>
      <point x="29.400000000000002" y="26.2" type="line"/>
      <point x="72.4" y="3.3999999999999995"/>
      <point x="129.6" y="-10.0"/>
      <point x="194.20000000000002" y="-10.0" type="curve" smooth="yes"/>
      <point x="416.79999999999995" y="-10.0"/>
      <point x="556.2" y="170.4"/>
      <point x="556.2" y="457.59999999999997" type="curve" smooth="yes"/>
      <point x="556.2" y="625.8000000000001"/>
      <point x="470.6" y="710.0"/>
    </contour>
  </outline>
</glyph>
<glyph name="less" format="2">
  <advance width="433.04"/>
  <unicode hex="003C"/>
  <outline>
    <contour>
      <point x="355.32000000000005" y="79.44" type="line"/>
      <point x="363.08" y="130.8" type="line"/>
      <point x="99.4" y="294.08000000000004" type="line"/>
      <point x="415.32" y="457.88" type="line"/>
      <point x="423.08000000000004" y="510.56" type="line"/>
      <point x="54.519999999999996" y="322.76" type="line"/>
      <point x="45.84" y="268.28000000000003" type="line"/>
    </contour>
  </outline>
</glyph>
<glyph name="equal" format="2">
  <advance width="428.36000000000007"/>
  <unicode hex="003D"/>
  <outline>
    <contour>
      <point x="369.6" y="214.92000000000002" type="line"/>
      <point x="40.00000000000001" y="214.92000000000002" type="line"/>
      <point x="32.120000000000005" y="163.96000000000004" type="line"/>
      <point x="361.72" y="163.96000000000004" type="line"/>
    </contour>
    <contour>
      <point x="402.2" y="426.8" type="line"/>
      <point x="72.64" y="426.8" type="line"/>
      <point x="64.72" y="375.84" type="line"/>
      <point x="394.32" y="375.84" type="line"/>
    </contour>
  </outline>
</glyph>
<glyph name="greater" format="2">
  <advance width="433.04"/>
  <unicode hex="003E"/>
  <outline>
    <contour>
      <point x="385.2" y="266.84" type="line"/>
      <point x="393.72" y="320.12" type="line"/>
      <point x="84.04" y="508.8" type="line"/>
      <point x="76.12" y="458.19999999999993" type="line"/>
      <point x="340.48" y="294.56" type="line"/>
      <point x="24.52" y="131.6" type="line"/>
      <point x="16.2" y="78.48" type="line"/>
    </contour>
  </outline>
</glyph>
<glyph name="question" format="2">
  <advance width="413.2"/>
  <unicode hex="003F"/>
  <outline>
    <contour>
      <point x="159.39999999999998" y="262.24" type="line"/>
      <point x="209.16" y="262.24" type="line"/>
      <point x="220.68000000000004" y="332.88" type="line"/>
      <point x="352.24" y="398.15999999999997"/>
      <point x="434.64000000000004" y="462.96000000000004"/>
      <point x="434.64000000000004" y="603.0400000000001" type="curve" smooth="yes"/>
      <point x="434.64000000000004" y="706.1999999999999"/>
      <point x="358.47999999999996" y="750.0"/>
      <point x="274.40000000000003" y="750.0" type="curve" smooth="yes"/>
      <point x="208.92" y="750.0"/>
      <point x="134.0" y="725.9599999999999"/>
      <point x="75.11999999999999" y="685.0" type="curve"/>
      <point x="88.2" y="639.0400000000001" type="line"/>
      <point x="144.92" y="675.56"/>
      <point x="205.32000000000002" y="695.64"/>
      <point x="261.16" y="695.64" type="curve" smooth="yes"/>
      <point x="322.28" y="695.64"/>
      <point x="375.0" y="667.68"/>
      <point x="375.0" y="590.28" type="curve" smooth="yes"/>
      <point x="375.0" y="492.72"/>
      <point x="325.72" y="426.23999999999995"/>
      <point x="174.28" y="362.44" type="curve"/>
    </contour>
    <contour>
      <point x="115.48000000000002" y="21.360000000000003" type="curve" smooth="yes"/>
      <point x="115.2" y="4.48"/>
      <point x="122.43999999999998" y="-2.0"/>
      <point x="144.16" y="-2.0" type="curve" smooth="yes"/>
      <point x="175.44" y="-2.0"/>
      <point x="186.48" y="12.599999999999998"/>
      <point x="187.32000000000002" y="47.68" type="curve" smooth="yes"/>
      <point x="187.60000000000002" y="65.4"/>
      <point x="179.32000000000002" y="71.52"/>
      <point x="158.36" y="71.52" type="curve" smooth="yes"/>
      <point x="127.72" y="71.52"/>
      <point x="116.32000000000001" y="56.68"/>
    </contour>
  </outline>
</glyph>
<glyph name="at" format="2">
  <advance width="702.1999999999999"/>
  <unicode hex="0040"/>
  <outline>
    <contour>
      <point x="282.0" y="-121.4" type="curve" smooth="yes"/>
      <point x="352.0" y="-121.4"/>
      <point x="422.79999999999995" y="-98.2"/>
      <point x="478.8" y="-53.2" type="curve"/>
      <point x="466.4" y="-29.200000000000003" type="line"/>
      <point x="413.2" y="-69.2"/>
      <point x="350.40000000000003" y="-90.0"/>
      <point x="285.40000000000003" y="-90.0" type="curve" smooth="yes"/>
      <point x="147.8" y="-90.0"/>
      <point x="64.2" y="-4.399999999999997"/>
      <point x="64.2" y="154.0" type="curve" smooth="yes"/>
      <point x="64.2" y="439.4"/>
      <point x="219.0" y="690.2"/>
      <point x="434.59999999999997" y="690.2" type="curve" smooth="yes"/>
      <point x="573.0" y="690.2"/>
      <point x="654.4" y="618.6"/>
      <point x="654.4" y="468.79999999999995" type="curve" smooth="yes"/>
      <point x="654.4" y="299.8"/>
      <point x="583.8000000000001" y="104.8"/>
      <point x="510.6" y="104.8" type="curve" smooth="yes"/>
      <point x="463.8" y="104.8"/>
      <point x="467.59999999999997" y="169.6"/>
      <point x="480.0" y="226.0" type="curve" smooth="yes"/>
      <point x="544.4" y="518.0" type="line"/>
      <point x="498.6" y="534.8000000000001"/>
      <point x="458.4" y="542.6"/>
      <point x="419.79999999999995" y="542.6" type="curve" smooth="yes"/>
      <point x="281.0" y="542.6"/>
      <point x="174.2" y="350.79999999999995"/>
      <point x="174.2" y="182.4" type="curve" smooth="yes"/>
      <point x="174.2" y="108.0"/>
      <point x="211.4" y="70.2"/>
      <point x="276.8" y="70.2" type="curve" smooth="yes"/>
      <point x="334.6" y="70.2"/>
      <point x="395.4" y="108.0"/>
      <point x="433.2" y="173.79999999999998" type="curve"/>
      <point x="432.4" y="117.0"/>
      <point x="446.2" y="68.0"/>
      <point x="504.2" y="68.0" type="curve" smooth="yes"/>
      <point x="607.4" y="68.0"/>
      <point x="688.0" y="286.0"/>
      <point x="688.0" y="473.79999999999995" type="curve" smooth="yes"/>
      <point x="688.0" y="634.8"/>
      <point x="592.2" y="722.8"/>
      <point x="439.0" y="722.8" type="curve" smooth="yes"/>
      <point x="201.0" y="722.8"/>
      <point x="30.799999999999997" y="463.40000000000003"/>
      <point x="30.799999999999997" y="146.0" type="curve" smooth="yes"/>
      <point x="30.799999999999997" y="-24.0"/>
      <point x="123.8" y="-121.4"/>
    </contour>
    <contour>
      <point x="297.6" y="116.2" type="curve" smooth="yes"/>
      <point x="250.6" y="116.2"/>
      <point x="226.4" y="143.6"/>
      <point x="226.4" y="195.8" type="curve" smooth="yes"/>
      <point x="226.4" y="334.59999999999997"/>
      <point x="318.8" y="502.0"/>
      <point x="411.6" y="502.0" type="curve" smooth="yes"/>
      <point x="439.2" y="502.0"/>
      <point x="462.6" y="498.0"/>
      <point x="490.6" y="488.20000000000005" type="curve"/>
      <point x="436.0" y="243.39999999999998" type="line" smooth="yes"/>
      <point x="408.40000000000003" y="166.6"/>
      <point x="349.0" y="116.2"/>
    </contour>
  </outline>
</glyph>
<glyph name="A" format="2">
  <advance width="548.3999999999999"/>
  <unicode hex="0041"/>
  <anchor x="229.6" y="0.0" name="bottom"/>
  <anchor x="489.59999999999997" y="0.0" name="ogonek"/>
  <anchor x="339.2" y="700.0" name="top"/>
  <outline>
    <contour>
      <point x="-29.200000000000003" y="0.0" type="line"/>
      <point x="35.00000000000001" y="0.0" type="line"/>
      <point x="128.2" y="196.2" type="line"/>
      <point x="394.79999999999995" y="196.2" type="line"/>
      <point x="426.0" y="0.0" type="line"/>
      <point x="489.59999999999997" y="0.0" type="line"/>
      <point x="374.59999999999997" y="708.8" type="line"/>
      <point x="306.0" y="708.8" type="line"/>
    </contour>
    <contour>
      <point x="148.4" y="246.0" type="line"/>
      <point x="330.8" y="642.8" type="line"/>
      <point x="390.6" y="246.0" type="line"/>
    </contour>
  </outline>
</glyph>
<glyph name="B" format="2">
  <advance width="569.0"/>
  <unicode hex="0042"/>
  <outline>
    <contour>
      <point x="29.480000000000004" y="-0.2799999999999996" type="line"/>
      <point x="126.72000000000003" y="-7.200000000000001"/>
      <point x="173.16" y="-10.0"/>
      <point x="243.04000000000002" y="-10.0" type="curve" smooth="yes"/>
      <point x="393.91999999999996" y="-10.0"/>
      <point x="522.5200000000001" y="78.00000000000001"/>
      <point x="522.5200000000001" y="232.64000000000001" type="curve" smooth="yes"/>
      <point x="522.5200000000001" y="308.0"/>
      <point x="476.52" y="355.92"/>
      <point x="411.96" y="367.76" type="curve"/>
      <point x="490.32" y="394.91999999999996"/>
      <point x="545.3200000000002" y="486.12"/>
      <point x="545.3200000000002" y="576.2" type="curve" smooth="yes"/>
      <point x="545.3200000000002" y="669.08"/>
      <point x="482.68" y="710.0"/>
      <point x="343.76" y="710.0" type="curve" smooth="yes"/>
      <point x="296.8" y="710.0"/>
      <point x="239.52" y="707.08"/>
      <point x="140.28000000000003" y="699.32" type="curve"/>
    </contour>
    <contour>
      <point x="148.88000000000002" y="381.52000000000004" type="line"/>
      <point x="191.51999999999998" y="653.16" type="line"/>
      <point x="243.2" y="657.32"/>
      <point x="288.11999999999995" y="660.76"/>
      <point x="336.88" y="660.76" type="curve" smooth="yes"/>
      <point x="438.12" y="660.76"/>
      <point x="486.64" y="635.56"/>
      <point x="486.64" y="560.2" type="curve" smooth="yes"/>
      <point x="486.64" y="467.79999999999995"/>
      <point x="410.0" y="381.52000000000004"/>
      <point x="331.43999999999994" y="381.52000000000004" type="curve" smooth="yes"/>
    </contour>
    <contour>
      <point x="141.24" y="335.4" type="line"/>
      <point x="333.68" y="335.4" type="line" smooth="yes"/>
      <point x="394.47999999999996" y="335.4"/>
      <point x="462.76000000000005" y="305.76"/>
      <point x="462.76000000000005" y="227.08" type="curve" smooth="yes"/>
      <point x="462.76000000000005" y="107.23999999999998"/>
      <point x="367.0799999999999" y="39.48"/>
      <point x="248.96000000000004" y="39.48" type="curve" smooth="yes"/>
      <point x="192.60000000000002" y="39.48"/>
      <point x="154.0" y="42.68"/>
      <point x="95.44" y="46.31999999999999" type="curve"/>
    </contour>
  </outline>
</glyph>
<glyph name="C" format="2">
  <advance width="555.3199999999999"/>
  <unicode hex="0043"/>
  <anchor x="303.72" y="0.0" name="bottom"/>
  <anchor x="400.64000000000004" y="700.0" name="top"/>
  <outline>
    <contour>
      <point x="317.56000000000006" y="-10.0" type="curve" smooth="yes"/>
      <point x="386.15999999999997" y="-10.0"/>
      <point x="443.68" y="-1.6399999999999997"/>
      <point x="491.71999999999997" y="14.719999999999999" type="curve"/>
      <point x="485.2800000000001" y="63.720000000000006" type="line"/>
      <point x="441.08" y="50.2"/>
      <point x="387.7199999999999" y="42.199999999999996"/>
      <point x="327.44000000000005" y="42.199999999999996" type="curve" smooth="yes"/>
      <point x="187.59999999999997" y="42.199999999999996"/>
      <point x="109.2" y="103.03999999999999"/>
      <point x="109.2" y="235.72" type="curve" smooth="yes"/>
      <point x="109.2" y="478.19999999999993"/>
      <point x="221.20000000000002" y="657.8"/>
      <point x="398.24" y="657.8" type="curve" smooth="yes"/>
      <point x="455.9200000000001" y="657.8"/>
      <point x="505.6" y="650.0"/>
      <point x="560.4" y="634.16" type="curve"/>
      <point x="576.3599999999999" y="682.5600000000001" type="line"/>
      <point x="518.2" y="702.1999999999999"/>
      <point x="463.08000000000004" y="710.0"/>
      <point x="397.87999999999994" y="710.0" type="curve" smooth="yes"/>
      <point x="182.6" y="710.0"/>
      <point x="48.6" y="516.4"/>
      <point x="48.6" y="229.36" type="curve" smooth="yes"/>
      <point x="48.6" y="67.28"/>
      <point x="142.72000000000003" y="-10.0"/>
    </contour>
  </outline>
</glyph>
<glyph name="D" format="2">
  <advance width="616.9599999999999"/>
  <unicode hex="0044"/>
  <anchor x="246.56" y="0.0" name="bottom"/>
  <anchor x="309.68000000000006" y="350.0" name="center"/>
  <anchor x="341.36" y="700.0" name="top"/>
  <outline>
    <contour>
      <point x="222.88" y="-10.0" type="curve" smooth="yes"/>
      <point x="438.64" y="-10.0"/>
      <point x="588.24" y="156.88"/>
      <point x="588.24" y="434.04" type="curve" smooth="yes"/>
      <point x="588.24" y="638.5200000000001"/>
      <point x="469.84" y="710.0"/>
      <point x="311.72" y="710.0" type="curve" smooth="yes"/>
      <point x="253.0" y="710.0"/>
      <point x="200.96000000000004" y="707.72"/>
      <point x="140.16000000000005" y="702.9200000000001" type="curve"/>
      <point x="28.400000000000002" y="-2.1599999999999993" type="line"/>
      <point x="94.28000000000002" y="-7.799999999999999"/>
      <point x="143.16" y="-10.0"/>
    </contour>
    <contour>
      <point x="225.92000000000002" y="38.28" type="curve" smooth="yes"/>
      <point x="174.92000000000002" y="38.28"/>
      <point x="139.72000000000003" y="39.92000000000001"/>
      <point x="94.43999999999998" y="43.120000000000005" type="curve"/>
      <point x="191.72" y="655.2" type="line"/>
      <point x="220.4" y="657.7999999999998"/>
      <point x="268.92" y="659.8"/>
      <point x="312.52" y="659.8" type="curve" smooth="yes"/>
      <point x="427.44" y="659.8"/>
      <point x="528.6000000000001" y="605.68"/>
      <point x="528.6000000000001" y="431.63999999999993" type="curve" smooth="yes"/>
      <point x="528.6000000000001" y="185.71999999999997"/>
      <point x="400.76" y="38.28"/>
    </contour>
  </outline>
</glyph>
<glyph name="E" format="2">
  <advance width="514.44"/>
  <unicode hex="0045"/>
  <anchor x="237.12" y="0.0" name="bottom"/>
  <anchor x="441.52" y="0.0" name="ogonek"/>
  <anchor x="339.0" y="700.0" name="top"/>
  <anchor x="95.47999999999999" y="700.0" name="topleft"/>
  <outline>
    <contour>
      <point x="28.759999999999998" y="0.0" type="line"/>
      <point x="441.52" y="0.0" type="line"/>
      <point x="450.11999999999995" y="52.599999999999994" type="line"/>
      <point x="95.56" y="52.599999999999994" type="line"/>
      <point x="140.72000000000003" y="339.6" type="line"/>
      <point x="457.72" y="339.6" type="line"/>
      <point x="466.72" y="392.20000000000005" type="line"/>
      <point x="149.08" y="392.20000000000005" type="line"/>
      <point x="189.8" y="647.4" type="line"/>
      <point x="527.84" y="647.4" type="line"/>
      <point x="536.8" y="700.0" type="line"/>
      <point x="139.4" y="700.0" type="line"/>
    </contour>
  </outline>
</glyph>
<glyph name="F" format="2">
  <advance width="488.0"/>
  <unicode hex="0046"/>
  <outline>
    <contour>
      <point x="28.959999999999997" y="0.0" type="line"/>
      <point x="87.03999999999999" y="0.0" type="line"/>
      <point x="136.12000000000003" y="304.72" type="line"/>
      <point x="428.0" y="304.72" type="line"/>
      <point x="436.08000000000004" y="357.96" type="line"/>
      <point x="144.23999999999998" y="357.96" type="line"/>
      <point x="189.72" y="646.7600000000001" type="line"/>
      <point x="527.04" y="646.7600000000001" type="line"/>
      <point x="535.8000000000001" y="700.0" type="line"/>
      <point x="139.8" y="700.0" type="line"/>
    </contour>
  </outline>
</glyph>
<glyph name="G" format="2">
  <advance width="577.8000000000001"/>
  <unicode hex="0047"/>
  <anchor x="287.0" y="0.0" name="bottom"/>
  <anchor x="397.91999999999996" y="700.0" name="top"/>
  <outline>
    <contour>
      <point x="301.71999999999997" y="-10.0" type="curve" smooth="yes"/>
      <point x="377.64000000000004" y="-10.0"/>
      <point x="443.08000000000004" y="4.720000000000001"/>
      <point x="485.72" y="23.44" type="curve"/>
      <point x="537.04" y="345.64" type="line"/>
      <point x="316.48" y="345.64" type="line"/>
      <point x="309.04" y="298.8" type="line"/>
      <point x="476.28" y="298.8" type="line"/>
      <point x="438.24" y="60.2" type="line"/>
      <point x="407.2" y="47.32"/>
      <point x="361.24" y="38.96"/>
      <point x="308.72" y="38.96" type="curve" smooth="yes"/>
      <point x="189.60000000000002" y="38.96"/>
      <point x="105.96" y="97.35999999999999"/>
      <point x="105.96" y="232.28" type="curve" smooth="yes"/>
      <point x="105.96" y="477.28"/>
      <point x="221.64" y="658.6"/>
      <point x="398.04" y="658.6" type="curve" smooth="yes"/>
      <point x="456.4" y="658.6"/>
      <point x="500.87999999999994" y="650.5200000000001"/>
      <point x="555.8800000000001" y="634.8000000000001" type="curve"/>
      <point x="574.1199999999999" y="683.08" type="line"/>
      <point x="523.52" y="700.4"/>
      <point x="462.92" y="710.0"/>
      <point x="398.96000000000004" y="710.0" type="curve" smooth="yes"/>
      <point x="178.28" y="710.0"/>
      <point x="47.44" y="507.16"/>
      <point x="47.44" y="227.2" type="curve" smooth="yes"/>
      <point x="47.44" y="66.2"/>
      <point x="149.64" y="-10.0"/>
    </contour>
  </outline>
</glyph>
<glyph name="H" format="2">
  <advance width="630.96"/>
  <unicode hex="0048"/>
  <anchor x="272.11088" y="0.0" name="bottom"/>
  <anchor x="327.81708000000003" y="350.0" name="center"/>
  <anchor x="383.04276000000004" y="700.0" name="top"/>
  <anchor x="86.20276" y="700.0" name="topleft"/>
  <outline>
    <contour>
      <point x="28.88" y="0.0" type="line"/>
      <point x="88.0" y="0.0" type="line"/>
      <point x="132.07999999999998" y="279.15999999999997" type="line"/>
      <point x="500.55999999999995" y="279.15999999999997" type="line"/>
      <point x="456.44" y="0.0" type="line"/>
      <point x="514.24" y="0.0" type="line"/>
      <point x="625.56" y="700.0" type="line"/>
      <point x="567.7200000000001" y="700.0" type="line"/>
      <point x="508.92" y="331.44" type="line"/>
      <point x="139.96" y="331.44" type="line"/>
      <point x="198.84" y="700.0" type="line"/>
      <point x="139.72" y="700.0" type="line"/>
    </contour>
  </outline>
</glyph>
<glyph name="I" format="2">
  <advance width="204.24"/>
  <unicode hex="0049"/>
  <anchor x="58.47536000000001" y="0.0" name="bottom"/>
  <anchor x="87.88336000000001" y="1.1999999999999997" name="ogonek"/>
  <anchor x="169.41772" y="700.0" name="top"/>
  <anchor x="95.67755999999999" y="700.0" name="topleft"/>
  <outline>
    <contour>
      <point x="28.88" y="0.0" type="line"/>
      <point x="87.52" y="0.0" type="line"/>
      <point x="198.84" y="700.0" type="line"/>
      <point x="139.72" y="700.0" type="line"/>
    </contour>
  </outline>
</glyph>
<glyph name="J" format="2">
  <advance width="431.64000000000004"/>
  <unicode hex="004A"/>
  <anchor x="147.57327999999998" y="0.0" name="bottom"/>
  <anchor x="279.96" y="700.0" name="top"/>
  <outline>
    <contour>
      <point x="-26.439999999999998" y="17.6" type="line"/>
      <point x="14.200000000000003" y="3.200000000000001"/>
      <point x="60.64000000000001" y="-10.0"/>
      <point x="130.52" y="-10.0" type="curve" smooth="yes"/>
      <point x="257.56" y="-10.0"/>
      <point x="332.16" y="57.36"/>
      <point x="353.44" y="187.72" type="curve" smooth="yes"/>
      <point x="434.96" y="700.0" type="line"/>
      <point x="118.55999999999999" y="700.0" type="line"/>
      <point x="110.16000000000001" y="648.16" type="line"/>
      <point x="367.91999999999996" y="648.16" type="line"/>
      <point x="295.96000000000004" y="197.68" type="line" smooth="yes"/>
      <point x="278.28000000000003" y="86.28"/>
      <point x="213.4" y="44.24000000000001"/>
      <point x="125.88" y="44.24000000000001" type="curve" smooth="yes"/>
      <point x="66.80000000000001" y="44.24000000000001"/>
      <point x="26.560000000000002" y="57.16"/>
      <point x="-10.679999999999996" y="69.52000000000001" type="curve"/>
    </contour>
  </outline>
</glyph>
<glyph name="K" format="2">
  <advance width="558.76"/>
  <unicode hex="004B"/>
  <anchor x="250.39999999999998" y="0.0" name="bottom"/>
  <anchor x="341.6" y="700.0" name="top"/>
  <outline>
    <contour>
      <point x="28.240000000000002" y="0.0" type="line"/>
      <point x="87.92" y="0.0" type="line"/>
      <point x="198.24" y="700.0" type="line"/>
      <point x="139.96" y="700.0" type="line"/>
    </contour>
    <contour>
      <point x="489.96000000000004" y="-9.24" type="curve" smooth="yes"/>
      <point x="496.52" y="-9.24"/>
      <point x="508.20000000000005" y="-8.12"/>
      <point x="513.9200000000001" y="-5.720000000000001" type="curve"/>
      <point x="517.92" y="51.64000000000001" type="line"/>
      <point x="514.04" y="51.88"/>
      <point x="510.32" y="50.88"/>
      <point x="505.84" y="50.88" type="curve" smooth="yes"/>
      <point x="470.76" y="50.88"/>
      <point x="445.0" y="67.24"/>
      <point x="392.84000000000003" y="132.96" type="curve" smooth="yes"/>
      <point x="145.04" y="445.92" type="line"/>
      <point x="133.32" y="373.64" type="line"/>
      <point x="359.52" y="81.04" type="line" smooth="yes"/>
      <point x="413.76" y="11.799999999999999"/>
      <point x="442.88" y="-9.24"/>
    </contour>
    <contour>
      <point x="235.96" y="301.15999999999997" type="line"/>
      <point x="338.16" y="369.03999999999996"/>
      <point x="503.32000000000005" y="508.40000000000003"/>
      <point x="593.5600000000001" y="685.28" type="curve"/>
      <point x="549.88" y="709.6" type="line"/>
      <point x="451.44" y="533.88"/>
      <point x="300.08" y="403.12"/>
      <point x="207.32" y="341.24" type="curve"/>
    </contour>
  </outline>
</glyph>
<glyph name="L" format="2">
  <advance width="462.32"/>
  <unicode hex="004C"/>
  <anchor x="219.12" y="0.0" name="bottom"/>
  <anchor x="237.73708" y="350.0" name="center"/>
  <anchor x="168.64000000000001" y="700.0" name="top"/>
  <anchor x="372.68" y="700.0" name="topright"/>
  <outline>
    <contour>
      <point x="28.4" y="0.0" type="line"/>
      <point x="405.92" y="0.0" type="line"/>
      <point x="414.52" y="52.16" type="line"/>
      <point x="95.48" y="52.16" type="line"/>
      <point x="198.35999999999999" y="700.0" type="line"/>
      <point x="139.72" y="700.0" type="line"/>
    </contour>
  </outline>
</glyph>
<glyph name="M" format="2">
  <advance width="706.08"/>
  <unicode hex="004D"/>
  <outline>
    <contour>
      <point x="28.28" y="0.0" type="line"/>
      <point x="84.32000000000001" y="0.0" type="line"/>
      <point x="179.0" y="611.9200000000001" type="line"/>
      <point x="332.71999999999997" y="249.12" type="line"/>
      <point x="363.59999999999997" y="249.12" type="line"/>
      <point x="633.36" y="612.16" type="line"/>
      <point x="534.36" y="0.0" type="line"/>
      <point x="589.36" y="0.0" type="line"/>
      <point x="700.6800000000001" y="700.0" type="line"/>
      <point x="636.2399999999999" y="700.0" type="line"/>
      <point x="359.0" y="322.36" type="line"/>
      <point x="199.32" y="700.0" type="line"/>
      <point x="139.72" y="700.0" type="line"/>
    </contour>
  </outline>
</glyph>
<glyph name="N" format="2">
  <advance width="626.4000000000001"/>
  <unicode hex="004E"/>
  <anchor x="271.20000000000005" y="0.0" name="bottom"/>
  <anchor x="381.59999999999997" y="700.0" name="top"/>
  <outline>
    <contour>
      <point x="29.199999999999996" y="0.0" type="line"/>
      <point x="83.6" y="0.0" type="line"/>
      <point x="178.6" y="604.0" type="line"/>
      <point x="455.0" y="-3.2" type="line"/>
      <point x="509.6" y="-3.2" type="line"/>
      <point x="621.0" y="700.0" type="line"/>
      <point x="567.2" y="700.0" type="line"/>
      <point x="471.4" y="92.2" type="line"/>
      <point x="196.8" y="703.2" type="line"/>
      <point x="140.6" y="703.2" type="line"/>
    </contour>
  </outline>
</glyph>
<glyph name="O" format="2">
  <advance width="641.1999999999999"/>
  <unicode hex="004F"/>
  <note>
8
</note>
  <anchor x="282.0" y="0.0" name="bottom"/>
  <anchor x="338.0" y="350.0" name="center"/>
  <anchor x="347.40000000000003" y="0.4" name="ogonek"/>
  <anchor x="388.0" y="700.0" name="top"/>
  <anchor x="94.0" y="700.0" name="topleft"/>
  <anchor x="504.59999999999997" y="683.8" name="topright"/>
  <outline>
    <contour>
      <point x="293.8" y="-8.8" type="curve" smooth="yes"/>
      <point x="494.40000000000003" y="-8.8"/>
      <point x="609.4" y="166.8"/>
      <point x="609.4" y="425.8" type="curve" smooth="yes"/>
      <point x="609.4" y="610.0"/>
      <point x="525.0" y="708.8"/>
      <point x="371.40000000000003" y="708.8" type="curve" smooth="yes"/>
      <point x="170.79999999999998" y="708.8"/>
      <point x="55.8" y="533.2"/>
      <point x="55.8" y="274.2" type="curve" smooth="yes"/>
      <point x="55.8" y="90.0"/>
      <point x="140.2" y="-8.8"/>
    </contour>
    <contour>
      <point x="297.2" y="42.00000000000001" type="curve" smooth="yes"/>
      <point x="183.79999999999998" y="42.00000000000001"/>
      <point x="115.6" y="119.79999999999998"/>
      <point x="115.6" y="273.2" type="curve" smooth="yes"/>
      <point x="115.6" y="493.4"/>
      <point x="205.6" y="658.0"/>
      <point x="368.40000000000003" y="658.0" type="curve" smooth="yes"/>
      <point x="481.4" y="658.0"/>
      <point x="549.6" y="580.1999999999999"/>
      <point x="549.6" y="426.79999999999995" type="curve" smooth="yes"/>
      <point x="549.6" y="206.60000000000002"/>
      <point x="459.6" y="42.00000000000001"/>
    </contour>
  </outline>
</glyph>
<glyph name="P" format="2">
  <advance width="563.6"/>
  <unicode hex="0050"/>
  <outline>
    <contour>
      <point x="29.2" y="0.0" type="line"/>
      <point x="87.6" y="0.0" type="line"/>
      <point x="128.2" y="253.79999999999998" type="line"/>
      <point x="184.2" y="251.4"/>
      <point x="216.6" y="250.60000000000002"/>
      <point x="279.0" y="250.60000000000002" type="curve" smooth="yes"/>
      <point x="468.6" y="250.60000000000002"/>
      <point x="565.0" y="343.0"/>
      <point x="565.8000000000001" y="521.6" type="curve" smooth="yes"/>
      <point x="565.8000000000001" y="648.0"/>
      <point x="493.79999999999995" y="710.0"/>
      <point x="319.8" y="710.0" type="curve" smooth="yes"/>
      <point x="286.6" y="710.0"/>
      <point x="240.2" y="707.8"/>
      <point x="140.6" y="701.8000000000001" type="curve"/>
    </contour>
    <contour>
      <point x="191.4" y="654.4" type="line"/>
      <point x="252.4" y="658.0"/>
      <point x="283.6" y="659.8"/>
      <point x="316.59999999999997" y="659.8" type="curve" smooth="yes"/>
      <point x="454.2" y="659.8"/>
      <point x="506.59999999999997" y="614.8"/>
      <point x="506.59999999999997" y="512.0" type="curve" smooth="yes"/>
      <point x="506.59999999999997" y="379.4"/>
      <point x="436.59999999999997" y="301.0"/>
      <point x="279.20000000000005" y="301.0" type="curve" smooth="yes"/>
      <point x="232.20000000000002" y="301.0"/>
      <point x="194.2" y="302.8"/>
      <point x="136.20000000000002" y="304.8" type="curve"/>
    </contour>
  </outline>
</glyph>
<glyph name="Q" format="2">
  <advance width="643.96"/>
  <unicode hex="0051"/>
  <note>
14
</note>
  <outline>
    <contour>
      <point x="445.96" y="-193.07999999999998" type="curve" smooth="yes"/>
      <point x="478.32000000000005" y="-193.07999999999998"/>
      <point x="507.40000000000003" y="-186.68"/>
      <point x="534.5200000000001" y="-173.8" type="curve"/>
      <point x="532.44" y="-125.88" type="line"/>
      <point x="508.80000000000007" y="-137.51999999999998"/>
      <point x="484.40000000000003" y="-142.72"/>
      <point x="458.36" y="-142.72" type="curve" smooth="yes"/>
      <point x="392.24000000000007" y="-142.72"/>
      <point x="336.32" y="-100.36000000000001"/>
      <point x="323.24" y="4.6800000000000015" type="curve"/>
      <point x="270.76" y="0.6799999999999999" type="line"/>
      <point x="288.56" y="-140.04"/>
      <point x="362.56" y="-193.07999999999998"/>
    </contour>
    <component base="O"/>
  </outline>
</glyph>
<glyph name="R" format="2">
  <advance width="586.4"/>
  <unicode hex="0052"/>
  <anchor x="268.79999999999995" y="0.0" name="bottom"/>
  <anchor x="327.4" y="700.0" name="top"/>
  <outline>
    <contour>
      <point x="29.0" y="0.0" type="line"/>
      <point x="88.0" y="0.0" type="line"/>
      <point x="133.8" y="286.8" type="line"/>
      <point x="189.0" y="285.2"/>
      <point x="241.60000000000002" y="284.6"/>
      <point x="309.2" y="284.2" type="curve"/>
      <point x="319.4" y="287.8" type="line"/>
      <point x="468.59999999999997" y="288.8"/>
      <point x="560.8" y="374.0"/>
      <point x="560.8" y="527.0" type="curve" smooth="yes"/>
      <point x="560.8" y="650.1999999999999"/>
      <point x="503.2" y="710.0"/>
      <point x="326.40000000000003" y="710.0" type="curve" smooth="yes"/>
      <point x="265.0" y="710.0"/>
      <point x="214.2" y="707.6"/>
      <point x="140.4" y="702.2" type="curve"/>
    </contour>
    <contour>
      <point x="523.2" y="-10.0" type="curve" smooth="yes"/>
      <point x="530.4" y="-10.0"/>
      <point x="541.4" y="-7.6"/>
      <point x="546.6" y="-5.8" type="curve"/>
      <point x="549.6" y="49.0" type="line"/>
      <point x="544.6" y="47.400000000000006"/>
      <point x="539.2" y="47.400000000000006"/>
      <point x="536.4" y="47.400000000000006" type="curve" smooth="yes"/>
      <point x="489.40000000000003" y="48.0"/>
      <point x="427.6" y="109.8"/>
      <point x="357.0" y="311.8" type="curve"/>
      <point x="298.8" y="299.2" type="line"/>
      <point x="384.40000000000003" y="60.99999999999999"/>
      <point x="450.59999999999997" y="-10.0"/>
    </contour>
    <contour>
      <point x="311.0" y="333.6" type="curve" smooth="yes"/>
      <point x="235.0" y="333.6"/>
      <point x="188.39999999999998" y="334.0"/>
      <point x="142.20000000000002" y="337.0" type="curve"/>
      <point x="192.20000000000002" y="656.0" type="line"/>
      <point x="246.8" y="659.6"/>
      <point x="270.8" y="661.2"/>
      <point x="323.59999999999997" y="661.2" type="curve" smooth="yes"/>
      <point x="462.0" y="661.2"/>
      <point x="499.79999999999995" y="620.0"/>
      <point x="499.79999999999995" y="525.0" type="curve" smooth="yes"/>
      <point x="499.79999999999995" y="400.4"/>
      <point x="431.8" y="333.6"/>
    </contour>
  </outline>
</glyph>
<glyph name="S" format="2">
  <advance width="522.2"/>
  <unicode hex="0053"/>
  <anchor x="215.0" y="0.0" name="bottom"/>
  <anchor x="334.40000000000003" y="700.0" name="top"/>
  <outline>
    <contour>
      <point x="514.4" y="680.0" type="line"/>
      <point x="455.20000000000005" y="699.8000000000001"/>
      <point x="403.8" y="710.0"/>
      <point x="341.59999999999997" y="710.0" type="curve" smooth="yes"/>
      <point x="175.6" y="710.0"/>
      <point x="85.2" y="635.0000000000001"/>
      <point x="85.2" y="520.8" type="curve" smooth="yes"/>
      <point x="85.2" y="303.40000000000003"/>
      <point x="410.0" y="349.6"/>
      <point x="409.4" y="175.2" type="curve" smooth="yes"/>
      <point x="409.4" y="95.60000000000001"/>
      <point x="346.6" y="41.6"/>
      <point x="222.0" y="41.6" type="curve" smooth="yes"/>
      <point x="150.0" y="41.6"/>
      <point x="71.60000000000001" y="56.0"/>
      <point x="10.8" y="79.6" type="curve"/>
      <point x="-10.4" y="29.400000000000002" type="line"/>
      <point x="56.00000000000001" y="3.7999999999999994"/>
      <point x="136.2" y="-10.0"/>
      <point x="212.8" y="-10.0" type="curve" smooth="yes"/>
      <point x="386.8" y="-10.0"/>
      <point x="470.2" y="66.4"/>
      <point x="470.2" y="182.00000000000003" type="curve" smooth="yes"/>
      <point x="471.2" y="393.2"/>
      <point x="145.4" y="353.0"/>
      <point x="145.4" y="525.4" type="curve" smooth="yes"/>
      <point x="145.4" y="604.4"/>
      <point x="217.8" y="658.4"/>
      <point x="333.0" y="658.4" type="curve" smooth="yes"/>
      <point x="392.4" y="658.4"/>
      <point x="443.2" y="649.0"/>
      <point x="493.8" y="629.5999999999999" type="curve"/>
    </contour>
  </outline>
</glyph>
<glyph name="T" format="2">
  <advance width="477.76"/>
  <unicode hex="0054"/>
  <anchor x="194.93328000000002" y="0.0" name="bottom"/>
  <anchor x="250.82676" y="350.0" name="center"/>
  <anchor x="306.01772" y="700.0" name="top"/>
  <outline>
    <contour>
      <point x="528.5200000000001" y="649.76" type="line"/>
      <point x="537.04" y="700.0" type="line"/>
      <point x="75.39999999999999" y="700.0" type="line"/>
      <point x="66.80000000000001" y="649.76" type="line"/>
      <point x="268.40000000000003" y="649.76" type="line"/>
      <point x="165.4" y="0.0" type="line"/>
      <point x="224.04" y="0.0" type="line"/>
      <point x="326.96000000000004" y="649.76" type="line"/>
    </contour>
  </outline>
</glyph>
<glyph name="U" format="2">
  <advance width="613.1200000000001"/>
  <unicode hex="0055"/>
  <anchor x="262.8488" y="0.0" name="bottom"/>
  <anchor x="317.56" y="0.0" name="ogonek"/>
  <anchor x="371.5826" y="700.0" name="top"/>
  <anchor x="612.68" y="700.0" name="topright"/>
  <outline>
    <contour>
      <point x="260.28" y="-10.0" type="curve" smooth="yes"/>
      <point x="424.04" y="-10.0"/>
      <point x="514.08" y="58.99999999999999"/>
      <point x="537.28" y="203.36" type="curve" smooth="yes"/>
      <point x="616.44" y="700.0" type="line"/>
      <point x="557.88" y="700.0" type="line"/>
      <point x="478.2" y="201.36" type="line" smooth="yes"/>
      <point x="461.48" y="94.60000000000001"/>
      <point x="392.36" y="40.92"/>
      <point x="269.92" y="40.92" type="curve" smooth="yes"/>
      <point x="153.36" y="40.92"/>
      <point x="94.0" y="95.4"/>
      <point x="109.64" y="192.72000000000003" type="curve" smooth="yes"/>
      <point x="189.44" y="700.0" type="line"/>
      <point x="131.36" y="700.0" type="line"/>
      <point x="51.56" y="194.56" type="line" smooth="yes"/>
      <point x="48.4" y="173.96"/>
      <point x="47.760000000000005" y="164.96000000000004"/>
      <point x="47.760000000000005" y="150.36" type="curve" smooth="yes"/>
      <point x="47.760000000000005" y="46.040000000000006"/>
      <point x="122.64" y="-10.0"/>
    </contour>
  </outline>
</glyph>
<glyph name="V" format="2">
  <advance width="529.6800000000001"/>
  <unicode hex="0056"/>
  <outline>
    <contour>
      <point x="248.08" y="0.0" type="line"/>
      <point x="516.5999999999999" y="479.08"/>
      <point x="565.6" y="584.0"/>
      <point x="571.0" y="669.8" type="curve" smooth="yes"/>
      <point x="571.2" y="680.2800000000001"/>
      <point x="570.6" y="689.6800000000001"/>
      <point x="568.48" y="700.0" type="curve"/>
      <point x="508.08000000000004" y="700.0" type="line"/>
      <point x="509.59999999999997" y="689.5999999999999"/>
      <point x="510.68" y="680.68"/>
      <point x="510.68" y="672.6" type="curve" smooth="yes"/>
      <point x="510.68" y="594.2"/>
      <point x="457.64000000000004" y="492.24"/>
      <point x="225.76" y="61.2" type="curve"/>
      <point x="135.20000000000002" y="703.2800000000001" type="line"/>
      <point x="72.8" y="700.8" type="line"/>
      <point x="179.88000000000002" y="0.0" type="line"/>
    </contour>
  </outline>
</glyph>
<glyph name="W" format="2">
  <advance width="804.6"/>
  <unicode hex="0057"/>
  <anchor x="353.40000000000003" y="0.0" name="bottom"/>
  <anchor x="470.8" y="700.0" name="top"/>
  <outline>
    <contour>
      <point x="571.0" y="-0.6" type="line"/>
      <point x="796.4" y="479.40000000000003"/>
      <point x="845.6" y="605.4"/>
      <point x="846.4" y="674.0" type="curve" smooth="yes"/>
      <point x="846.4" y="683.1999999999999"/>
      <point x="845.8000000000001" y="691.2"/>
      <point x="844.2" y="700.0" type="curve"/>
      <point x="784.6" y="700.0" type="line"/>
      <point x="786.2" y="691.4"/>
      <point x="787.4" y="684.4"/>
      <point x="787.4" y="674.2" type="curve" smooth="yes"/>
      <point x="785.0" y="598.0"/>
      <point x="746.6" y="503.20000000000005"/>
      <point x="547.1999999999999" y="70.6" type="curve"/>
      <point x="494.0" y="642.5999999999999" type="line"/>
      <point x="426.40000000000003" y="642.5999999999999" type="line"/>
      <point x="351.4" y="455.0"/>
      <point x="273.0" y="258.0"/>
      <point x="194.79999999999998" y="76.19999999999999" type="curve"/>
      <point x="135.6" y="700.0" type="line"/>
      <point x="74.0" y="700.0" type="line"/>
      <point x="146.20000000000002" y="-0.6" type="line"/>
      <point x="212.60000000000002" y="-0.6" type="line"/>
      <point x="293.6" y="189.4"/>
      <point x="373.4" y="378.2"/>
      <point x="448.4" y="562.1999999999999" type="curve"/>
      <point x="503.59999999999997" y="-0.6" type="line"/>
    </contour>
  </outline>
</glyph>
<glyph name="X" format="2">
  <advance width="544.2"/>
  <unicode hex="0058"/>
  <outline>
    <contour>
      <point x="440.0" y="-5.3999999999999995" type="line"/>
      <point x="502.79999999999995" y="1.0" type="line"/>
      <point x="317.8" y="356.4" type="line"/>
      <point x="458.79999999999995" y="481.40000000000003"/>
      <point x="548.0" y="579.6"/>
      <point x="569.1999999999999" y="701.2" type="curve"/>
      <point x="505.4" y="703.8" type="line"/>
      <point x="488.0" y="595.2"/>
      <point x="424.0" y="514.8"/>
      <point x="297.0" y="400.40000000000003" type="curve"/>
      <point x="143.79999999999998" y="705.8000000000001" type="line"/>
      <point x="81.4" y="698.8" type="line"/>
      <point x="252.39999999999998" y="367.0" type="line"/>
      <point x="112.0" y="251.0"/>
      <point x="11.999999999999998" y="135.6"/>
      <point x="-0.6000000000000008" y="0.0" type="curve"/>
      <point x="64.4" y="0.0" type="line"/>
      <point x="77.0" y="119.8"/>
      <point x="149.4" y="213.60000000000002"/>
      <point x="275.40000000000003" y="321.4" type="curve"/>
    </contour>
  </outline>
</glyph>
<glyph name="Y" format="2">
  <advance width="501.91999999999996"/>
  <unicode hex="0059"/>
  <anchor x="204.60000000000002" y="0.0" name="bottom"/>
  <anchor x="320.40000000000003" y="700.0" name="top"/>
  <anchor x="86.03999999999999" y="700.0" name="topleft"/>
  <outline>
    <contour>
      <point x="181.88" y="0.0" type="line"/>
      <point x="239.76000000000002" y="0.0" type="line"/>
      <point x="287.76000000000005" y="290.24" type="line"/>
      <point x="438.92" y="438.44"/>
      <point x="507.84000000000003" y="540.3199999999999"/>
      <point x="543.08" y="660.5200000000001" type="curve" smooth="yes"/>
      <point x="546.7600000000001" y="673.6"/>
      <point x="551.6800000000001" y="687.8"/>
      <point x="555.6399999999999" y="701.88" type="curve"/>
      <point x="491.76000000000005" y="705.76" type="line"/>
      <point x="488.2" y="691.84"/>
      <point x="484.68" y="678.8"/>
      <point x="481.28000000000003" y="664.88" type="curve" smooth="yes"/>
      <point x="451.8" y="558.12"/>
      <point x="401.0" y="467.71999999999997"/>
      <point x="265.44" y="338.43999999999994" type="curve"/>
      <point x="133.04" y="704.72" type="line"/>
      <point x="70.16" y="699.2" type="line"/>
      <point x="228.96" y="290.24" type="line"/>
    </contour>
  </outline>
</glyph>
<glyph name="Z" format="2">
  <advance width="508.2"/>
  <unicode hex="005A"/>
  <anchor x="214.2" y="0.0" name="bottom"/>
  <anchor x="263.2" y="350.0" name="center"/>
  <anchor x="319.59999999999997" y="700.0" name="top"/>
  <outline>
    <contour>
      <point x="-20.799999999999997" y="0.0" type="line"/>
      <point x="448.8" y="0.0" type="line"/>
      <point x="457.0" y="50.6" type="line"/>
      <point x="57.400000000000006" y="50.6" type="line"/>
      <point x="530.2" y="653.0" type="line"/>
      <point x="537.4" y="700.0" type="line"/>
      <point x="113.8" y="700.0" type="line"/>
      <point x="105.6" y="649.4" type="line"/>
      <point x="459.40000000000003" y="649.4" type="line"/>
      <point x="-13.0" y="46.199999999999996" type="line"/>
    </contour>
  </outline>
</glyph>
<glyph name="bracketleft" format="2">
  <advance width="293.64000000000004"/>
  <unicode hex="005B"/>
  <outline>
    <contour>
      <point x="65.36" y="-165.2" type="line"/>
      <point x="202.28" y="695.52" type="line"/>
      <point x="345.28000000000003" y="695.52" type="line"/>
      <point x="352.68" y="740.0" type="line"/>
      <point x="161.48" y="740.0" type="line"/>
      <point x="10.319999999999997" y="-210.0" type="line"/>
      <point x="200.83999999999997" y="-210.0" type="line"/>
      <point x="208.36" y="-165.2" type="line"/>
    </contour>
  </outline>
</glyph>
<glyph name="backslash" format="2">
  <advance width="355.48"/>
  <unicode hex="005C"/>
  <outline>
    <contour>
      <point x="129.88" y="740.0" type="line"/>
      <point x="82.92" y="740.0" type="line"/>
      <point x="258.44" y="-210.0" type="line"/>
      <point x="305.28" y="-210.0" type="line"/>
    </contour>
  </outline>
</glyph>
<glyph name="bracketright" format="2">
  <advance width="293.64000000000004"/>
  <unicode hex="005D"/>
  <outline>
    <contour>
      <point x="-53.839999999999996" y="-165.2" type="line"/>
      <point x="-61.160000000000004" y="-210.0" type="line"/>
      <point x="128.56" y="-210.0" type="line"/>
      <point x="280.4" y="740.0" type="line"/>
      <point x="89.68" y="740.0" type="line"/>
      <point x="82.16" y="695.2" type="line"/>
      <point x="225.16000000000003" y="695.2" type="line"/>
      <point x="88.12" y="-165.2" type="line"/>
    </contour>
  </outline>
</glyph>
<glyph name="asciicircum" format="2">
  <advance width="431.84000000000003"/>
  <unicode hex="005E"/>
  <outline>
    <contour>
      <point x="43.12" y="267.44000000000005" type="line"/>
      <point x="89.92" y="267.44000000000005" type="line"/>
      <point x="274.32" y="648.0799999999999" type="line"/>
      <point x="340.52000000000004" y="267.44000000000005" type="line"/>
      <point x="386.56" y="267.44000000000005" type="line"/>
      <point x="308.96" y="708.0" type="line"/>
      <point x="257.56" y="708.0" type="line"/>
    </contour>
  </outline>
</glyph>
<glyph name="underscore" format="2">
  <advance width="734.24"/>
  <unicode hex="005F"/>
  <outline>
    <contour>
      <point x="-58.440000000000005" y="-150.68" type="line"/>
      <point x="657.64" y="-150.68" type="line"/>
      <point x="665.6800000000001" y="-101.72" type="line"/>
      <point x="-50.4" y="-101.72" type="line"/>
    </contour>
  </outline>
</glyph>
<glyph name="a" format="2">
  <advance width="493.9200000000001"/>
  <unicode hex="0061"/>
  <note>
15
</note>
  <anchor x="202.20000000000002" y="0.0" name="bottom"/>
  <anchor x="455.0" y="2.0" name="ogonek"/>
  <anchor x="294.72" y="534.0" name="top"/>
  <outline>
    <contour>
      <point x="402.36" y="-10.0" type="curve" smooth="yes"/>
      <point x="421.40000000000003" y="-10.0"/>
      <point x="441.0" y="-5.68"/>
      <point x="455.24" y="1.28" type="curve"/>
      <point x="454.96000000000004" y="46.0" type="line"/>
      <point x="445.03999999999996" y="42.040000000000006"/>
      <point x="435.7200000000001" y="40.08"/>
      <point x="425.56000000000006" y="40.08" type="curve" smooth="yes"/>
      <point x="403.11999999999995" y="40.08"/>
      <point x="393.36000000000007" y="52.96000000000001"/>
      <point x="393.36000000000007" y="79.20000000000002" type="curve" smooth="yes"/>
      <point x="393.36000000000007" y="86.96"/>
      <point x="408.48" y="181.08"/>
      <point x="461.87999999999994" y="514.4799999999999" type="curve"/>
      <point x="423.28000000000003" y="532.4"/>
      <point x="366.12" y="544.0"/>
      <point x="313.68" y="544.0" type="curve" smooth="yes"/>
      <point x="140.84000000000003" y="544.0"/>
      <point x="28.679999999999996" y="396.36"/>
      <point x="28.679999999999996" y="170.92000000000004" type="curve" smooth="yes"/>
      <point x="28.679999999999996" y="52.56"/>
      <point x="85.6" y="-10.0"/>
      <point x="182.84" y="-10.0" type="curve" smooth="yes"/>
      <point x="239.04000000000002" y="-10.0"/>
      <point x="295.76" y="10.48"/>
      <point x="337.16" y="41.44" type="curve"/>
      <point x="344.59999999999997" y="9.36"/>
      <point x="368.96" y="-10.0"/>
    </contour>
    <contour>
      <point x="334.8" y="82.80000000000001" type="line"/>
      <point x="298.36" y="57.84"/>
      <point x="247.2" y="40.64"/>
      <point x="202.88" y="40.64" type="curve" smooth="yes"/>
      <point x="130.16000000000003" y="40.64"/>
      <point x="87.52000000000001" y="89.52"/>
      <point x="87.52000000000001" y="179.96" type="curve" smooth="yes"/>
      <point x="87.52000000000001" y="366.79999999999995"/>
      <point x="180.28" y="496.76"/>
      <point x="305.4800000000001" y="496.76" type="curve" smooth="yes"/>
      <point x="342.12" y="496.76"/>
      <point x="373.47999999999996" y="490.96"/>
      <point x="397.2" y="478.8" type="curve"/>
    </contour>
  </outline>
</glyph>
<glyph name="b" format="2">
  <advance width="493.08000000000004"/>
  <unicode hex="0062"/>
  <note>
12
</note>
  <outline>
    <contour>
      <point x="200.64000000000001" y="740.0" type="line"/>
      <point x="143.24000000000004" y="740.0" type="line"/>
      <point x="28.28" y="12.84" type="line"/>
      <point x="72.12" y="0.12000000000000055"/>
      <point x="122.52000000000001" y="-10.0"/>
      <point x="181.92000000000002" y="-10.0" type="curve" smooth="yes"/>
      <point x="350.16" y="-10.0"/>
      <point x="464.32000000000005" y="162.88000000000002"/>
      <point x="464.11999999999995" y="367.32" type="curve" smooth="yes"/>
      <point x="464.12" y="482.44000000000005"/>
      <point x="416.6" y="544.0"/>
      <point x="321.12" y="544.0" type="curve" smooth="yes"/>
      <point x="262.15999999999997" y="544.0"/>
      <point x="212.48000000000002" y="520.4399999999999"/>
      <point x="160.0" y="486.28" type="curve"/>
    </contour>
    <contour>
      <point x="297.36" y="492.88000000000005" type="curve" smooth="yes"/>
      <point x="373.72" y="492.88000000000005"/>
      <point x="406.11999999999995" y="437.48"/>
      <point x="406.11999999999995" y="354.32" type="curve" smooth="yes"/>
      <point x="406.11999999999995" y="189.67999999999998"/>
      <point x="312.8" y="36.919999999999995"/>
      <point x="186.0" y="36.919999999999995" type="curve" smooth="yes"/>
      <point x="148.68" y="36.919999999999995"/>
      <point x="115.19999999999999" y="43.88"/>
      <point x="92.0" y="51.080000000000005" type="curve"/>
      <point x="152.99999999999997" y="438.32" type="line"/>
      <point x="204.28" y="474.56"/>
      <point x="252.24000000000004" y="492.88000000000005"/>
    </contour>
  </outline>
</glyph>
<glyph name="c" format="2">
  <advance width="428.59999999999997"/>
  <unicode hex="0063"/>
  <note>
10
</note>
  <anchor x="222.04000000000002" y="0.0" name="bottom"/>
  <anchor x="301.00000000000006" y="534.0" name="top"/>
  <outline>
    <contour>
      <point x="219.48" y="-10.0" type="curve" smooth="yes"/>
      <point x="279.12000000000006" y="-10.0"/>
      <point x="329.32000000000005" y="-0.7599999999999999"/>
      <point x="370.2" y="13.120000000000001" type="curve"/>
      <point x="363.92" y="59.199999999999996" type="line"/>
      <point x="325.47999999999996" y="48.48"/>
      <point x="285.44" y="40.67999999999999"/>
      <point x="234.04" y="40.67999999999999" type="curve" smooth="yes"/>
      <point x="143.8" y="40.67999999999999"/>
      <point x="86.68" y="90.2"/>
      <point x="86.68" y="177.48" type="curve" smooth="yes"/>
      <point x="86.68" y="351.32"/>
      <point x="177.67999999999998" y="492.2"/>
      <point x="300.68" y="492.2" type="curve" smooth="yes"/>
      <point x="341.44" y="492.2"/>
      <point x="379.92" y="487.52000000000004"/>
      <point x="423.32000000000005" y="474.52" type="curve"/>
      <point x="440.08" y="524.6" type="line"/>
      <point x="395.8" y="537.6"/>
      <point x="350.68" y="544.0"/>
      <point x="304.0799999999999" y="544.0" type="curve" smooth="yes"/>
      <point x="138.08" y="544.0"/>
      <point x="29.64" y="386.32"/>
      <point x="29.64" y="168.12000000000003" type="curve" smooth="yes"/>
      <point x="29.64" y="56.199999999999996"/>
      <point x="97.76" y="-10.0"/>
    </contour>
  </outline>
</glyph>
<glyph name="d" format="2">
  <advance width="497.0"/>
  <unicode hex="0064"/>
  <note>
17
</note>
  <anchor x="201.04000000000002" y="0.0" name="bottom"/>
  <anchor x="251.04000000000002" y="320.40000000000003" name="center"/>
  <anchor x="315.4" y="740.0" name="top"/>
  <anchor x="569.8000000000001" y="740.0" name="topright"/>
  <outline>
    <contour>
      <point x="402.36" y="-10.0" type="curve" smooth="yes"/>
      <point x="418.28000000000003" y="-10.0"/>
      <point x="437.64" y="-6.04"/>
      <point x="453.87999999999994" y="1.2800000000000002" type="curve"/>
      <point x="452.47999999999996" y="46.0" type="line"/>
      <point x="443.68" y="42.400000000000006"/>
      <point x="433.64000000000004" y="40.08"/>
      <point x="423.12" y="40.08" type="curve" smooth="yes"/>
      <point x="402.28000000000003" y="40.08"/>
      <point x="391.28" y="52.199999999999996"/>
      <point x="391.28" y="75.44000000000001" type="curve" smooth="yes"/>
      <point x="391.28" y="85.35999999999999"/>
      <point x="446.52" y="428.44"/>
      <point x="495.6" y="740.0" type="curve"/>
      <point x="437.8" y="740.0" type="line"/>
      <point x="404.48" y="528.88" type="line"/>
      <point x="374.56" y="537.1600000000001"/>
      <point x="341.32000000000005" y="544.0"/>
      <point x="297.44" y="544.0" type="curve" smooth="yes"/>
      <point x="141.40000000000003" y="544.0"/>
      <point x="27.56" y="386.31999999999994"/>
      <point x="27.56" y="162.87999999999997" type="curve" smooth="yes"/>
      <point x="27.56" y="47.36"/>
      <point x="87.83999999999999" y="-10.0"/>
      <point x="180.07999999999998" y="-10.0" type="curve" smooth="yes"/>
      <point x="235.0" y="-10.0"/>
      <point x="297.56" y="12.400000000000002"/>
      <point x="334.84" y="39.839999999999996" type="curve"/>
      <point x="342.88" y="7.8"/>
      <point x="366.59999999999997" y="-10.0"/>
    </contour>
    <contour>
      <point x="198.80000000000004" y="41.400000000000006" type="curve" smooth="yes"/>
      <point x="131.23999999999998" y="41.400000000000006"/>
      <point x="86.04000000000002" y="86.04"/>
      <point x="86.04000000000002" y="166.24" type="curve" smooth="yes"/>
      <point x="86.04000000000002" y="344.84"/>
      <point x="176.44000000000003" y="496.76"/>
      <point x="300.68000000000006" y="496.76" type="curve" smooth="yes"/>
      <point x="341.52" y="496.76"/>
      <point x="371.04" y="489.84"/>
      <point x="397.08000000000004" y="483.00000000000006" type="curve"/>
      <point x="333.56" y="80.83999999999999" type="line"/>
      <point x="296.64" y="57.239999999999995"/>
      <point x="246.08" y="41.400000000000006"/>
    </contour>
  </outline>
</glyph>
<glyph name="e" format="2">
  <advance width="463.0"/>
  <unicode hex="0065"/>
  <note>
14 points
</note>
  <anchor x="223.72000000000003" y="0.0" name="bottom"/>
  <anchor x="338.24" y="5.5200000000000005" name="ogonek"/>
  <anchor x="302.56" y="535.12" name="top"/>
  <outline>
    <contour>
      <point x="80.76" y="281.6" type="curve"/>
      <point x="75.92" y="239.84000000000003" type="line"/>
      <point x="120.0" y="237.2"/>
      <point x="173.72" y="239.2"/>
      <point x="226.0" y="247.79999999999998" type="curve" smooth="yes"/>
      <point x="371.0" y="272.52"/>
      <point x="457.4" y="338.23999999999995"/>
      <point x="457.4" y="433.68" type="curve" smooth="yes"/>
      <point x="457.4" y="501.43999999999994"/>
      <point x="401.2" y="544.0"/>
      <point x="311.03999999999996" y="544.0" type="curve" smooth="yes"/>
      <point x="139.8" y="544.0"/>
      <point x="32.24" y="401.67999999999995"/>
      <point x="32.24" y="193.64" type="curve" smooth="yes"/>
      <point x="32.24" y="65.96000000000001"/>
      <point x="102.48" y="-10.0"/>
      <point x="224.52" y="-10.0" type="curve" smooth="yes"/>
      <point x="284.35999999999996" y="-10.0"/>
      <point x="348.8" y="2.84"/>
      <point x="401.40000000000003" y="26.36" type="curve"/>
      <point x="391.40000000000003" y="73.28" type="line"/>
      <point x="334.92" y="50.32000000000001"/>
      <point x="281.35999999999996" y="39.47999999999999"/>
      <point x="233.11999999999998" y="39.47999999999999" type="curve" smooth="yes"/>
      <point x="141.12" y="39.47999999999999"/>
      <point x="88.88" y="97.6"/>
      <point x="88.88" y="198.79999999999998" type="curve" smooth="yes"/>
      <point x="88.88" y="375.68"/>
      <point x="178.32" y="497.32000000000005"/>
      <point x="300.92" y="497.32000000000005" type="curve" smooth="yes"/>
      <point x="365.71999999999997" y="497.32000000000005"/>
      <point x="401.16" y="472.64"/>
      <point x="401.16" y="425.12" type="curve" smooth="yes"/>
      <point x="401.16" y="355.76"/>
      <point x="330.76000000000005" y="309.68"/>
      <point x="215.44" y="290.0" type="curve" smooth="yes"/>
      <point x="169.44" y="282.19999999999993"/>
      <point x="122.08000000000001" y="278.71999999999997"/>
    </contour>
  </outline>
</glyph>
<glyph name="f" format="2">
  <advance width="305.44"/>
  <unicode hex="0066"/>
  <outline>
    <contour>
      <point x="-38.519999999999996" y="-220.0" type="curve" smooth="yes"/>
      <point x="42.68" y="-220.0"/>
      <point x="83.96000000000001" y="-159.32000000000002"/>
      <point x="105.08000000000001" y="-25.439999999999998" type="curve" smooth="yes"/>
      <point x="178.68" y="441.88" type="line"/>
      <point x="333.72" y="441.88" type="line"/>
      <point x="341.32" y="489.4" type="line"/>
      <point x="186.2" y="489.4" type="line"/>
      <point x="209.04000000000002" y="637.04"/>
      <point x="252.32" y="698.1999999999999"/>
      <point x="333.12" y="698.1999999999999" type="curve" smooth="yes"/>
      <point x="370.8" y="698.1999999999999"/>
      <point x="400.0" y="691.2"/>
      <point x="432.92" y="681.4" type="curve"/>
      <point x="448.92" y="728.6" type="line"/>
      <point x="408.4" y="742.92"/>
      <point x="371.76" y="750.0"/>
      <point x="331.92" y="750.0" type="curve" smooth="yes"/>
      <point x="220.07999999999998" y="750.0"/>
      <point x="157.44" y="672.9599999999999"/>
      <point x="128.6" y="489.4" type="curve"/>
      <point x="47.599999999999994" y="482.47999999999996" type="line"/>
      <point x="41.04" y="441.88" type="line"/>
      <point x="121.0" y="441.88" type="line"/>
      <point x="47.839999999999996" y="-23.44" type="line" smooth="yes"/>
      <point x="32.04" y="-122.72"/>
      <point x="8.399999999999997" y="-169.84"/>
      <point x="-48.12" y="-169.84" type="curve" smooth="yes"/>
      <point x="-61.44000000000001" y="-169.84"/>
      <point x="-73.84" y="-167.76"/>
      <point x="-90.08" y="-162.28" type="curve"/>
      <point x="-103.08" y="-209.12000000000003" type="line"/>
      <point x="-82.16" y="-216.71999999999997"/>
      <point x="-61.88" y="-220.0"/>
    </contour>
  </outline>
</glyph>
<glyph name="g" format="2">
  <advance width="490.68"/>
  <unicode hex="0067"/>
  <note>
16
</note>
  <anchor x="155.8" y="-214.4" name="bottom"/>
  <anchor x="293.28000000000003" y="534.0" name="top"/>
  <outline>
    <contour>
      <point x="0.5200000000000012" y="-191.07999999999998" type="line"/>
      <point x="47.720000000000006" y="-209.11999999999998"/>
      <point x="105.12" y="-220.0"/>
      <point x="160.2" y="-220.0" type="curve" smooth="yes"/>
      <point x="284.36" y="-220.0"/>
      <point x="354.52" y="-149.71999999999997"/>
      <point x="376.84000000000003" y="-5.079999999999996" type="curve" smooth="yes"/>
      <point x="460.35999999999996" y="517.08" type="line"/>
      <point x="423.7200000000001" y="532.8"/>
      <point x="365.92" y="544.0"/>
      <point x="316.04" y="544.0" type="curve" smooth="yes"/>
      <point x="124.28" y="544.0"/>
      <point x="27.52" y="368.32"/>
      <point x="27.52" y="165.60000000000002" type="curve" smooth="yes"/>
      <point x="27.52" y="60.04"/>
      <point x="83.08000000000001" y="-5.200000000000001"/>
      <point x="180.0" y="-5.200000000000001" type="curve" smooth="yes"/>
      <point x="223.56" y="-5.200000000000001"/>
      <point x="282.48" y="11.84"/>
      <point x="326.16" y="37.84" type="curve"/>
      <point x="319.76000000000005" y="-5.200000000000001" type="line" smooth="yes"/>
      <point x="302.4" y="-120.84"/>
      <point x="249.08000000000004" y="-170.76000000000002"/>
      <point x="155.56000000000003" y="-170.76000000000002" type="curve" smooth="yes"/>
      <point x="110.16" y="-170.76000000000002"/>
      <point x="58.04" y="-160.44000000000003"/>
      <point x="16.12" y="-144.16" type="curve"/>
    </contour>
    <contour>
      <point x="396.56" y="480.36" type="curve"/>
      <point x="334.04" y="87.2" type="line"/>
      <point x="299.6" y="63.0"/>
      <point x="242.2" y="43.44"/>
      <point x="203.16" y="43.44" type="curve" smooth="yes"/>
      <point x="130.76" y="43.44"/>
      <point x="86.36" y="91.27999999999999"/>
      <point x="86.36" y="181.4" type="curve" smooth="yes"/>
      <point x="86.36" y="344.43999999999994"/>
      <point x="173.48000000000002" y="497.32"/>
      <point x="307.28000000000003" y="497.32" type="curve" smooth="yes"/>
      <point x="347.84" y="497.32"/>
      <point x="373.36" y="488.63999999999993"/>
    </contour>
  </outline>
</glyph>
<glyph name="h" format="2">
  <advance width="505.99999999999994"/>
  <unicode hex="0068"/>
  <note>
16
</note>
  <anchor x="218.48" y="0.0" name="bottom"/>
  <anchor x="270.32" y="372.0" name="center"/>
  <anchor x="328.16" y="740.0" name="top"/>
  <outline>
    <contour>
      <point x="406.47999999999996" y="74.12" type="curve" smooth="yes"/>
      <point x="406.47999999999996" y="109.11999999999999"/>
      <point x="458.2399999999999" y="392.35999999999996"/>
      <point x="458.2399999999999" y="436.20000000000005" type="curve" smooth="yes"/>
      <point x="458.2399999999999" y="501.28000000000003"/>
      <point x="423.0400000000001" y="544.0"/>
      <point x="342.96" y="544.0" type="curve" smooth="yes"/>
      <point x="277.56000000000006" y="544.0"/>
      <point x="221.76" y="520.8000000000001"/>
      <point x="160.92" y="489.4800000000001" type="curve"/>
      <point x="200.88000000000002" y="740.0" type="line"/>
      <point x="143.07999999999998" y="740.0" type="line"/>
      <point x="25.680000000000003" y="0.0" type="line"/>
      <point x="83.47999999999999" y="0.0" type="line"/>
      <point x="153.16" y="442.4" type="line"/>
      <point x="208.36" y="471.47999999999996"/>
      <point x="259.72" y="493.36"/>
      <point x="314.56" y="493.36" type="curve" smooth="yes"/>
      <point x="376.03999999999996" y="493.36"/>
      <point x="397.44000000000005" y="461.92"/>
      <point x="397.44000000000005" y="417.76" type="curve" smooth="yes"/>
      <point x="397.44000000000005" y="371.68"/>
      <point x="346.64000000000004" y="96.6"/>
      <point x="346.64000000000004" y="54.720000000000006" type="curve" smooth="yes"/>
      <point x="346.64000000000004" y="13.08"/>
      <point x="375.91999999999996" y="-10.0"/>
      <point x="415.9200000000001" y="-10.0" type="curve" smooth="yes"/>
      <point x="432.23999999999995" y="-10.0"/>
      <point x="452.08" y="-7.159999999999999"/>
      <point x="468.96" y="0.6400000000000001" type="curve"/>
      <point x="468.56" y="46.760000000000005" type="line"/>
      <point x="457.52000000000004" y="42.56"/>
      <point x="447.48" y="40.68"/>
      <point x="438.68" y="40.68" type="curve" smooth="yes"/>
      <point x="417.35999999999996" y="40.68"/>
      <point x="406.47999999999996" y="52.32"/>
    </contour>
  </outline>
</glyph>
<glyph name="i" format="2">
  <advance width="196.92"/>
  <unicode hex="0069"/>
  <note>
Ajuster pts sur points
8
</note>
  <anchor x="54.15552" y="0.0" name="bottom"/>
  <anchor x="83.28" y="0.0" name="ogonek"/>
  <anchor x="139.08448" y="534.0" name="top"/>
  <outline>
    <contour>
      <point x="26.32" y="0.0" type="line"/>
      <point x="83.28" y="0.0" type="line"/>
      <point x="167.8" y="534.0" type="line"/>
      <point x="110.52000000000001" y="534.0" type="line"/>
    </contour>
    <contour>
      <point x="170.08" y="726.0" type="curve" smooth="yes"/>
      <point x="139.44" y="726.0"/>
      <point x="129.16" y="712.9999999999999"/>
      <point x="127.4" y="678.0" type="curve" smooth="yes"/>
      <point x="126.92" y="660.92"/>
      <point x="137.96" y="654.6800000000001"/>
      <point x="156.88" y="654.6800000000001" type="curve" smooth="yes"/>
      <point x="187.0" y="654.6800000000001"/>
      <point x="198.04" y="666.8000000000001"/>
      <point x="200.12000000000003" y="703.1999999999999" type="curve" smooth="yes"/>
      <point x="200.6" y="719.88"/>
      <point x="190.4" y="726.0"/>
    </contour>
  </outline>
</glyph>
<glyph name="j" format="2">
  <advance width="205.04000000000002"/>
  <unicode hex="006A"/>
  <note>
idem /i
12
</note>
  <outline>
    <contour>
      <point x="178.28" y="726.0" type="curve" smooth="yes"/>
      <point x="147.56" y="726.0"/>
      <point x="138.00000000000003" y="712.9999999999999"/>
      <point x="136.24" y="678.0" type="curve" smooth="yes"/>
      <point x="135.76" y="660.92"/>
      <point x="146.35999999999999" y="654.6800000000001"/>
      <point x="165.27999999999997" y="654.6800000000001" type="curve" smooth="yes"/>
      <point x="194.32" y="654.6800000000001"/>
      <point x="205.60000000000002" y="666.8000000000001"/>
      <point x="207.68" y="703.1999999999999" type="curve" smooth="yes"/>
      <point x="208.16" y="719.88"/>
      <point x="198.6" y="726.0"/>
    </contour>
    <contour>
      <point x="176.2" y="534.0" type="line"/>
      <point x="118.72000000000001" y="534.0" type="line"/>
      <point x="26.76" y="-48.160000000000004" type="line" smooth="yes"/>
      <point x="14.72" y="-124.00000000000001"/>
      <point x="-7.679999999999995" y="-169.84"/>
      <point x="-60.199999999999996" y="-169.84" type="curve" smooth="yes"/>
      <point x="-73.8" y="-169.84"/>
      <point x="-88.44000000000001" y="-168.16"/>
      <point x="-106.64000000000001" y="-161.48" type="curve"/>
      <point x="-119.28" y="-209.67999999999998" type="line"/>
      <point x="-98.91999999999999" y="-217.28"/>
      <point x="-70.84" y="-220.0"/>
      <point x="-53.19999999999999" y="-220.0" type="curve" smooth="yes"/>
      <point x="28.480000000000004" y="-220.0"/>
      <point x="66.24000000000001" y="-161.04"/>
      <point x="83.64" y="-49.959999999999994" type="curve" smooth="yes"/>
    </contour>
  </outline>
</glyph>
<glyph name="k" format="2">
  <advance width="459.6"/>
  <unicode hex="006B"/>
  <anchor x="202.4" y="0.0" name="bottom"/>
  <anchor x="172.8" y="740.0" name="top"/>
  <outline>
    <contour>
      <point x="26.2" y="0.0" type="line"/>
      <point x="84.0" y="0.0" type="line"/>
      <point x="201.39999999999998" y="740.0" type="line"/>
      <point x="143.20000000000002" y="740.0" type="line"/>
    </contour>
    <contour>
      <point x="400.2" y="-10.0" type="curve" smooth="yes"/>
      <point x="409.79999999999995" y="-10.0"/>
      <point x="419.4" y="-8.0"/>
      <point x="428.4" y="-4.6000000000000005" type="curve"/>
      <point x="430.59999999999997" y="47.2" type="line"/>
      <point x="424.2" y="45.6"/>
      <point x="417.8" y="45.0"/>
      <point x="412.40000000000003" y="45.0" type="curve" smooth="yes"/>
      <point x="380.4" y="45.0"/>
      <point x="345.40000000000003" y="76.6"/>
      <point x="263.8" y="190.4" type="curve" smooth="yes"/>
      <point x="132.6" y="369.40000000000003" type="line"/>
      <point x="117.2" y="308.8" type="line"/>
      <point x="244.2" y="129.2" type="line" smooth="yes"/>
      <point x="319.40000000000003" y="23.799999999999997"/>
      <point x="355.8" y="-10.0"/>
    </contour>
    <contour>
      <point x="210.39999999999998" y="251.8" type="line"/>
      <point x="324.8" y="319.2"/>
      <point x="421.8" y="423.8"/>
      <point x="473.0" y="533.5999999999999" type="curve"/>
      <point x="416.2" y="543.4" type="line"/>
      <point x="358.4" y="429.0"/>
      <point x="295.2" y="355.6"/>
      <point x="176.0" y="285.0" type="curve"/>
    </contour>
  </outline>
</glyph>
<glyph name="l" format="2">
  <advance width="230.84000000000003"/>
  <unicode hex="006C"/>
  <anchor x="118.52" y="0.0" name="bottom"/>
  <anchor x="118.68047999999999" y="372.0" name="center"/>
  <anchor x="171.76" y="740.0" name="top"/>
  <anchor x="275.0" y="740.0" name="topright"/>
  <outline>
    <contour>
      <point x="143.16000000000003" y="740.0" type="line"/>
      <point x="43.32" y="110.39999999999999" type="line" smooth="yes"/>
      <point x="41.56" y="98.24000000000001"/>
      <point x="39.36" y="81.67999999999999"/>
      <point x="39.36" y="67.28" type="curve" smooth="yes"/>
      <point x="39.36" y="20.68"/>
      <point x="62.63999999999999" y="-10.0"/>
      <point x="119.44000000000001" y="-10.0" type="curve" smooth="yes"/>
      <point x="147.12000000000003" y="-10.0"/>
      <point x="175.4" y="-4.319999999999999"/>
      <point x="198.44" y="3.8000000000000003" type="curve"/>
      <point x="197.56" y="50.52" type="line"/>
      <point x="177.92000000000002" y="45.04"/>
      <point x="161.6" y="41.76000000000001"/>
      <point x="144.96000000000004" y="41.76000000000001" type="curve" smooth="yes"/>
      <point x="108.60000000000001" y="41.76000000000001"/>
      <point x="98.80000000000001" y="61.96"/>
      <point x="98.80000000000001" y="83.84" type="curve" smooth="yes"/>
      <point x="98.80000000000001" y="99.08"/>
      <point x="101.64" y="114.80000000000001"/>
      <point x="104.48" y="132.12" type="curve" smooth="yes"/>
      <point x="200.84" y="740.0" type="line"/>
    </contour>
  </outline>
</glyph>
<glyph name="m" format="2">
  <advance width="758.48"/>
  <unicode hex="006D"/>
  <note>
24&gt;23 points
un point de trop dans la jointure avec 2e jambage
</note>
  <outline>
    <contour>
      <point x="668.3199999999999" y="-10.0" type="curve" smooth="yes"/>
      <point x="684.48" y="-10.0"/>
      <point x="704.7199999999999" y="-7.359999999999999"/>
      <point x="721.5200000000001" y="0.52" type="curve"/>
      <point x="720.96" y="46.040000000000006" type="line"/>
      <point x="710.2" y="41.84"/>
      <point x="699.8000000000001" y="40.32"/>
      <point x="691.08" y="40.32" type="curve" smooth="yes"/>
      <point x="669.84" y="40.32"/>
      <point x="658.44" y="52.040000000000006"/>
      <point x="658.44" y="74.24000000000001" type="curve" smooth="yes"/>
      <point x="658.44" y="111.52"/>
      <point x="710.76" y="392.96000000000004"/>
      <point x="710.76" y="436.68" type="curve" smooth="yes"/>
      <point x="710.76" y="500.7200000000001"/>
      <point x="675.1600000000001" y="544.0"/>
      <point x="595.2" y="544.0" type="curve" smooth="yes"/>
      <point x="535.5200000000001" y="544.0"/>
      <point x="480.00000000000006" y="520.1199999999999"/>
      <point x="420.92" y="482.0" type="curve"/>
      <point x="407.48" y="519.48"/>
      <point x="374.47999999999996" y="544.0"/>
      <point x="319.04" y="544.0" type="curve" smooth="yes"/>
      <point x="264.4" y="544.0"/>
      <point x="211.48000000000002" y="521.0"/>
      <point x="156.08" y="487.76000000000005" type="curve"/>
      <point x="163.2" y="534.0" type="line"/>
      <point x="109.96" y="534.0" type="line"/>
      <point x="25.680000000000003" y="0.0" type="line"/>
      <point x="83.04" y="0.0" type="line"/>
      <point x="153.28" y="444.32" type="line"/>
      <point x="202.44" y="474.32"/>
      <point x="247.12" y="493.40000000000003"/>
      <point x="291.44" y="493.40000000000003" type="curve" smooth="yes"/>
      <point x="351.32" y="493.40000000000003"/>
      <point x="370.6" y="458.6"/>
      <point x="370.6" y="415.32" type="curve" smooth="yes"/>
      <point x="370.6" y="391.76"/>
      <point x="328.52000000000004" y="136.72"/>
      <point x="308.08000000000004" y="0.0" type="curve"/>
      <point x="365.47999999999996" y="0.0" type="line"/>
      <point x="384.84" y="129.32"/>
      <point x="424.08" y="374.36"/>
      <point x="427.76" y="417.28" type="curve" smooth="yes"/>
      <point x="427.96" y="425.08"/>
      <point x="427.72" y="435.2"/>
      <point x="426.8" y="442.24" type="curve"/>
      <point x="472.79999999999995" y="471.24"/>
      <point x="518.4" y="493.16"/>
      <point x="569.4799999999999" y="493.16" type="curve" smooth="yes"/>
      <point x="628.72" y="493.16"/>
      <point x="649.8800000000001" y="461.72"/>
      <point x="649.8800000000001" y="415.64" type="curve" smooth="yes"/>
      <point x="649.8800000000001" y="369.67999999999995"/>
      <point x="599.44" y="97.6"/>
      <point x="599.44" y="55.040000000000006" type="curve" smooth="yes"/>
      <point x="599.44" y="12.280000000000001"/>
      <point x="628.4799999999999" y="-10.0"/>
    </contour>
  </outline>
</glyph>
<glyph name="n" format="2">
  <advance width="505.04"/>
  <unicode hex="006E"/>
  <note>
16
</note>
  <anchor x="224.04" y="0.0" name="bottom"/>
  <anchor x="287.64000000000004" y="534.0" name="top"/>
  <outline>
    <contour>
      <point x="109.96" y="534.0" type="line"/>
      <point x="25.680000000000003" y="0.0" type="line"/>
      <point x="82.96000000000001" y="0.0" type="line"/>
      <point x="153.07999999999998" y="442.79999999999995" type="line"/>
      <point x="209.08" y="472.35999999999996"/>
      <point x="258.76000000000005" y="493.87999999999994"/>
      <point x="314.12" y="493.87999999999994" type="curve" smooth="yes"/>
      <point x="375.03999999999996" y="493.87999999999994"/>
      <point x="397.40000000000003" y="462.28000000000003"/>
      <point x="397.40000000000003" y="416.03999999999996" type="curve" smooth="yes"/>
      <point x="397.40000000000003" y="369.79999999999995"/>
      <point x="346.88" y="98.39999999999999"/>
      <point x="346.88" y="54.080000000000005" type="curve" smooth="yes"/>
      <point x="346.88" y="13.12"/>
      <point x="375.28000000000003" y="-10.0"/>
      <point x="415.12" y="-10.0" type="curve" smooth="yes"/>
      <point x="431.28" y="-10.0"/>
      <point x="451.28000000000003" y="-7.359999999999999"/>
      <point x="468.08" y="0.52" type="curve"/>
      <point x="467.52" y="46.040000000000006" type="line"/>
      <point x="456.76" y="41.84"/>
      <point x="446.36" y="40.32"/>
      <point x="437.64000000000004" y="40.32" type="curve" smooth="yes"/>
      <point x="416.40000000000003" y="40.32"/>
      <point x="405.64" y="52.0"/>
      <point x="405.64" y="73.84" type="curve" smooth="yes"/>
      <point x="405.64" y="108.96"/>
      <point x="458.08000000000004" y="392.11999999999995"/>
      <point x="458.08000000000004" y="435.96000000000004" type="curve" smooth="yes"/>
      <point x="458.08000000000004" y="502.08000000000004"/>
      <point x="420.28000000000003" y="544.0"/>
      <point x="341.88" y="544.0" type="curve" smooth="yes"/>
      <point x="275.8" y="544.0"/>
      <point x="218.0" y="520.6"/>
      <point x="155.8" y="486.31999999999994" type="curve"/>
      <point x="163.44000000000003" y="534.0" type="line"/>
    </contour>
  </outline>
</glyph>
<glyph name="o" format="2">
  <advance width="487.59999999999997"/>
  <unicode hex="006F"/>
  <note>
8
</note>
  <anchor x="215.4" y="0.0" name="bottom"/>
  <anchor x="249.8" y="270.2" name="center"/>
  <anchor x="278.0" y="2.4000000000000004" name="ogonek"/>
  <anchor x="283.40000000000003" y="534.0" name="top"/>
  <anchor x="375.20000000000005" y="527.2" name="topright"/>
  <outline>
    <contour>
      <point x="212.60000000000002" y="-10.0" type="curve" smooth="yes"/>
      <point x="370.59999999999997" y="-10.0"/>
      <point x="451.0" y="159.59999999999997"/>
      <point x="451.0" y="358.0" type="curve" smooth="yes"/>
      <point x="451.0" y="481.6"/>
      <point x="385.2" y="544.4"/>
      <point x="273.0" y="544.4" type="curve" smooth="yes"/>
      <point x="114.4" y="544.4"/>
      <point x="33.0" y="365.6"/>
      <point x="33.0" y="174.39999999999998" type="curve" smooth="yes"/>
      <point x="33.0" y="50.4"/>
      <point x="95.4" y="-10.0"/>
    </contour>
    <contour>
      <point x="211.4" y="37.2" type="curve" smooth="yes"/>
      <point x="131.0" y="37.2"/>
      <point x="89.6" y="80.0"/>
      <point x="89.6" y="176.4" type="curve" smooth="yes"/>
      <point x="89.6" y="332.0"/>
      <point x="154.79999999999998" y="497.2"/>
      <point x="273.20000000000005" y="497.2" type="curve" smooth="yes"/>
      <point x="349.2" y="497.2"/>
      <point x="393.59999999999997" y="451.4"/>
      <point x="393.59999999999997" y="359.0" type="curve" smooth="yes"/>
      <point x="393.59999999999997" y="193.60000000000002"/>
      <point x="330.8" y="37.2"/>
    </contour>
  </outline>
</glyph>
<glyph name="p" format="2">
  <advance width="493.40000000000003"/>
  <unicode hex="0070"/>
  <note>
14 point
</note>
  <outline>
    <contour>
      <point x="-6.760000000000002" y="-210.0" type="line"/>
      <point x="49.96" y="-210.0" type="line"/>
      <point x="83.92000000000002" y="3.4800000000000004" type="line"/>
      <point x="111.72" y="-3.5599999999999996"/>
      <point x="145.83999999999997" y="-9.799999999999999"/>
      <point x="187.48000000000002" y="-9.799999999999999" type="curve" smooth="yes"/>
      <point x="357.59999999999997" y="-9.799999999999999"/>
      <point x="464.11999999999995" y="162.2"/>
      <point x="464.11999999999995" y="365.96" type="curve" smooth="yes"/>
      <point x="464.11999999999995" y="483.92"/>
      <point x="415.24000000000007" y="544.0"/>
      <point x="321.36" y="544.0" type="curve" smooth="yes"/>
      <point x="258.56" y="544.0"/>
      <point x="209.64000000000001" y="518.76"/>
      <point x="156.99999999999997" y="484.5999999999999" type="curve"/>
      <point x="162.20000000000002" y="538.8" type="line"/>
      <point x="111.0" y="538.8" type="line"/>
    </contour>
    <contour>
      <point x="183.44000000000003" y="36.919999999999995" type="curve" smooth="yes"/>
      <point x="146.12" y="36.919999999999995"/>
      <point x="115.19999999999999" y="43.720000000000006"/>
      <point x="91.52" y="50.92000000000001" type="curve"/>
      <point x="152.67999999999998" y="438.0" type="line"/>
      <point x="201.39999999999998" y="472.4800000000001"/>
      <point x="251.68" y="492.88000000000005"/>
      <point x="297.76" y="492.88000000000005" type="curve" smooth="yes"/>
      <point x="369.0" y="492.88000000000005"/>
      <point x="406.11999999999995" y="446.6"/>
      <point x="406.11999999999995" y="353.03999999999996" type="curve" smooth="yes"/>
      <point x="406.11999999999995" y="188.39999999999998"/>
      <point x="317.59999999999997" y="36.919999999999995"/>
    </contour>
  </outline>
</glyph>
<glyph name="q" format="2">
  <advance width="489.96"/>
  <unicode hex="0071"/>
  <note>
12
</note>
  <outline>
    <contour>
      <point x="460.04" y="521.1600000000001" type="line"/>
      <point x="416.76000000000005" y="532.92"/>
      <point x="363.20000000000005" y="544.0"/>
      <point x="307.0" y="544.0" type="curve" smooth="yes"/>
      <point x="115.35999999999999" y="544.0"/>
      <point x="27.080000000000002" y="333.68"/>
      <point x="27.080000000000002" y="157.56" type="curve" smooth="yes"/>
      <point x="27.080000000000002" y="50.68"/>
      <point x="83.84" y="-10.0"/>
      <point x="174.35999999999999" y="-10.0" type="curve" smooth="yes"/>
      <point x="230.92000000000002" y="-10.0"/>
      <point x="278.59999999999997" y="10.280000000000001"/>
      <point x="327.32" y="45.64000000000001" type="curve"/>
      <point x="285.64000000000004" y="-210.0" type="line"/>
      <point x="343.6" y="-210.0" type="line"/>
    </contour>
    <contour>
      <point x="396.64000000000004" y="482.76" type="curve"/>
      <point x="334.52" y="92.08000000000001" type="line"/>
      <point x="284.76000000000005" y="55.480000000000004"/>
      <point x="239.83999999999997" y="40.52"/>
      <point x="194.64000000000001" y="40.52" type="curve" smooth="yes"/>
      <point x="127.16" y="40.52"/>
      <point x="84.24" y="90.36"/>
      <point x="84.24" y="167.08" type="curve" smooth="yes"/>
      <point x="84.24" y="323.88"/>
      <point x="160.20000000000002" y="496.96"/>
      <point x="300.32" y="496.96" type="curve" smooth="yes"/>
      <point x="337.40000000000003" y="496.96"/>
      <point x="371.6" y="489.48"/>
    </contour>
  </outline>
</glyph>
<glyph name="r" format="2">
  <advance width="350.20000000000005"/>
  <unicode hex="0072"/>
  <anchor x="53.28" y="0.0" name="bottom"/>
  <anchor x="245.0" y="534.0" name="top"/>
  <outline>
    <contour>
      <point x="162.48000000000002" y="534.0" type="line"/>
      <point x="110.12" y="534.0" type="line"/>
      <point x="25.600000000000005" y="0.0" type="line"/>
      <point x="82.36000000000001" y="0.0" type="line"/>
      <point x="148.04000000000002" y="414.16" type="line"/>
      <point x="207.76" y="467.72"/>
      <point x="258.20000000000005" y="488.12"/>
      <point x="304.28" y="488.12" type="curve" smooth="yes"/>
      <point x="326.04" y="488.12"/>
      <point x="350.67999999999995" y="484.32"/>
      <point x="371.52000000000004" y="478.0" type="curve"/>
      <point x="389.20000000000005" y="532.76" type="line"/>
      <point x="370.76" y="539.6400000000001"/>
      <point x="345.2" y="544.0"/>
      <point x="317.76000000000005" y="544.0" type="curve" smooth="yes"/>
      <point x="265.52000000000004" y="544.0"/>
      <point x="213.92" y="520.8399999999999"/>
      <point x="151.64000000000001" y="466.92" type="curve"/>
    </contour>
  </outline>
</glyph>
<glyph name="s" format="2">
  <advance width="425.0"/>
  <unicode hex="0073"/>
  <anchor x="172.2" y="0.0" name="bottom"/>
  <anchor x="262.2" y="534.0" name="top"/>
  <outline>
    <contour>
      <point x="-7.799999999999999" y="21.2" type="line"/>
      <point x="37.0" y="3.3999999999999995"/>
      <point x="95.8" y="-10.0"/>
      <point x="166.20000000000002" y="-10.0" type="curve" smooth="yes"/>
      <point x="304.2" y="-10.0"/>
      <point x="375.8" y="47.400000000000006"/>
      <point x="375.8" y="142.2" type="curve" smooth="yes"/>
      <point x="375.8" y="310.6"/>
      <point x="119.6" y="275.8"/>
      <point x="119.6" y="403.0" type="curve" smooth="yes"/>
      <point x="119.6" y="457.2"/>
      <point x="163.0" y="496.8"/>
      <point x="261.0" y="496.8" type="curve" smooth="yes"/>
      <point x="309.0" y="496.8"/>
      <point x="356.40000000000003" y="485.8"/>
      <point x="394.0" y="472.4" type="curve"/>
      <point x="409.4" y="518.8" type="line"/>
      <point x="373.0" y="533.6"/>
      <point x="318.8" y="544.0"/>
      <point x="267.8" y="544.0" type="curve" smooth="yes"/>
      <point x="128.0" y="544.0"/>
      <point x="64.4" y="482.6"/>
      <point x="64.4" y="398.20000000000005" type="curve" smooth="yes"/>
      <point x="64.4" y="228.60000000000002"/>
      <point x="320.0" y="267.6"/>
      <point x="320.0" y="133.79999999999998" type="curve" smooth="yes"/>
      <point x="320.0" y="77.39999999999999"/>
      <point x="272.4" y="37.2"/>
      <point x="172.0" y="37.2" type="curve" smooth="yes"/>
      <point x="110.6" y="37.2"/>
      <point x="49.199999999999996" y="52.0"/>
      <point x="8.600000000000001" y="69.0" type="curve"/>
    </contour>
  </outline>
</glyph>
<glyph name="t" format="2">
  <advance width="334.44"/>
  <unicode hex="0074"/>
  <anchor x="169.6" y="0.0" name="bottom"/>
  <anchor x="160.36" y="302.84" name="center"/>
  <anchor x="182.4" y="663.68" name="top"/>
  <anchor x="340.04" y="764.6" name="topright"/>
  <outline>
    <contour>
      <point x="288.24" y="59.0" type="line"/>
      <point x="257.12000000000006" y="49.16"/>
      <point x="226.2" y="42.08"/>
      <point x="197.44000000000003" y="42.08" type="curve" smooth="yes"/>
      <point x="142.04000000000002" y="42.08"/>
      <point x="121.92" y="68.76"/>
      <point x="121.92" y="114.28000000000002" type="curve" smooth="yes"/>
      <point x="121.92" y="126.08000000000001"/>
      <point x="123.32" y="138.8"/>
      <point x="125.44000000000001" y="153.16" type="curve" smooth="yes"/>
      <point x="178.56" y="487.12" type="line"/>
      <point x="353.48" y="487.12" type="line"/>
      <point x="361.47999999999996" y="534.0" type="line"/>
      <point x="186.32" y="534.0" type="line"/>
      <point x="206.88" y="663.68" type="line"/>
      <point x="159.76" y="663.68" type="line"/>
      <point x="129.48" y="534.0" type="line"/>
      <point x="40.76" y="526.88" type="line"/>
      <point x="33.6" y="487.24" type="line"/>
      <point x="121.24" y="487.24" type="line"/>
      <point x="67.84000000000002" y="149.92000000000002" type="line" smooth="yes"/>
      <point x="64.44000000000001" y="129.88"/>
      <point x="62.56" y="107.8"/>
      <point x="62.56" y="92.88000000000001" type="curve" smooth="yes"/>
      <point x="62.56" y="21.36"/>
      <point x="101.4" y="-10.0"/>
      <point x="171.16" y="-10.0" type="curve" smooth="yes"/>
      <point x="205.76000000000002" y="-10.0"/>
      <point x="246.56" y="-3.5199999999999996"/>
      <point x="289.6" y="12.040000000000001" type="curve"/>
    </contour>
  </outline>
</glyph>
<glyph name="u" format="2">
  <advance width="496.80000000000007"/>
  <unicode hex="0075"/>
  <note>
15
</note>
  <anchor x="203.24" y="0.0" name="bottom"/>
  <anchor x="454.59999999999997" y="3.88" name="ogonek"/>
  <anchor x="282.18672" y="534.0" name="top"/>
  <anchor x="458.32000000000005" y="534.0" name="topright"/>
  <outline>
    <contour>
      <point x="155.04" y="-10.0" type="curve" smooth="yes"/>
      <point x="219.04" y="-10.0"/>
      <point x="272.32" y="10.600000000000001"/>
      <point x="336.08" y="49.04" type="curve"/>
      <point x="340.84000000000003" y="8.84"/>
      <point x="364.6" y="-10.0"/>
      <point x="400.68" y="-10.0" type="curve" smooth="yes"/>
      <point x="414.92" y="-10.0"/>
      <point x="438.6" y="-4.640000000000001"/>
      <point x="454.59999999999997" y="4.76" type="curve"/>
      <point x="453.71999999999997" y="46.4" type="line"/>
      <point x="442.08" y="41.96000000000001"/>
      <point x="429.92" y="39.56000000000001"/>
      <point x="423.84" y="39.56000000000001" type="curve" smooth="yes"/>
      <point x="401.88" y="39.56000000000001"/>
      <point x="392.08" y="51.52"/>
      <point x="392.08" y="78.04" type="curve" smooth="yes"/>
      <point x="392.08" y="88.72"/>
      <point x="394.04" y="110.00000000000001"/>
      <point x="461.9200000000001" y="534.0" type="curve"/>
      <point x="404.52" y="534.0" type="line"/>
      <point x="335.56" y="89.12" type="line"/>
      <point x="279.8" y="57.32000000000001"/>
      <point x="233.92000000000002" y="39.72"/>
      <point x="179.56" y="39.72" type="curve" smooth="yes"/>
      <point x="127.24" y="39.72"/>
      <point x="100.75999999999999" y="68.4"/>
      <point x="101.0" y="111.2" type="curve" smooth="yes"/>
      <point x="103.16" y="138.56"/>
      <point x="107.2" y="169.36"/>
      <point x="164.84" y="534.0" type="curve"/>
      <point x="107.64" y="534.0" type="line"/>
      <point x="56.8" y="204.64"/>
      <point x="41.76" y="124.24000000000001"/>
      <point x="41.76" y="90.80000000000001" type="curve" smooth="yes"/>
      <point x="41.76" y="29.96"/>
      <point x="80.96000000000001" y="-10.0"/>
    </contour>
  </outline>
</glyph>
<glyph name="v" format="2">
  <advance width="428.36"/>
  <unicode hex="0076"/>
  <outline>
    <contour>
      <point x="201.12" y="-1.5200000000000002" type="line"/>
      <point x="383.56" y="340.52"/>
      <point x="440.64" y="418.0"/>
      <point x="444.88" y="534.0" type="curve"/>
      <point x="386.4" y="534.0" type="line"/>
      <point x="381.36" y="432.23999999999995"/>
      <point x="344.52" y="382.56"/>
      <point x="176.48000000000002" y="53.0" type="curve"/>
      <point x="105.04" y="537.2" type="line"/>
      <point x="45.959999999999994" y="534.76" type="line"/>
      <point x="133.8" y="-1.5200000000000002" type="line"/>
    </contour>
  </outline>
</glyph>
<glyph name="w" format="2">
  <advance width="660.2800000000001"/>
  <unicode hex="0077"/>
  <note>
15
</note>
  <anchor x="298.35999999999996" y="0.0" name="bottom"/>
  <anchor x="359.56" y="534.0" name="top"/>
  <outline>
    <contour>
      <point x="450.44" y="0.0" type="line"/>
      <point x="627.52" y="344.48"/>
      <point x="670.9999999999999" y="429.16"/>
      <point x="675.0400000000001" y="534.0" type="curve"/>
      <point x="621.24" y="534.0" type="line"/>
      <point x="614.64" y="437.08"/>
      <point x="589.12" y="379.00000000000006"/>
      <point x="426.5199999999999" y="56.2" type="curve"/>
      <point x="394.44" y="506.08" type="line"/>
      <point x="330.88" y="506.08" type="line"/>
      <point x="266.36" y="352.8"/>
      <point x="203.04000000000002" y="206.35999999999999"/>
      <point x="137.56" y="56.44" type="curve"/>
      <point x="101.2" y="537.2" type="line"/>
      <point x="45.72" y="534.84" type="line"/>
      <point x="92.8" y="0.0" type="line"/>
      <point x="160.72000000000003" y="0.0" type="line"/>
      <point x="224.43999999999997" y="142.4"/>
      <point x="289.36" y="289.16"/>
      <point x="351.16" y="429.96000000000004" type="curve"/>
      <point x="385.96" y="0.0" type="line"/>
    </contour>
  </outline>
</glyph>
<glyph name="x" format="2">
  <advance width="436.40000000000003"/>
  <unicode hex="0078"/>
  <outline>
    <contour>
      <point x="400.79999999999995" y="534.0" type="line"/>
      <point x="382.6" y="456.4"/>
      <point x="353.2" y="397.6"/>
      <point x="238.6" y="309.6" type="curve"/>
      <point x="135.6" y="540.6000000000001" type="line"/>
      <point x="75.0" y="533.6" type="line"/>
      <point x="195.6" y="282.79999999999995" type="line"/>
      <point x="61.4" y="188.2"/>
      <point x="2.0" y="100.60000000000001"/>
      <point x="-13.8" y="0.0" type="curve"/>
      <point x="44.2" y="0.0" type="line"/>
      <point x="63.400000000000006" y="95.0"/>
      <point x="106.60000000000001" y="156.8"/>
      <point x="216.8" y="238.2" type="curve"/>
      <point x="325.0" y="-4.3999999999999995" type="line"/>
      <point x="384.99999999999994" y="1.4" type="line"/>
      <point x="258.0" y="268.0" type="line"/>
      <point x="395.0" y="365.79999999999995"/>
      <point x="442.40000000000003" y="458.2"/>
      <point x="457.8" y="534.0" type="curve"/>
    </contour>
  </outline>
</glyph>
<glyph name="y" format="2">
  <advance width="434.0"/>
  <unicode hex="0079"/>
  <anchor x="156.0" y="-210.0" name="bottom"/>
  <anchor x="247.2" y="534.0" name="top"/>
  <outline>
    <contour>
      <point x="394.0" y="538.8" type="line"/>
      <point x="375.2" y="391.0"/>
      <point x="286.4" y="204.6"/>
      <point x="196.6" y="44.0" type="curve"/>
      <point x="101.0" y="542.0" type="line"/>
      <point x="41.2" y="538.8" type="line"/>
      <point x="148.6" y="-3.2" type="line"/>
      <point x="166.39999999999998" y="-3.2" type="line"/>
      <point x="122.2" y="-80.2"/>
      <point x="75.60000000000001" y="-150.0"/>
      <point x="33.2" y="-208.4" type="curve"/>
      <point x="91.0" y="-218.0" type="line"/>
      <point x="233.20000000000002" y="-11.999999999999996"/>
      <point x="431.0" y="338.59999999999997"/>
      <point x="451.6" y="537.1999999999999" type="curve"/>
    </contour>
  </outline>
</glyph>
<glyph name="z" format="2">
  <advance width="445.28000000000003"/>
  <unicode hex="007A"/>
  <anchor x="194.23999999999998" y="0.0" name="bottom"/>
  <anchor x="219.48000000000002" y="275.0" name="center"/>
  <anchor x="263.44" y="534.0" name="top"/>
  <outline>
    <contour>
      <point x="-0.8000000000000002" y="0.0" type="line"/>
      <point x="387.04" y="0.0" type="line"/>
      <point x="394.72" y="47.400000000000006" type="line"/>
      <point x="76.32000000000001" y="47.400000000000006" type="line"/>
      <point x="440.76000000000005" y="488.47999999999996" type="line"/>
      <point x="449.08" y="534.0" type="line"/>
      <point x="90.32" y="534.0" type="line"/>
      <point x="82.44000000000001" y="486.36" type="line"/>
      <point x="372.32" y="486.36" type="line"/>
      <point x="5.359999999999999" y="43.60000000000001" type="line"/>
    </contour>
  </outline>
</glyph>
<glyph name="braceleft" format="2">
  <advance width="304.68"/>
  <unicode hex="007B"/>
  <outline>
    <contour>
      <point x="50.599999999999994" y="-107.80000000000001" type="curve" smooth="yes"/>
      <point x="50.599999999999994" y="-169.20000000000002"/>
      <point x="81.03999999999999" y="-210.0"/>
      <point x="149.32000000000002" y="-210.0" type="curve" smooth="yes"/>
      <point x="197.11999999999998" y="-210.0" type="line"/>
      <point x="204.64000000000001" y="-163.6" type="line"/>
      <point x="168.48000000000002" y="-163.6" type="line" smooth="yes"/>
      <point x="119.84" y="-163.6"/>
      <point x="102.76" y="-134.2"/>
      <point x="102.76" y="-94.96" type="curve" smooth="yes"/>
      <point x="102.76" y="5.5600000000000005"/>
      <point x="172.8" y="94.12"/>
      <point x="172.8" y="197.35999999999999" type="curve" smooth="yes"/>
      <point x="172.8" y="227.79999999999998"/>
      <point x="164.44" y="255.16"/>
      <point x="136.44" y="269.0" type="curve"/>
      <point x="189.03999999999996" y="282.15999999999997"/>
      <point x="209.0" y="354.68"/>
      <point x="209.0" y="421.0" type="curve" smooth="yes"/>
      <point x="209.0" y="465.2"/>
      <point x="204.88" y="496.24"/>
      <point x="204.88" y="546.6" type="curve" smooth="yes"/>
      <point x="204.88" y="613.32"/>
      <point x="224.0" y="693.6"/>
      <point x="306.6" y="693.6" type="curve" smooth="yes"/>
      <point x="340.59999999999997" y="693.6" type="line"/>
      <point x="347.88" y="740.0" type="line"/>
      <point x="302.47999999999996" y="740.0" type="line" smooth="yes"/>
      <point x="187.4" y="740.0"/>
      <point x="154.0" y="636.52"/>
      <point x="154.0" y="541.3199999999999" type="curve" smooth="yes"/>
      <point x="154.0" y="493.52000000000004"/>
      <point x="158.4" y="458.24"/>
      <point x="158.4" y="421.23999999999995" type="curve" smooth="yes"/>
      <point x="158.4" y="360.59999999999997"/>
      <point x="145.68" y="293.08000000000004"/>
      <point x="95.24000000000001" y="293.08000000000004" type="curve" smooth="yes"/>
      <point x="80.28" y="293.08000000000004" type="line"/>
      <point x="72.88" y="246.56" type="line"/>
      <point x="87.2" y="246.56" type="line" smooth="yes"/>
      <point x="114.76" y="246.56"/>
      <point x="123.92" y="224.88000000000002"/>
      <point x="123.92" y="198.2" type="curve" smooth="yes"/>
      <point x="123.92" y="91.48"/>
      <point x="50.599999999999994" y="8.0"/>
    </contour>
  </outline>
</glyph>
<glyph name="bar" format="2">
  <advance width="194.48000000000002"/>
  <unicode hex="007C"/>
  <outline>
    <contour>
      <point x="203.4" y="790.12" type="line"/>
      <point x="155.20000000000002" y="790.12" type="line"/>
      <point x="-4.039999999999996" y="-210.0" type="line"/>
      <point x="44.2" y="-210.0" type="line"/>
    </contour>
  </outline>
</glyph>
<glyph name="braceright" format="2">
  <advance width="304.68"/>
  <unicode hex="007D"/>
  <outline>
    <contour>
      <point x="250.76" y="637.8" type="curve" smooth="yes"/>
      <point x="250.76" y="699.32"/>
      <point x="220.2" y="740.12"/>
      <point x="151.92000000000002" y="740.12" type="curve" smooth="yes"/>
      <point x="104.12" y="740.12" type="line"/>
      <point x="96.60000000000001" y="693.72" type="line"/>
      <point x="131.56" y="693.72" type="line" smooth="yes"/>
      <point x="180.32000000000002" y="693.72"/>
      <point x="197.52" y="664.2"/>
      <point x="197.52" y="624.96" type="curve" smooth="yes"/>
      <point x="197.52" y="524.2"/>
      <point x="127.47999999999999" y="442.36"/>
      <point x="127.47999999999999" y="336.59999999999997" type="curve" smooth="yes"/>
      <point x="127.47999999999999" y="306.52"/>
      <point x="135.72" y="279.16"/>
      <point x="163.96" y="265.43999999999994" type="curve"/>
      <point x="111.36" y="252.16000000000003"/>
      <point x="91.28" y="179.88"/>
      <point x="91.28" y="113.44" type="curve" smooth="yes"/>
      <point x="91.28" y="69.24"/>
      <point x="95.4" y="33.879999999999995"/>
      <point x="95.4" y="-16.24" type="curve" smooth="yes"/>
      <point x="95.4" y="-82.96"/>
      <point x="76.4" y="-163.48"/>
      <point x="-6.200000000000001" y="-163.48" type="curve" smooth="yes"/>
      <point x="-39.24" y="-163.48" type="line"/>
      <point x="-46.519999999999996" y="-210.0" type="line"/>
      <point x="-1.2399999999999958" y="-210.0" type="line" smooth="yes"/>
      <point x="113.84" y="-210.0"/>
      <point x="147.24" y="-104.96000000000001"/>
      <point x="147.24" y="-13.6" type="curve" smooth="yes"/>
      <point x="147.24" y="37.44"/>
      <point x="142.84" y="77.52000000000001"/>
      <point x="142.84" y="113.68" type="curve" smooth="yes"/>
      <point x="142.84" y="174.08"/>
      <point x="155.79999999999998" y="241.36"/>
      <point x="206.0" y="241.36" type="curve" smooth="yes"/>
      <point x="220.96" y="241.36" type="line"/>
      <point x="228.36" y="287.76" type="line"/>
      <point x="214.04" y="287.76" type="line" smooth="yes"/>
      <point x="186.48" y="287.76"/>
      <point x="177.32000000000002" y="309.44"/>
      <point x="177.32000000000002" y="336.12" type="curve" smooth="yes"/>
      <point x="177.32000000000002" y="442.96"/>
      <point x="250.76" y="520.3199999999999"/>
    </contour>
  </outline>
</glyph>
<glyph name="asciitilde" format="2">
  <advance width="436.76"/>
  <unicode hex="007E"/>
  <outline>
    <contour>
      <point x="372.12" y="253.40000000000003" type="curve"/>
      <point x="380.6" y="308.28" type="line"/>
      <point x="357.03999999999996" y="284.20000000000005"/>
      <point x="334.48" y="268.44"/>
      <point x="305.71999999999997" y="268.44" type="curve" smooth="yes"/>
      <point x="237.20000000000002" y="268.44"/>
      <point x="214.08" y="373.40000000000003"/>
      <point x="145.8" y="373.40000000000003" type="curve" smooth="yes"/>
      <point x="115.20000000000002" y="373.40000000000003"/>
      <point x="90.16" y="356.72"/>
      <point x="71.88000000000001" y="338.2" type="curve"/>
      <point x="63.0" y="283.0" type="line"/>
      <point x="83.92" y="303.59999999999997"/>
      <point x="106.88" y="321.88000000000005"/>
      <point x="137.4" y="321.88000000000005" type="curve" smooth="yes"/>
      <point x="202.48000000000002" y="321.88000000000005"/>
      <point x="225.28" y="216.92"/>
      <point x="299.24" y="216.92" type="curve" smooth="yes"/>
      <point x="328.32" y="216.92"/>
      <point x="350.72" y="231.08"/>
    </contour>
  </outline>
</glyph>
<glyph name="cent" format="2">
  <advance width="585.28"/>
  <unicode hex="00A2"/>
  <outline>
    <contour>
      <point x="242.56" y="-105.04" type="line"/>
      <point x="289.32" y="-105.04" type="line"/>
      <point x="304.52" y="-8.64" type="line"/>
      <point x="364.32000000000005" y="-5.92"/>
      <point x="414.35999999999996" y="3.6799999999999997"/>
      <point x="443.64" y="12.56" type="curve"/>
      <point x="440.59999999999997" y="61.839999999999996" type="line"/>
      <point x="406.40000000000003" y="53.36000000000001"/>
      <point x="349.96000000000004" y="42.64"/>
      <point x="307.4" y="42.64" type="curve" smooth="yes"/>
      <point x="212.12" y="42.64"/>
      <point x="167.16000000000003" y="91.6"/>
      <point x="167.16000000000003" y="180.4" type="curve" smooth="yes"/>
      <point x="167.16000000000003" y="354.84000000000003"/>
      <point x="251.68" y="489.88"/>
      <point x="379.12000000000006" y="489.88" type="curve" smooth="yes"/>
      <point x="426.52000000000004" y="489.88"/>
      <point x="464.08" y="481.32"/>
      <point x="498.96000000000004" y="471.28000000000003" type="curve"/>
      <point x="515.9200000000001" y="523.64" type="line"/>
      <point x="479.4" y="534.16"/>
      <point x="442.35999999999996" y="541.92"/>
      <point x="394.92" y="542.9200000000001" type="curve"/>
      <point x="410.68000000000006" y="638.88" type="line"/>
      <point x="363.92" y="638.88" type="line"/>
      <point x="347.68" y="539.4" type="line"/>
      <point x="197.96000000000004" y="522.36"/>
      <point x="107.67999999999999" y="365.56000000000006"/>
      <point x="107.67999999999999" y="166.0" type="curve" smooth="yes"/>
      <point x="107.67999999999999" y="48.64"/>
      <point x="170.32" y="1.12"/>
      <point x="257.24" y="-6.359999999999999" type="curve"/>
    </contour>
  </outline>
</glyph>
<glyph name="sterling" format="2">
  <advance width="585.76"/>
  <unicode hex="00A3"/>
  <outline>
    <contour>
      <point x="56.56" y="0.0" type="line"/>
      <point x="473.20000000000005" y="0.0" type="line"/>
      <point x="481.0" y="50.8" type="line"/>
      <point x="134.52" y="50.8" type="line"/>
      <point x="210.32" y="123.88000000000001"/>
      <point x="250.6" y="187.35999999999999"/>
      <point x="250.6" y="282.48" type="curve" smooth="yes"/>
      <point x="250.6" y="343.6"/>
      <point x="220.24" y="399.43999999999994"/>
      <point x="220.24" y="461.52000000000004" type="curve" smooth="yes"/>
      <point x="220.24" y="598.36"/>
      <point x="307.08" y="656.88"/>
      <point x="401.96000000000004" y="656.88" type="curve" smooth="yes"/>
      <point x="451.28" y="656.88"/>
      <point x="498.8" y="650.28"/>
      <point x="550.2400000000001" y="632.44" type="curve"/>
      <point x="568.4800000000001" y="680.6" type="line"/>
      <point x="514.8" y="701.5600000000001"/>
      <point x="455.8" y="710.0"/>
      <point x="405.36" y="710.0" type="curve" smooth="yes"/>
      <point x="272.40000000000003" y="710.0"/>
      <point x="164.4" y="628.84"/>
      <point x="164.4" y="469.91999999999996" type="curve" smooth="yes"/>
      <point x="164.4" y="390.56000000000006"/>
      <point x="195.6" y="347.23999999999995"/>
      <point x="195.6" y="276.63999999999993" type="curve" smooth="yes"/>
      <point x="195.6" y="178.32000000000002"/>
      <point x="139.15999999999997" y="114.32000000000001"/>
      <point x="61.68" y="43.2" type="curve"/>
    </contour>
    <contour>
      <point x="89.6" y="342.56000000000006" type="line"/>
      <point x="460.08000000000004" y="343.03999999999996" type="line"/>
      <point x="467.08000000000004" y="388.76000000000005" type="line"/>
      <point x="96.6" y="388.76000000000005" type="line"/>
    </contour>
  </outline>
</glyph>
<glyph name="currency" format="2">
  <advance width="405.92"/>
  <unicode hex="00A4"/>
  <outline>
    <contour>
      <point x="45.2" y="108.48" type="line"/>
      <point x="121.92" y="181.04" type="line"/>
      <point x="137.68" y="164.64"/>
      <point x="159.48000000000002" y="155.76"/>
      <point x="185.72" y="155.76" type="curve" smooth="yes"/>
      <point x="211.56" y="155.76"/>
      <point x="236.84" y="164.96"/>
      <point x="258.12" y="181.0" type="curve"/>
      <point x="312.56" y="108.48" type="line"/>
      <point x="348.88" y="142.52" type="line"/>
      <point x="296.40000000000003" y="212.44" type="line"/>
      <point x="319.52" y="239.08"/>
      <point x="335.04" y="274.92"/>
      <point x="335.28000000000003" y="314.12" type="curve" smooth="yes"/>
      <point x="335.52" y="335.16"/>
      <point x="330.64000000000004" y="354.56"/>
      <point x="321.64000000000004" y="370.84" type="curve"/>
      <point x="395.91999999999996" y="440.76" type="line"/>
      <point x="370.6" y="474.8" type="line"/>
      <point x="293.64" y="402.64" type="line"/>
      <point x="277.55999999999995" y="419.0"/>
      <point x="255.04" y="428.8"/>
      <point x="229.00000000000003" y="428.8" type="curve" smooth="yes"/>
      <point x="202.64000000000001" y="428.8"/>
      <point x="177.52" y="418.88"/>
      <point x="156.16" y="402.6" type="curve"/>
      <point x="103.16" y="474.8" type="line"/>
      <point x="67.56" y="440.76" type="line"/>
      <point x="118.24" y="371.12000000000006" type="line"/>
      <point x="94.88000000000001" y="344.67999999999995"/>
      <point x="80.28" y="309.52"/>
      <point x="80.03999999999999" y="271.0" type="curve" smooth="yes"/>
      <point x="79.8" y="248.6"/>
      <point x="84.56" y="228.48000000000002"/>
      <point x="93.64" y="211.84" type="curve"/>
      <point x="20.44" y="142.52" type="line"/>
    </contour>
    <contour>
      <point x="192.8" y="195.95999999999998" type="curve" smooth="yes"/>
      <point x="149.48" y="195.95999999999998"/>
      <point x="119.48" y="230.04"/>
      <point x="119.84" y="275.84000000000003" type="curve" smooth="yes"/>
      <point x="120.20000000000002" y="337.0"/>
      <point x="170.64000000000001" y="388.48"/>
      <point x="222.76000000000002" y="388.48" type="curve" smooth="yes"/>
      <point x="266.64" y="388.48"/>
      <point x="296.04" y="354.19999999999993"/>
      <point x="295.68000000000006" y="308.56" type="curve" smooth="yes"/>
      <point x="295.32" y="247.4"/>
      <point x="245.88" y="195.95999999999998"/>
    </contour>
  </outline>
</glyph>
<glyph name="yen" format="2">
  <advance width="586.0"/>
  <unicode hex="00A5"/>
  <outline>
    <contour>
      <point x="116.4" y="345.4" type="line"/>
      <point x="277.0" y="345.4" type="line"/>
      <point x="258.6" y="231.4" type="line"/>
      <point x="99.0" y="231.4" type="line"/>
      <point x="92.2" y="191.60000000000002" type="line"/>
      <point x="252.39999999999998" y="191.60000000000002" type="line"/>
      <point x="222.20000000000002" y="0.0" type="line"/>
      <point x="281.4" y="0.0" type="line"/>
      <point x="312.0" y="191.60000000000002" type="line"/>
      <point x="475.59999999999997" y="191.60000000000002" type="line"/>
      <point x="481.4" y="231.4" type="line"/>
      <point x="317.8" y="231.4" type="line"/>
      <point x="336.2" y="345.4" type="line"/>
      <point x="499.20000000000005" y="345.4" type="line"/>
      <point x="506.0" y="385.0" type="line"/>
      <point x="343.4" y="385.0" type="line"/>
      <point x="575.8" y="697.8" type="line"/>
      <point x="517.8000000000001" y="706.4" type="line"/>
      <point x="319.6" y="426.2" type="line"/>
      <point x="204.4" y="703.2" type="line"/>
      <point x="144.2" y="697.8" type="line"/>
      <point x="283.2" y="385.0" type="line"/>
      <point x="123.6" y="385.0" type="line"/>
    </contour>
  </outline>
</glyph>
<glyph name="brokenbar" format="2">
  <advance width="195.56"/>
  <unicode hex="00A6"/>
  <outline>
    <contour>
      <point x="139.8" y="391.0" type="line"/>
      <point x="204.11999999999998" y="790.12" type="line"/>
      <point x="155.92000000000002" y="790.12" type="line"/>
      <point x="91.60000000000001" y="391.0" type="line"/>
    </contour>
    <contour>
      <point x="60.160000000000004" y="190.11999999999998" type="line"/>
      <point x="-3.5599999999999965" y="-210.0" type="line"/>
      <point x="44.56000000000001" y="-210.0" type="line"/>
      <point x="108.4" y="190.11999999999998" type="line"/>
    </contour>
  </outline>
</glyph>
<glyph name="section" format="2">
  <advance width="467.76000000000005"/>
  <unicode hex="00A7"/>
  <outline>
    <contour>
      <point x="6.32" y="-114.92" type="curve"/>
      <point x="-19.72" y="-166.52" type="line"/>
      <point x="24.04" y="-202.08"/>
      <point x="69.32000000000001" y="-220.0"/>
      <point x="125.79999999999998" y="-220.0" type="curve" smooth="yes"/>
      <point x="276.40000000000003" y="-220.0"/>
      <point x="406.52" y="-74.64"/>
      <point x="406.52" y="128.16" type="curve" smooth="yes"/>
      <point x="406.52" y="302.72"/>
      <point x="293.04" y="424.79999999999995"/>
      <point x="293.04" y="570.0400000000001" type="curve" smooth="yes"/>
      <point x="293.04" y="638.96"/>
      <point x="325.64000000000004" y="689.6800000000001"/>
      <point x="383.24" y="689.6800000000001" type="curve" smooth="yes"/>
      <point x="405.48" y="689.6800000000001"/>
      <point x="423.16" y="683.32"/>
      <point x="442.67999999999995" y="674.8000000000001" type="curve"/>
      <point x="462.8" y="730.36" type="line"/>
      <point x="431.47999999999996" y="742.88"/>
      <point x="389.44" y="749.12"/>
      <point x="351.71999999999997" y="749.12" type="curve" smooth="yes"/>
      <point x="193.11999999999998" y="749.12"/>
      <point x="67.68" y="607.36"/>
      <point x="67.68" y="399.2" type="curve" smooth="yes"/>
      <point x="67.68" y="211.0"/>
      <point x="178.48000000000002" y="76.83999999999999"/>
      <point x="178.48000000000002" y="-49.44" type="curve" smooth="yes"/>
      <point x="178.48000000000002" y="-114.72"/>
      <point x="139.4" y="-158.84"/>
      <point x="93.44" y="-158.84" type="curve" smooth="yes"/>
      <point x="61.160000000000004" y="-158.84"/>
      <point x="29.96" y="-139.4"/>
    </contour>
    <contour>
      <point x="320.64" y="708.24" type="curve"/>
      <point x="271.88" y="681.52"/>
      <point x="249.48000000000002" y="624.36"/>
      <point x="249.48000000000002" y="566.16" type="curve" smooth="yes"/>
      <point x="249.48000000000002" y="404.72"/>
      <point x="360.24" y="281.2"/>
      <point x="360.24" y="113.75999999999999" type="curve" smooth="yes"/>
      <point x="360.24" y="-42.919999999999995"/>
      <point x="262.64000000000004" y="-183.08"/>
      <point x="138.56" y="-184.32000000000002" type="curve"/>
      <point x="194.08" y="-160.4"/>
      <point x="223.16" y="-97.76"/>
      <point x="223.16" y="-37.12" type="curve" smooth="yes"/>
      <point x="223.16" y="100.24000000000001"/>
      <point x="115.44" y="235.8"/>
      <point x="115.44" y="400.4" type="curve" smooth="yes"/>
      <point x="115.44" y="562.68"/>
      <point x="191.88000000000002" y="690.0"/>
    </contour>
  </outline>
</glyph>
<glyph name="copyright" format="2">
  <advance width="652.56"/>
  <unicode hex="00A9"/>
  <outline>
    <contour>
      <point x="302.12000000000006" y="-10.16" type="curve" smooth="yes"/>
      <point x="520.16" y="-10.48"/>
      <point x="615.88" y="188.36"/>
      <point x="615.88" y="425.15999999999997" type="curve" smooth="yes"/>
      <point x="615.88" y="599.52"/>
      <point x="538.12" y="709.48"/>
      <point x="375.31999999999994" y="709.8000000000001" type="curve" smooth="yes"/>
      <point x="158.36" y="710.1199999999999"/>
      <point x="60.56" y="512.88"/>
      <point x="60.56" y="274.64" type="curve" smooth="yes"/>
      <point x="60.56" y="100.76"/>
      <point x="138.0" y="-9.84"/>
    </contour>
    <contour>
      <point x="329.03999999999996" y="165.12" type="curve" smooth="yes"/>
      <point x="363.52" y="165.12"/>
      <point x="397.19999999999993" y="172.23999999999998"/>
      <point x="422.64" y="181.12" type="curve"/>
      <point x="419.52000000000004" y="217.6" type="line"/>
      <point x="396.55999999999995" y="210.20000000000002"/>
      <point x="367.56" y="205.12"/>
      <point x="338.24" y="205.12" type="curve" smooth="yes"/>
      <point x="286.16" y="205.12"/>
      <point x="253.39999999999998" y="238.11999999999998"/>
      <point x="253.39999999999998" y="288.0" type="curve" smooth="yes"/>
      <point x="253.39999999999998" y="393.44000000000005"/>
      <point x="305.84" y="486.52"/>
      <point x="380.0" y="486.52" type="curve" smooth="yes"/>
      <point x="407.4" y="486.52"/>
      <point x="430.15999999999997" y="483.6"/>
      <point x="455.67999999999995" y="475.99999999999994" type="curve"/>
      <point x="467.28" y="516.0400000000001" type="line"/>
      <point x="442.20000000000005" y="524.2"/>
      <point x="413.96" y="528.08"/>
      <point x="381.96000000000004" y="528.08" type="curve" smooth="yes"/>
      <point x="283.8" y="528.08"/>
      <point x="209.88" y="427.24"/>
      <point x="209.88" y="287.56" type="curve" smooth="yes"/>
      <point x="209.88" y="208.64000000000001"/>
      <point x="253.48000000000002" y="165.12"/>
    </contour>
    <contour>
      <point x="305.68" y="20.44" type="curve" smooth="yes"/>
      <point x="160.51999999999998" y="20.44"/>
      <point x="92.84" y="115.08"/>
      <point x="92.84" y="277.72" type="curve" smooth="yes"/>
      <point x="92.84" y="489.8"/>
      <point x="172.0" y="679.3600000000001"/>
      <point x="371.88" y="679.3600000000001" type="curve" smooth="yes"/>
      <point x="515.4399999999999" y="679.3600000000001"/>
      <point x="583.5999999999999" y="584.5600000000001"/>
      <point x="583.5999999999999" y="422.24" type="curve" smooth="yes"/>
      <point x="583.5999999999999" y="210.48000000000005"/>
      <point x="505.23999999999995" y="20.44"/>
    </contour>
  </outline>
</glyph>
<glyph name="ordfeminine" format="2">
  <advance width="344.52000000000004"/>
  <unicode hex="00AA"/>
  <outline>
    <contour>
      <point x="42.56" y="275.48" type="line"/>
      <point x="298.40000000000003" y="275.48" type="line"/>
      <point x="304.04" y="310.04" type="line"/>
      <point x="48.2" y="310.04" type="line"/>
    </contour>
    <component base="a.superior" xOffset="12.16"/>
  </outline>
</glyph>
<glyph name="logicalnot" format="2">
  <advance width="432.6"/>
  <unicode hex="00AC"/>
  <outline>
    <contour>
      <point x="64.68" y="366.28" type="line"/>
      <point x="347.4" y="366.28" type="line"/>
      <point x="317.68" y="175.24" type="line"/>
      <point x="366.24" y="175.24" type="line"/>
      <point x="404.08000000000004" y="415.08" type="line"/>
      <point x="72.80000000000001" y="415.08" type="line"/>
    </contour>
  </outline>
</glyph>
<glyph name="registered" format="2">
  <advance width="574.4"/>
  <unicode hex="00AE"/>
  <outline>
    <contour>
      <point x="284.44" y="209.67999999999998" type="curve" smooth="yes"/>
      <point x="466.8" y="209.67999999999998"/>
      <point x="574.9999999999999" y="405.40000000000003"/>
      <point x="574.9999999999999" y="662.72" type="curve" smooth="yes"/>
      <point x="574.9999999999999" y="807.3199999999999"/>
      <point x="507.3999999999999" y="893.08"/>
      <point x="375.84000000000003" y="893.08" type="curve" smooth="yes"/>
      <point x="193.48" y="893.08"/>
      <point x="87.44" y="696.3599999999999"/>
      <point x="87.44" y="440.04" type="curve" smooth="yes"/>
      <point x="87.44" y="295.6"/>
      <point x="152.72" y="209.67999999999998"/>
    </contour>
    <contour>
      <point x="286.20000000000005" y="237.16" type="curve" smooth="yes"/>
      <point x="171.84" y="237.16"/>
      <point x="117.24" y="314.8"/>
      <point x="117.24" y="440.6" type="curve" smooth="yes"/>
      <point x="117.24" y="679.1200000000001"/>
      <point x="211.00000000000003" y="864.7600000000001"/>
      <point x="374.24" y="864.7600000000001" type="curve" smooth="yes"/>
      <point x="488.59999999999997" y="864.7600000000001"/>
      <point x="545.2" y="787.96"/>
      <point x="545.2" y="661.16" type="curve" smooth="yes"/>
      <point x="545.2" y="422.64"/>
      <point x="449.28" y="237.16"/>
    </contour>
    <contour>
      <point x="210.16" y="393.88" type="line"/>
      <point x="248.92" y="393.88" type="line"/>
      <point x="269.88" y="524.0799999999999" type="line"/>
      <point x="292.12" y="522.48"/>
      <point x="309.72" y="520.72"/>
      <point x="340.12" y="521.6" type="curve"/>
      <point x="359.59999999999997" y="528.04" type="line"/>
      <point x="422.52" y="537.52"/>
      <point x="454.4" y="577.48"/>
      <point x="454.4" y="641.4" type="curve" smooth="yes"/>
      <point x="454.4" y="699.9999999999999"/>
      <point x="422.68" y="721.36"/>
      <point x="350.68" y="721.36" type="curve" smooth="yes"/>
      <point x="320.56" y="721.36"/>
      <point x="296.08" y="720.2399999999999"/>
      <point x="261.68" y="716.0799999999999" type="curve"/>
    </contour>
    <contour>
      <point x="328.56" y="553.0799999999999" type="curve" smooth="yes"/>
      <point x="310.08" y="553.0799999999999"/>
      <point x="295.47999999999996" y="553.96"/>
      <point x="275.15999999999997" y="554.8" type="curve"/>
      <point x="294.72" y="683.9599999999999" type="line"/>
      <point x="318.44" y="686.52"/>
      <point x="326.4" y="687.52"/>
      <point x="349.28000000000003" y="687.52" type="curve" smooth="yes"/>
      <point x="397.03999999999996" y="687.52"/>
      <point x="416.15999999999997" y="673.84"/>
      <point x="416.15999999999997" y="638.6" type="curve" smooth="yes"/>
      <point x="416.15999999999997" y="582.16"/>
      <point x="391.88000000000005" y="553.0799999999999"/>
    </contour>
    <contour>
      <point x="432.72" y="391.20000000000005" type="curve" smooth="yes"/>
      <point x="434.32" y="391.20000000000005"/>
      <point x="439.24" y="391.44"/>
      <point x="443.11999999999995" y="392.8" type="curve"/>
      <point x="448.03999999999996" y="429.68" type="line"/>
      <point x="445.71999999999997" y="428.92"/>
      <point x="443.71999999999997" y="428.92"/>
      <point x="442.43999999999994" y="428.92" type="curve" smooth="yes"/>
      <point x="421.03999999999996" y="428.92"/>
      <point x="394.28" y="464.56"/>
      <point x="370.67999999999995" y="540.68" type="curve"/>
      <point x="331.68" y="531.3199999999999" type="line"/>
      <point x="367.6" y="422.99999999999994"/>
      <point x="398.64000000000004" y="391.20000000000005"/>
    </contour>
  </outline>
</glyph>
<glyph name="degree" format="2">
  <advance width="249.6"/>
  <unicode hex="00B0"/>
  <outline>
    <contour>
      <point x="158.8" y="485.44" type="curve" smooth="yes"/>
      <point x="225.84000000000003" y="485.44"/>
      <point x="273.67999999999995" y="553.7199999999999"/>
      <point x="273.67999999999995" y="631.16" type="curve" smooth="yes"/>
      <point x="273.67999999999995" y="683.24"/>
      <point x="247.4" y="724.24"/>
      <point x="194.92000000000002" y="724.24" type="curve" smooth="yes"/>
      <point x="127.43999999999998" y="724.24"/>
      <point x="80.08" y="653.24"/>
      <point x="80.08" y="576.44" type="curve" smooth="yes"/>
      <point x="80.08" y="525.2400000000001"/>
      <point x="106.32" y="485.44"/>
    </contour>
    <contour>
      <point x="165.00000000000003" y="529.36" type="curve" smooth="yes"/>
      <point x="135.76" y="529.36"/>
      <point x="120.55999999999999" y="552.6399999999999"/>
      <point x="120.55999999999999" y="584.3599999999999" type="curve" smooth="yes"/>
      <point x="120.55999999999999" y="634.8"/>
      <point x="148.95999999999998" y="679.84"/>
      <point x="188.64000000000001" y="679.84" type="curve" smooth="yes"/>
      <point x="218.88" y="679.84"/>
      <point x="233.44000000000003" y="655.36"/>
      <point x="233.44000000000003" y="623.3600000000001" type="curve" smooth="yes"/>
      <point x="233.44000000000003" y="573.5999999999999"/>
      <point x="204.52" y="529.36"/>
    </contour>
  </outline>
</glyph>
<glyph name="plusminus" format="2">
  <advance width="433.72"/>
  <unicode hex="00B1"/>
  <outline>
    <contour>
      <point x="350.35999999999996" y="59.120000000000005" type="line"/>
      <point x="358.48" y="109.6" type="line"/>
      <point x="215.88" y="109.6" type="line"/>
      <point x="244.88" y="292.84" type="line"/>
      <point x="387.0" y="292.84" type="line"/>
      <point x="395.12" y="343.32000000000005" type="line"/>
      <point x="253.0" y="343.32000000000005" type="line"/>
      <point x="282.68" y="519.0" type="line"/>
      <point x="232.20000000000002" y="519.0" type="line"/>
      <point x="202.84" y="343.32000000000005" type="line"/>
      <point x="60.00000000000001" y="343.32000000000005" type="line"/>
      <point x="51.879999999999995" y="292.84" type="line"/>
      <point x="194.4" y="292.84" type="line"/>
      <point x="165.24" y="109.6" type="line"/>
      <point x="23.360000000000003" y="109.6" type="line"/>
      <point x="15.24" y="59.120000000000005" type="line"/>
    </contour>
  </outline>
</glyph>
<glyph name="uni00B2" format="2">
  <advance width="348.0"/>
  <unicode hex="00B2"/>
  <outline>
    <contour>
      <point x="56.8" y="368.36" type="line"/>
      <point x="319.32000000000005" y="368.36" type="line"/>
      <point x="323.56" y="400.96" type="line"/>
      <point x="120.92000000000002" y="400.96" type="line"/>
      <point x="227.56" y="496.23999999999995"/>
      <point x="326.12" y="585.5200000000001"/>
      <point x="326.12" y="688.24" type="curve" smooth="yes"/>
      <point x="326.12" y="743.16"/>
      <point x="290.68" y="772.36"/>
      <point x="233.56" y="772.36" type="curve" smooth="yes"/>
      <point x="194.6" y="772.36"/>
      <point x="150.48" y="758.48"/>
      <point x="117.0" y="736.04" type="curve"/>
      <point x="128.32" y="703.9200000000001" type="line"/>
      <point x="160.12" y="724.56"/>
      <point x="190.32" y="734.36"/>
      <point x="221.0" y="734.36" type="curve" smooth="yes"/>
      <point x="259.96" y="734.36"/>
      <point x="281.28" y="712.72"/>
      <point x="281.28" y="674.36" type="curve" smooth="yes"/>
      <point x="280.40000000000003" y="589.6"/>
      <point x="186.51999999999998" y="501.0"/>
      <point x="59.52" y="395.64000000000004" type="curve"/>
    </contour>
  </outline>
</glyph>
<glyph name="uni00B3" format="2">
  <advance width="341.40000000000003"/>
  <unicode hex="00B3"/>
  <outline>
    <contour>
      <point x="38.8" y="401.0" type="line"/>
      <point x="72.0" y="375.40000000000003"/>
      <point x="118.6" y="364.0"/>
      <point x="162.39999999999998" y="364.0" type="curve" smooth="yes"/>
      <point x="267.0" y="364.0"/>
      <point x="334.8" y="412.2"/>
      <point x="334.8" y="490.19999999999993" type="curve" smooth="yes"/>
      <point x="334.8" y="535.0"/>
      <point x="311.8" y="567.8"/>
      <point x="278.8" y="576.8000000000001" type="curve"/>
      <point x="317.0" y="592.2"/>
      <point x="346.8" y="621.5999999999999"/>
      <point x="346.8" y="673.0" type="curve" smooth="yes"/>
      <point x="346.8" y="730.5999999999999"/>
      <point x="303.20000000000005" y="772.6"/>
      <point x="225.8" y="772.6" type="curve" smooth="yes"/>
      <point x="184.20000000000002" y="772.6"/>
      <point x="145.8" y="765.2"/>
      <point x="110.2" y="749.0" type="curve"/>
      <point x="117.8" y="718.8000000000001" type="line"/>
      <point x="148.8" y="731.5999999999999"/>
      <point x="182.79999999999998" y="737.4"/>
      <point x="216.6" y="737.4" type="curve" smooth="yes"/>
      <point x="271.4" y="737.4"/>
      <point x="304.8" y="710.8000000000001"/>
      <point x="304.8" y="663.4000000000001" type="curve" smooth="yes"/>
      <point x="304.8" y="613.6"/>
      <point x="265.79999999999995" y="591.4"/>
      <point x="217.60000000000002" y="591.4" type="curve" smooth="yes"/>
      <point x="146.8" y="591.4" type="line"/>
      <point x="142.0" y="562.1999999999999" type="line"/>
      <point x="209.4" y="562.1999999999999" type="line" smooth="yes"/>
      <point x="265.6" y="562.1999999999999"/>
      <point x="295.0" y="540.6"/>
      <point x="295.0" y="488.99999999999994" type="curve" smooth="yes"/>
      <point x="295.0" y="432.4"/>
      <point x="245.2" y="398.0"/>
      <point x="160.2" y="398.0" type="curve" smooth="yes"/>
      <point x="120.60000000000001" y="398.0"/>
      <point x="86.6" y="409.0"/>
      <point x="58.0" y="430.2" type="curve"/>
    </contour>
  </outline>
</glyph>
<glyph name="uni00B5" format="2">
  <advance width="499.23999999999995"/>
  <unicode hex="00B5"/>
  <outline>
    <contour>
      <point x="-6.16" y="-210.0" type="line"/>
      <point x="50.40000000000001" y="-210.0" type="line"/>
      <point x="89.2" y="36.08" type="line"/>
      <point x="99.88000000000001" y="6.4"/>
      <point x="127.0" y="-10.0"/>
      <point x="169.28" y="-10.0" type="curve" smooth="yes"/>
      <point x="228.76" y="-10.0"/>
      <point x="279.4" y="9.76"/>
      <point x="339.6" y="47.60000000000001" type="curve"/>
      <point x="344.36" y="8.6"/>
      <point x="367.64" y="-10.0"/>
      <point x="403.12" y="-10.0" type="curve" smooth="yes"/>
      <point x="417.36" y="-10.0"/>
      <point x="441.03999999999996" y="-4.640000000000001"/>
      <point x="457.04" y="4.76" type="curve"/>
      <point x="456.16" y="46.4" type="line"/>
      <point x="444.52000000000004" y="41.96000000000001"/>
      <point x="432.36000000000007" y="39.56000000000001"/>
      <point x="426.28000000000003" y="39.56000000000001" type="curve" smooth="yes"/>
      <point x="404.32" y="39.56000000000001"/>
      <point x="394.52000000000004" y="51.52"/>
      <point x="394.52000000000004" y="78.04" type="curve" smooth="yes"/>
      <point x="394.52000000000004" y="88.72"/>
      <point x="396.48" y="110.00000000000001"/>
      <point x="464.35999999999996" y="534.0" type="curve"/>
      <point x="406.96" y="534.0" type="line"/>
      <point x="338.00000000000006" y="89.12" type="line"/>
      <point x="282.24000000000007" y="57.32000000000001"/>
      <point x="232.52" y="39.72"/>
      <point x="181.04" y="39.72" type="curve" smooth="yes"/>
      <point x="128.72" y="39.72"/>
      <point x="102.72000000000001" y="66.00000000000001"/>
      <point x="102.96000000000001" y="108.80000000000001" type="curve" smooth="yes"/>
      <point x="105.72000000000001" y="138.08"/>
      <point x="119.72" y="234.64"/>
      <point x="167.28" y="534.0" type="curve"/>
      <point x="110.08" y="534.0" type="line"/>
    </contour>
  </outline>
</glyph>
<glyph name="paragraph" format="2">
  <advance width="530.72"/>
  <unicode hex="00B6"/>
  <outline>
    <contour>
      <point x="336.47999999999996" y="-210.0" type="line"/>
      <point x="382.32000000000005" y="-210.0" type="line"/>
      <point x="532.76" y="740.0" type="line"/>
      <point x="486.92" y="740.0" type="line"/>
    </contour>
    <contour>
      <point x="215.0" y="231.08" type="line"/>
      <point x="150.48000000000002" y="242.04"/>
      <point x="109.68" y="298.36"/>
      <point x="109.68" y="383.56" type="curve" smooth="yes"/>
      <point x="109.68" y="543.0799999999999"/>
      <point x="187.07999999999998" y="686.64"/>
      <point x="336.24" y="690.7200000000001" type="curve"/>
      <point x="194.08" y="-210.0" type="line"/>
      <point x="239.92" y="-210.0" type="line"/>
      <point x="390.36" y="740.0" type="line"/>
      <point x="358.76000000000005" y="740.0" type="line" smooth="yes"/>
      <point x="167.39999999999998" y="740.0"/>
      <point x="59.68000000000001" y="581.5200000000001"/>
      <point x="59.68000000000001" y="380.44000000000005" type="curve" smooth="yes"/>
      <point x="59.68000000000001" y="275.56"/>
      <point x="111.67999999999999" y="205.28"/>
      <point x="203.0" y="190.16" type="curve"/>
    </contour>
  </outline>
</glyph>
<glyph name="periodcentered" format="2">
  <advance width="166.00000000000003"/>
  <unicode hex="00B7"/>
  <outline>
    <contour>
      <point x="50.36000000000001" y="285.71999999999997" type="curve" smooth="yes"/>
      <point x="49.00000000000001" y="264.92"/>
      <point x="56.72" y="257.2"/>
      <point x="79.44000000000001" y="257.2" type="curve" smooth="yes"/>
      <point x="109.67999999999999" y="257.2"/>
      <point x="119.08000000000001" y="273.0"/>
      <point x="120.92000000000002" y="303.08" type="curve" smooth="yes"/>
      <point x="122.28" y="323.5199999999999"/>
      <point x="114.52000000000001" y="331.59999999999997"/>
      <point x="92.2" y="331.59999999999997" type="curve" smooth="yes"/>
      <point x="62.760000000000005" y="331.59999999999997"/>
      <point x="52.2" y="315.4"/>
    </contour>
  </outline>
</glyph>
<glyph name="uni00B9" format="2">
  <advance width="332.16"/>
  <unicode hex="00B9"/>
  <outline>
    <contour>
      <point x="44.68" y="370.0" type="line"/>
      <point x="324.84" y="370.0" type="line"/>
      <point x="330.08" y="403.40000000000003" type="line"/>
      <point x="221.16000000000003" y="403.40000000000003" type="line"/>
      <point x="280.4" y="768.6400000000001" type="line"/>
      <point x="256.36" y="768.6400000000001" type="line"/>
      <point x="92.08" y="687.12" type="line"/>
      <point x="98.32" y="652.36" type="line"/>
      <point x="229.72" y="718.04" type="line"/>
      <point x="178.32" y="403.40000000000003" type="line"/>
      <point x="49.839999999999996" y="403.40000000000003" type="line"/>
    </contour>
  </outline>
</glyph>
<glyph name="ordmasculine" format="2">
  <advance width="324.84000000000003"/>
  <unicode hex="00BA"/>
  <outline>
    <contour>
      <point x="39.35999999999999" y="275.48" type="line"/>
      <point x="281.32000000000005" y="275.48" type="line"/>
      <point x="286.48" y="310.04" type="line"/>
      <point x="44.52" y="310.04" type="line"/>
    </contour>
    <component base="o.superior" xOffset="12.8"/>
  </outline>
</glyph>
<glyph name="AE" format="2">
  <advance width="825.6400000000001"/>
  <unicode hex="00C6"/>
  <anchor x="380.06656" y="0.0" name="bottom"/>
  <anchor x="500.23999999999995" y="700.0" name="top"/>
  <outline>
    <contour>
      <point x="342.36" y="0.0" type="line"/>
      <point x="752.7200000000001" y="0.0" type="line"/>
      <point x="760.92" y="52.599999999999994" type="line"/>
      <point x="406.76" y="52.599999999999994" type="line"/>
      <point x="449.68" y="324.32" type="line"/>
      <point x="758.1600000000001" y="324.32" type="line"/>
      <point x="766.7600000000001" y="376.92" type="line"/>
      <point x="458.28" y="376.92" type="line"/>
      <point x="501.0" y="647.4" type="line"/>
      <point x="839.04" y="647.4" type="line"/>
      <point x="848.0" y="700.0" type="line"/>
      <point x="416.12000000000006" y="700.0" type="line"/>
      <point x="-38.72" y="0.0" type="line"/>
      <point x="29.720000000000006" y="0.0" type="line"/>
      <point x="220.44000000000003" y="294.32" type="line"/>
      <point x="388.28000000000003" y="294.32" type="line"/>
    </contour>
    <contour>
      <point x="249.71999999999997" y="343.32000000000005" type="line"/>
      <point x="443.64" y="647.52" type="line"/>
      <point x="396.08" y="343.32000000000005" type="line"/>
    </contour>
  </outline>
</glyph>
<glyph name="multiply" format="2">
  <advance width="412.72"/>
  <unicode hex="00D7"/>
  <outline>
    <contour>
      <point x="60.08" y="87.80000000000001" type="line"/>
      <point x="205.20000000000002" y="258.08" type="line"/>
      <point x="292.64000000000004" y="89.24000000000001" type="line"/>
      <point x="331.44" y="124.64000000000001" type="line"/>
      <point x="242.2" y="296.16" type="line"/>
      <point x="390.96" y="472.23999999999995" type="line"/>
      <point x="360.56" y="507.08" type="line"/>
      <point x="215.84" y="336.48" type="line"/>
      <point x="125.60000000000001" y="507.08000000000004" type="line"/>
      <point x="86.8" y="472.48" type="line"/>
      <point x="178.07999999999998" y="297.96" type="line"/>
      <point x="29.68" y="122.24000000000001" type="line"/>
    </contour>
  </outline>
</glyph>
<glyph name="Oslash" format="2">
  <advance width="641.1999999999999"/>
  <unicode hex="00D8"/>
  <anchor x="375.8" y="700.0" name="top"/>
  <outline>
    <contour>
      <point x="671.4000000000001" y="710.0" type="line"/>
      <point x="615.6" y="710.0" type="line"/>
      <point x="530.2" y="609.6" type="line"/>
      <point x="528.4" y="610.0" type="line"/>
      <point x="113.8" y="128.2" type="line"/>
      <point x="112.0" y="128.6" type="line"/>
      <point x="-4.8" y="-8.0" type="line"/>
      <point x="50.8" y="-8.0" type="line"/>
      <point x="136.2" y="92.0" type="line"/>
      <point x="138.0" y="91.6" type="line"/>
      <point x="554.6" y="575.8" type="line"/>
      <point x="556.4" y="575.4" type="line"/>
    </contour>
    <contour>
      <point x="294.40000000000003" y="-9.2" type="curve" smooth="yes"/>
      <point x="491.79999999999995" y="-9.2"/>
      <point x="610.0" y="163.60000000000002"/>
      <point x="610.0" y="424.99999999999994" type="curve" smooth="yes"/>
      <point x="610.0" y="607.6"/>
      <point x="526.4000000000001" y="709.2"/>
      <point x="372.0" y="709.2" type="curve" smooth="yes"/>
      <point x="174.6" y="709.2"/>
      <point x="56.4" y="536.8"/>
      <point x="56.4" y="274.6" type="curve" smooth="yes"/>
      <point x="56.4" y="92.0"/>
      <point x="140.0" y="-9.2"/>
    </contour>
    <contour>
      <point x="297.8" y="41.599999999999994" type="curve" smooth="yes"/>
      <point x="186.0" y="41.599999999999994"/>
      <point x="116.2" y="120.6"/>
      <point x="116.2" y="270.8" type="curve" smooth="yes"/>
      <point x="116.2" y="509.4"/>
      <point x="213.8" y="658.4000000000001"/>
      <point x="370.20000000000005" y="658.4000000000001" type="curve" smooth="yes"/>
      <point x="480.8" y="658.4000000000001"/>
      <point x="550.2" y="579.4"/>
      <point x="550.2" y="429.19999999999993" type="curve" smooth="yes"/>
      <point x="550.2" y="198.6"/>
      <point x="453.40000000000003" y="41.599999999999994"/>
    </contour>
  </outline>
</glyph>
<glyph name="Thorn" format="2">
  <advance width="565.0"/>
  <unicode hex="00DE"/>
  <outline>
    <contour>
      <point x="29.199999999999996" y="0.0" type="line"/>
      <point x="87.80000000000001" y="0.0" type="line"/>
      <point x="113.8" y="160.8" type="line"/>
      <point x="173.2" y="158.4"/>
      <point x="212.0" y="158.20000000000002"/>
      <point x="267.8" y="158.20000000000002" type="curve" smooth="yes"/>
      <point x="450.0" y="158.20000000000002"/>
      <point x="551.6" y="245.0"/>
      <point x="551.6" y="433.2" type="curve" smooth="yes"/>
      <point x="551.6" y="547.1999999999999"/>
      <point x="484.0" y="617.0"/>
      <point x="319.0" y="617.0" type="curve" smooth="yes"/>
      <point x="291.40000000000003" y="617.0"/>
      <point x="255.0" y="616.0"/>
      <point x="184.4" y="612.0" type="curve"/>
      <point x="198.60000000000002" y="700.0" type="line"/>
      <point x="140.0" y="700.0" type="line"/>
    </contour>
    <contour>
      <point x="264.0" y="207.79999999999998" type="curve" smooth="yes"/>
      <point x="206.0" y="207.79999999999998"/>
      <point x="175.0" y="208.6"/>
      <point x="122.0" y="211.6" type="curve"/>
      <point x="177.0" y="561.2" type="line"/>
      <point x="251.6" y="565.8"/>
      <point x="282.59999999999997" y="566.8"/>
      <point x="314.6" y="566.8" type="curve" smooth="yes"/>
      <point x="441.59999999999997" y="566.8"/>
      <point x="492.4" y="513.2"/>
      <point x="492.4" y="424.0" type="curve" smooth="yes"/>
      <point x="492.4" y="276.40000000000003"/>
      <point x="416.8" y="207.79999999999998"/>
    </contour>
  </outline>
</glyph>
<glyph name="germandbls" format="2">
  <advance width="562.1999999999999"/>
  <unicode hex="00DF"/>
  <outline>
    <contour>
      <point x="41.800000000000004" y="-48.8" type="line" smooth="yes"/>
      <point x="29.4" y="-123.60000000000001"/>
      <point x="7.999999999999999" y="-170.0"/>
      <point x="-43.4" y="-170.0" type="curve" smooth="yes"/>
      <point x="-57.199999999999996" y="-170.0"/>
      <point x="-72.0" y="-168.0"/>
      <point x="-90.39999999999999" y="-161.8" type="curve"/>
      <point x="-103.20000000000002" y="-208.2" type="line"/>
      <point x="-83.2" y="-216.79999999999998"/>
      <point x="-56.400000000000006" y="-220.0"/>
      <point x="-34.400000000000006" y="-220.0" type="curve" smooth="yes"/>
      <point x="42.0" y="-220.0"/>
      <point x="80.8" y="-162.60000000000002"/>
      <point x="97.39999999999999" y="-56.599999999999994" type="curve" smooth="yes"/>
      <point x="188.2" y="516.4000000000001" type="line" smooth="yes"/>
      <point x="208.39999999999998" y="640.1999999999999"/>
      <point x="260.8" y="701.2"/>
      <point x="368.2" y="701.2" type="curve" smooth="yes"/>
      <point x="434.8" y="701.2"/>
      <point x="469.2" y="675.8000000000001"/>
      <point x="469.2" y="630.8" type="curve" smooth="yes"/>
      <point x="469.2" y="586.8"/>
      <point x="444.0" y="561.5999999999999"/>
      <point x="369.4" y="529.4" type="curve" smooth="yes"/>
      <point x="282.4" y="491.8"/>
      <point x="242.79999999999998" y="456.2"/>
      <point x="242.79999999999998" y="382.6" type="curve" smooth="yes"/>
      <point x="242.79999999999998" y="317.6"/>
      <point x="284.2" y="282.20000000000005"/>
      <point x="375.8" y="244.4" type="curve" smooth="yes"/>
      <point x="453.6" y="212.0"/>
      <point x="482.6" y="188.79999999999998"/>
      <point x="482.6" y="140.39999999999998" type="curve" smooth="yes"/>
      <point x="482.6" y="82.0"/>
      <point x="422.2" y="37.4"/>
      <point x="332.6" y="37.4" type="curve" smooth="yes"/>
      <point x="284.2" y="37.4"/>
      <point x="224.6" y="49.6"/>
      <point x="179.6" y="66.8" type="curve"/>
      <point x="163.79999999999998" y="22.0" type="line"/>
      <point x="211.4" y="2.4000000000000004"/>
      <point x="273.8" y="-10.0"/>
      <point x="329.0" y="-10.0" type="curve" smooth="yes"/>
      <point x="462.8" y="-10.0"/>
      <point x="538.6" y="50.6"/>
      <point x="538.6" y="147.2" type="curve" smooth="yes"/>
      <point x="538.6" y="212.0"/>
      <point x="501.40000000000003" y="250.4"/>
      <point x="411.8" y="287.8" type="curve" smooth="yes"/>
      <point x="326.2" y="323.40000000000003"/>
      <point x="297.0" y="345.8"/>
      <point x="297.0" y="389.80000000000007" type="curve" smooth="yes"/>
      <point x="297.0" y="437.0"/>
      <point x="326.4" y="458.6"/>
      <point x="405.8" y="493.79999999999995" type="curve" smooth="yes"/>
      <point x="493.6" y="533.1999999999999"/>
      <point x="523.8000000000001" y="567.2"/>
      <point x="523.8000000000001" y="635.5999999999999" type="curve" smooth="yes"/>
      <point x="523.8000000000001" y="708.4"/>
      <point x="468.4" y="750.0"/>
      <point x="370.19999999999993" y="750.0" type="curve" smooth="yes"/>
      <point x="226.60000000000002" y="750.0"/>
      <point x="158.4" y="678.4000000000001"/>
      <point x="133.0" y="525.0" type="curve" smooth="yes"/>
      <point x="127.79999999999998" y="489.59999999999997" type="line"/>
      <point x="40.6" y="481.40000000000003" type="line"/>
      <point x="32.8" y="440.8" type="line"/>
      <point x="118.8" y="440.8" type="line"/>
    </contour>
  </outline>
</glyph>
<glyph name="ae" format="2">
  <advance width="795.4"/>
  <unicode hex="00E6"/>
  <anchor x="361.4" y="0.0" name="bottom"/>
  <anchor x="435.6" y="534.0" name="top"/>
  <outline>
    <contour>
      <point x="180.6" y="-10.0" type="curve" smooth="yes"/>
      <point x="236.4" y="-10.0"/>
      <point x="289.6" y="10.399999999999999"/>
      <point x="327.8" y="36.6" type="curve"/>
      <point x="320.79999999999995" y="-4.2" type="line"/>
      <point x="373.6" y="-4.2" type="line"/>
      <point x="392.6" y="112.8" type="line"/>
      <point x="409.8" y="36.199999999999996"/>
      <point x="466.4" y="-9.6"/>
      <point x="557.8000000000001" y="-9.6" type="curve" smooth="yes"/>
      <point x="616.0" y="-9.6"/>
      <point x="684.4" y="4.199999999999999"/>
      <point x="733.8" y="26.6" type="curve"/>
      <point x="724.4" y="72.60000000000001" type="line"/>
      <point x="671.8" y="51.8"/>
      <point x="617.4" y="39.2"/>
      <point x="565.0" y="39.2" type="curve" smooth="yes"/>
      <point x="467.6" y="39.2"/>
      <point x="411.79999999999995" y="97.6"/>
      <point x="411.79999999999995" y="194.0" type="curve" smooth="yes"/>
      <point x="411.79999999999995" y="367.4"/>
      <point x="498.59999999999997" y="497.2"/>
      <point x="627.0" y="497.2" type="curve" smooth="yes"/>
      <point x="694.6" y="497.2"/>
      <point x="728.2" y="471.8"/>
      <point x="728.2" y="425.59999999999997" type="curve" smooth="yes"/>
      <point x="728.2" y="359.4"/>
      <point x="659.2" y="311.8"/>
      <point x="544.0" y="290.59999999999997" type="curve" smooth="yes"/>
      <point x="495.8" y="280.8"/>
      <point x="444.79999999999995" y="278.79999999999995"/>
      <point x="400.0" y="281.4" type="curve"/>
      <point x="396.4" y="240.20000000000002" type="line"/>
      <point x="442.2" y="236.2"/>
      <point x="500.6" y="238.20000000000002"/>
      <point x="554.6" y="248.8" type="curve" smooth="yes"/>
      <point x="700.0" y="272.40000000000003"/>
      <point x="785.0" y="340.2"/>
      <point x="785.0" y="433.2" type="curve" smooth="yes"/>
      <point x="785.0" y="502.2"/>
      <point x="733.4" y="544.0"/>
      <point x="644.6" y="544.0" type="curve" smooth="yes"/>
      <point x="556.6" y="544.0"/>
      <point x="481.20000000000005" y="499.79999999999995"/>
      <point x="440.40000000000003" y="419.2" type="curve"/>
      <point x="459.0" y="540.0" type="line"/>
      <point x="406.6" y="540.0" type="line"/>
      <point x="402.59999999999997" y="513.0" type="line"/>
      <point x="371.6" y="533.4"/>
      <point x="332.40000000000003" y="544.0"/>
      <point x="293.0" y="544.0" type="curve" smooth="yes"/>
      <point x="143.0" y="544.0"/>
      <point x="28.400000000000002" y="394.8"/>
      <point x="28.400000000000002" y="168.79999999999998" type="curve" smooth="yes"/>
      <point x="28.400000000000002" y="52.8"/>
      <point x="84.60000000000001" y="-10.0"/>
    </contour>
    <contour>
      <point x="203.0" y="37.2" type="curve" smooth="yes"/>
      <point x="131.8" y="37.2"/>
      <point x="87.39999999999999" y="83.0"/>
      <point x="87.39999999999999" y="176.20000000000002" type="curve" smooth="yes"/>
      <point x="87.39999999999999" y="369.0"/>
      <point x="189.6" y="497.79999999999995"/>
      <point x="299.4" y="497.79999999999995" type="curve" smooth="yes"/>
      <point x="335.2" y="497.79999999999995"/>
      <point x="367.4" y="490.2"/>
      <point x="396.0" y="469.40000000000003" type="curve"/>
      <point x="334.4" y="80.2" type="line"/>
      <point x="297.6" y="54.599999999999994"/>
      <point x="247.4" y="37.2"/>
    </contour>
  </outline>
</glyph>
<glyph name="eth" format="2">
  <advance width="519.8"/>
  <unicode hex="00F0"/>
  <outline>
    <contour>
      <point x="450.8" y="433.0" type="curve"/>
      <point x="459.6" y="477.6" type="line"/>
      <point x="420.20000000000005" y="514.6"/>
      <point x="361.79999999999995" y="533.1999999999999"/>
      <point x="302.4" y="533.1999999999999" type="curve" smooth="yes"/>
      <point x="140.6" y="533.1999999999999"/>
      <point x="35.0" y="379.6"/>
      <point x="35.0" y="184.2" type="curve" smooth="yes"/>
      <point x="35.0" y="54.599999999999994"/>
      <point x="107.2" y="-9.6"/>
      <point x="213.6" y="-9.6" type="curve" smooth="yes"/>
      <point x="354.40000000000003" y="-9.6"/>
      <point x="442.4" y="84.39999999999999"/>
      <point x="480.0" y="299.59999999999997" type="curve" smooth="yes"/>
      <point x="491.40000000000003" y="363.6"/>
      <point x="496.4" y="412.59999999999997"/>
      <point x="496.4" y="460.40000000000003" type="curve" smooth="yes"/>
      <point x="496.4" y="631.0"/>
      <point x="394.0" y="720.0"/>
      <point x="226.60000000000002" y="720.0" type="curve" smooth="yes"/>
      <point x="185.0" y="720.0"/>
      <point x="147.0" y="714.4"/>
      <point x="102.8" y="705.8000000000001" type="curve"/>
      <point x="104.2" y="664.6" type="line"/>
      <point x="148.0" y="672.6"/>
      <point x="175.6" y="677.2"/>
      <point x="219.2" y="677.2" type="curve" smooth="yes"/>
      <point x="364.4" y="677.2"/>
      <point x="438.0" y="604.1999999999999"/>
      <point x="438.0" y="467.59999999999997" type="curve" smooth="yes"/>
      <point x="438.0" y="417.0"/>
      <point x="433.40000000000003" y="366.2"/>
      <point x="422.2" y="307.59999999999997" type="curve" smooth="yes"/>
      <point x="386.0" y="113.0"/>
      <point x="321.6" y="36.0"/>
      <point x="217.4" y="36.0" type="curve" smooth="yes"/>
      <point x="137.0" y="36.0"/>
      <point x="91.6" y="87.0"/>
      <point x="91.6" y="180.4" type="curve" smooth="yes"/>
      <point x="91.6" y="356.40000000000003"/>
      <point x="182.39999999999998" y="489.0"/>
      <point x="309.0" y="489.0" type="curve" smooth="yes"/>
      <point x="363.79999999999995" y="489.0"/>
      <point x="412.40000000000003" y="471.0"/>
    </contour>
    <contour>
      <point x="209.0" y="568.2" type="line"/>
      <point x="388.8" y="651.2" type="line"/>
      <point x="385.4" y="652.4000000000001" type="line"/>
      <point x="544.6" y="726.8" type="line"/>
      <point x="470.59999999999997" y="726.8" type="line"/>
      <point x="354.8" y="673.4" type="line"/>
      <point x="357.6" y="672.2" type="line"/>
      <point x="137.0" y="568.2" type="line"/>
    </contour>
  </outline>
</glyph>
<glyph name="divide" format="2">
  <advance width="433.92"/>
  <unicode hex="00F7"/>
  <outline>
    <contour>
      <point x="157.16" y="94.56" type="curve" smooth="yes"/>
      <point x="156.16" y="79.11999999999999"/>
      <point x="163.48000000000002" y="73.35999999999999"/>
      <point x="183.44" y="73.35999999999999" type="curve" smooth="yes"/>
      <point x="210.32" y="73.35999999999999"/>
      <point x="219.76" y="81.16"/>
      <point x="222.35999999999999" y="114.95999999999998" type="curve" smooth="yes"/>
      <point x="223.35999999999999" y="130.76"/>
      <point x="214.92" y="136.16"/>
      <point x="195.71999999999997" y="136.16" type="curve" smooth="yes"/>
      <point x="169.16" y="136.16"/>
      <point x="159.76" y="126.35999999999999"/>
    </contour>
    <contour>
      <point x="219.0" y="477.84000000000003" type="curve" smooth="yes"/>
      <point x="218.0" y="462.8"/>
      <point x="224.92" y="456.64"/>
      <point x="245.28" y="456.64" type="curve" smooth="yes"/>
      <point x="272.16" y="456.64"/>
      <point x="281.2" y="464.84"/>
      <point x="283.8" y="498.23999999999995" type="curve" smooth="yes"/>
      <point x="284.8" y="514.44"/>
      <point x="276.76" y="519.8399999999999"/>
      <point x="257.16" y="519.8399999999999" type="curve" smooth="yes"/>
      <point x="230.2" y="519.8399999999999"/>
      <point x="221.6" y="509.23999999999995"/>
    </contour>
    <contour>
      <point x="48.56" y="270.59999999999997" type="line"/>
      <point x="383.92" y="270.59999999999997" type="line"/>
      <point x="392.76" y="322.59999999999997" type="line"/>
      <point x="57.0" y="322.59999999999997" type="line"/>
    </contour>
  </outline>
</glyph>
<glyph name="oslash" format="2">
  <advance width="487.59999999999997"/>
  <unicode hex="00F8"/>
  <anchor x="281.4" y="534.0" name="top"/>
  <outline>
    <contour>
      <point x="448.4" y="544.4" type="line"/>
      <point x="393.40000000000003" y="475.79999999999995" type="line"/>
      <point x="391.6" y="476.6" type="line"/>
      <point x="81.2" y="91.4" type="line"/>
      <point x="79.0" y="92.6" type="line"/>
      <point x="-3.8" y="-10.0" type="line"/>
      <point x="44.4" y="-10.0" type="line"/>
      <point x="103.8" y="63.800000000000004" type="line"/>
      <point x="106.0" y="63.0" type="line"/>
      <point x="413.6" y="445.0" type="line"/>
      <point x="415.40000000000003" y="443.8" type="line"/>
      <point x="496.6" y="544.4" type="line"/>
    </contour>
    <contour>
      <point x="217.0" y="-10.0" type="curve" smooth="yes"/>
      <point x="375.0" y="-10.0"/>
      <point x="455.4" y="159.59999999999997"/>
      <point x="455.4" y="358.0" type="curve" smooth="yes"/>
      <point x="455.4" y="481.6"/>
      <point x="389.59999999999997" y="544.4"/>
      <point x="277.4" y="544.4" type="curve" smooth="yes"/>
      <point x="118.80000000000001" y="544.4"/>
      <point x="37.400000000000006" y="365.6"/>
      <point x="37.400000000000006" y="174.39999999999998" type="curve" smooth="yes"/>
      <point x="37.400000000000006" y="50.4"/>
      <point x="99.8" y="-10.0"/>
    </contour>
    <contour>
      <point x="217.0" y="37.199999999999996" type="curve" smooth="yes"/>
      <point x="137.0" y="36.8"/>
      <point x="94.4" y="78.4"/>
      <point x="94.0" y="172.79999999999998" type="curve" smooth="yes"/>
      <point x="93.2" y="328.0"/>
      <point x="157.60000000000002" y="496.40000000000003"/>
      <point x="276.4" y="497.20000000000005" type="curve" smooth="yes"/>
      <point x="353.2" y="497.6"/>
      <point x="397.6" y="451.79999999999995"/>
      <point x="398.0" y="359.0" type="curve" smooth="yes"/>
      <point x="398.8" y="194.00000000000003"/>
      <point x="335.59999999999997" y="38.0"/>
    </contour>
  </outline>
</glyph>
<glyph name="thorn" format="2">
  <advance width="493.40000000000003"/>
  <unicode hex="00FE"/>
  <outline>
    <contour>
      <point x="-6.760000000000002" y="-210.0" type="line"/>
      <point x="49.96000000000001" y="-210.0" type="line"/>
      <point x="83.92000000000002" y="3.4800000000000004" type="line"/>
      <point x="111.72000000000001" y="-3.5599999999999996"/>
      <point x="145.84" y="-9.799999999999999"/>
      <point x="187.48" y="-9.799999999999999" type="curve" smooth="yes"/>
      <point x="357.6" y="-9.799999999999999"/>
      <point x="464.12" y="162.2"/>
      <point x="464.12" y="365.96" type="curve" smooth="yes"/>
      <point x="464.12" y="483.92"/>
      <point x="415.24" y="544.0"/>
      <point x="323.35999999999996" y="544.0" type="curve" smooth="yes"/>
      <point x="259.56" y="544.0"/>
      <point x="210.84" y="518.5600000000001"/>
      <point x="159.6" y="484.5999999999999" type="curve"/>
      <point x="200.24" y="740.0" type="line"/>
      <point x="143.24000000000004" y="740.0" type="line"/>
    </contour>
    <contour>
      <point x="183.44000000000003" y="37.519999999999996" type="curve" smooth="yes"/>
      <point x="146.12" y="37.519999999999996"/>
      <point x="115.19999999999999" y="44.32000000000001"/>
      <point x="91.52" y="51.52" type="curve"/>
      <point x="152.67999999999998" y="437.40000000000003" type="line"/>
      <point x="201.39999999999998" y="471.88000000000005"/>
      <point x="251.68" y="492.28000000000003"/>
      <point x="297.76" y="492.28000000000003" type="curve" smooth="yes"/>
      <point x="369.0" y="492.28000000000003"/>
      <point x="406.12" y="446.0"/>
      <point x="406.12" y="352.44000000000005" type="curve" smooth="yes"/>
      <point x="406.12" y="187.79999999999998"/>
      <point x="317.59999999999997" y="37.519999999999996"/>
    </contour>
  </outline>
</glyph>
<glyph name="Dcroat" format="2">
  <advance width="622.6800000000001"/>
  <unicode hex="0110"/>
  <outline>
    <contour>
      <point x="20.319999999999997" y="335.16" type="line"/>
      <point x="282.6000000000001" y="335.16" type="line"/>
      <point x="291.2" y="383.6" type="line"/>
      <point x="29.4" y="383.6" type="line"/>
    </contour>
    <component base="D" xOffset="5.72"/>
  </outline>
</glyph>
<glyph name="dcroat" format="2">
  <advance width="499.08"/>
  <unicode hex="0111"/>
  <outline>
    <contour>
      <point x="272.68" y="615.08" type="line"/>
      <point x="556.4" y="615.08" type="line"/>
      <point x="562.6" y="649.9999999999999" type="line"/>
      <point x="278.88000000000005" y="649.9999999999999" type="line"/>
    </contour>
    <component base="d"/>
  </outline>
</glyph>
<glyph name="Hbar" format="2">
  <advance width="635.24"/>
  <unicode hex="0126"/>
  <outline>
    <contour>
      <point x="52.440000000000005" y="500.15999999999997" type="line"/>
      <point x="654.72" y="500.15999999999997" type="line"/>
      <point x="661.6800000000001" y="545.08" type="line"/>
      <point x="59.4" y="545.08" type="line"/>
    </contour>
    <component base="H" xOffset="1.48"/>
  </outline>
</glyph>
<glyph name="hbar" format="2">
  <advance width="506.3999999999999"/>
  <unicode hex="0127"/>
  <outline>
    <contour>
      <point x="51.96" y="615.08" type="line"/>
      <point x="324.03999999999996" y="615.08" type="line"/>
      <point x="329.84000000000003" y="649.9999999999999" type="line"/>
      <point x="57.76" y="649.9999999999999" type="line"/>
    </contour>
    <component base="h" xOffset="0.4000000000000001"/>
  </outline>
</glyph>
<glyph name="Idotaccent" format="2">
  <advance width="206.16"/>
  <unicode hex="0130"/>
  <outline>
    <contour>
      <point x="198.07999999999998" y="870.4" type="curve" smooth="yes"/>
      <point x="167.44" y="870.4"/>
      <point x="157.16" y="857.4"/>
      <point x="155.4" y="822.4" type="curve" smooth="yes"/>
      <point x="154.92000000000002" y="805.32"/>
      <point x="165.96" y="799.0799999999999"/>
      <point x="184.88000000000002" y="799.0799999999999" type="curve" smooth="yes"/>
      <point x="215.00000000000003" y="799.0799999999999"/>
      <point x="226.04000000000002" y="811.2"/>
      <point x="228.12" y="847.5999999999999" type="curve" smooth="yes"/>
      <point x="228.6" y="864.28"/>
      <point x="218.4" y="870.4"/>
    </contour>
    <component base="I"/>
  </outline>
</glyph>
<glyph name="dotlessi" format="2">
  <advance width="195.95999999999998"/>
  <unicode hex="0131"/>
  <anchor x="53.67552" y="0.0" name="bottom"/>
  <anchor x="82.8" y="0.0" name="ogonek"/>
  <anchor x="138.60448000000002" y="534.0" name="top"/>
  <outline>
    <contour>
      <point x="82.8" y="0.0" type="line"/>
      <point x="167.32000000000002" y="534.0" type="line"/>
      <point x="110.04" y="534.0" type="line"/>
      <point x="25.84" y="0.08000000000000002" type="line"/>
    </contour>
  </outline>
</glyph>
<glyph name="Ldot" format="2">
  <advance width="462.32"/>
  <unicode hex="013F"/>
  <outline>
    <contour>
      <point x="320.51976" y="366.75544" type="curve" smooth="yes"/>
      <point x="319.23976000000005" y="348.11624"/>
      <point x="326.19944" y="341.55668000000003"/>
      <point x="346.51860000000005" y="341.55668000000003" type="curve" smooth="yes"/>
      <point x="372.91732" y="341.55668000000003"/>
      <point x="381.15696" y="353.23508000000004"/>
      <point x="383.07696" y="380.67408" type="curve" smooth="yes"/>
      <point x="384.35696" y="398.83332"/>
      <point x="377.87728000000004" y="405.87288"/>
      <point x="357.71804" y="405.87288" type="curve" smooth="yes"/>
      <point x="331.47936" y="405.87288"/>
      <point x="322.43976000000004" y="393.87444"/>
    </contour>
    <component base="L"/>
  </outline>
</glyph>
<glyph name="ldot" format="2">
  <advance width="268.84000000000003"/>
  <unicode hex="0140"/>
  <outline>
    <contour>
      <point x="222.8506" y="358.46299999999997" type="curve" smooth="yes"/>
      <point x="221.5706" y="341.45656"/>
      <point x="227.02012" y="335.82856000000004"/>
      <point x="244.13568" y="335.82856000000004" type="curve" smooth="yes"/>
      <point x="266.92804" y="335.82856000000004"/>
      <point x="272.76460000000003" y="346.34528"/>
      <point x="274.6846" y="371.38792" type="curve" smooth="yes"/>
      <point x="275.96459999999996" y="387.86496"/>
      <point x="270.99508" y="393.97296"/>
      <point x="254.0036" y="393.97296" type="curve" smooth="yes"/>
      <point x="231.33512" y="393.97296"/>
      <point x="224.7706" y="383.28908"/>
    </contour>
    <component base="l"/>
  </outline>
</glyph>
<glyph name="Lslash" format="2">
  <advance width="467.12"/>
  <unicode hex="0141"/>
  <outline>
    <contour>
      <point x="33.2" y="0.0" type="line"/>
      <point x="410.72" y="0.0" type="line"/>
      <point x="419.32000000000005" y="52.16" type="line"/>
      <point x="100.16000000000001" y="52.16" type="line"/>
      <point x="135.32" y="273.92" type="line"/>
      <point x="349.84" y="409.04" type="line"/>
      <point x="359.47999999999996" y="467.2" type="line"/>
      <point x="144.72" y="331.96000000000004" type="line"/>
      <point x="203.16" y="700.0" type="line"/>
      <point x="144.64000000000001" y="700.0" type="line"/>
      <point x="80.72000000000001" y="297.56" type="line"/>
      <point x="18.360000000000003" y="256.76" type="line"/>
      <point x="8.760000000000002" y="198.51999999999998" type="line"/>
      <point x="70.83999999999999" y="239.24" type="line"/>
    </contour>
  </outline>
</glyph>
<glyph name="lslash" format="2">
  <advance width="235.8"/>
  <unicode hex="0142"/>
  <outline>
    <contour>
      <point x="4.640000000000001" y="182.32" type="line"/>
      <point x="232.8" y="382.28" type="line"/>
      <point x="241.28" y="437.56" type="line"/>
      <point x="12.92" y="237.60000000000002" type="line"/>
    </contour>
    <component base="l" xOffset="2.3999999999999995"/>
  </outline>
</glyph>
<glyph name="Eng" format="2">
  <advance width="626.2"/>
  <unicode hex="014A"/>
  <outline>
    <contour>
      <point x="28.999999999999996" y="0.0" type="line"/>
      <point x="87.0" y="0.0" type="line"/>
      <point x="179.6" y="588.5999999999999" type="line"/>
      <point x="454.79999999999995" y="-1.0000000000000002" type="line"/>
      <point x="436.79999999999995" y="-92.6"/>
      <point x="379.0" y="-120.8"/>
      <point x="308.20000000000005" y="-120.8" type="curve" smooth="yes"/>
      <point x="280.2" y="-121.6"/>
      <point x="250.8" y="-118.0"/>
      <point x="220.6" y="-110.99999999999999" type="curve"/>
      <point x="209.6" y="-164.59999999999997" type="line"/>
      <point x="240.59999999999997" y="-171.99999999999997"/>
      <point x="274.8" y="-176.2"/>
      <point x="304.2" y="-176.2" type="curve" smooth="yes"/>
      <point x="424.2" y="-176.2"/>
      <point x="490.40000000000003" y="-114.80000000000001"/>
      <point x="510.19999999999993" y="8.8" type="curve" smooth="yes"/>
      <point x="620.8" y="700.0" type="line"/>
      <point x="563.4000000000001" y="700.0" type="line"/>
      <point x="470.0" y="104.0" type="line"/>
      <point x="196.00000000000003" y="703.2" type="line"/>
      <point x="140.4" y="703.2" type="line"/>
    </contour>
  </outline>
</glyph>
<glyph name="eng" format="2">
  <advance width="502.56"/>
  <unicode hex="014B"/>
  <outline>
    <contour>
      <point x="380.36" y="-50.44" type="curve" smooth="yes"/>
      <point x="421.68" y="214.99999999999997"/>
      <point x="457.76000000000005" y="426.6"/>
      <point x="457.76000000000005" y="443.48" type="curve" smooth="yes"/>
      <point x="457.76000000000005" y="504.79999999999995"/>
      <point x="418.68" y="544.0"/>
      <point x="342.28" y="544.0" type="curve" smooth="yes"/>
      <point x="276.2" y="544.0"/>
      <point x="220.32" y="520.84"/>
      <point x="155.08" y="486.31999999999994" type="curve"/>
      <point x="162.72000000000003" y="534.0" type="line"/>
      <point x="109.96" y="534.0" type="line"/>
      <point x="25.680000000000003" y="0.0" type="line"/>
      <point x="82.08" y="0.0" type="line"/>
      <point x="152.84" y="443.2" type="line"/>
      <point x="209.8" y="472.84"/>
      <point x="258.84" y="493.96"/>
      <point x="314.12" y="493.96" type="curve" smooth="yes"/>
      <point x="372.72" y="493.96"/>
      <point x="398.12" y="467.08000000000004"/>
      <point x="397.48" y="420.28" type="curve" smooth="yes"/>
      <point x="396.52" y="399.96"/>
      <point x="372.92" y="259.64"/>
      <point x="324.68" y="-46.6" type="curve" smooth="yes"/>
      <point x="312.64" y="-122.16"/>
      <point x="289.44" y="-168.04000000000002"/>
      <point x="236.24000000000004" y="-168.04000000000002" type="curve" smooth="yes"/>
      <point x="226.12" y="-168.04000000000002"/>
      <point x="214.84000000000003" y="-166.92"/>
      <point x="200.96" y="-162.2" type="curve"/>
      <point x="188.72000000000003" y="-215.07999999999998" type="line"/>
      <point x="203.64" y="-219.88"/>
      <point x="228.24" y="-221.92000000000002"/>
      <point x="244.76000000000005" y="-221.92000000000002" type="curve" smooth="yes"/>
      <point x="320.59999999999997" y="-221.92000000000002"/>
      <point x="362.88000000000005" y="-166.4"/>
    </contour>
  </outline>
</glyph>
<glyph name="OE" format="2">
  <advance width="925.4"/>
  <unicode hex="0152"/>
  <outline>
    <contour>
      <point x="852.4799999999999" y="0.0" type="line"/>
      <point x="861.08" y="52.599999999999994" type="line"/>
      <point x="506.76000000000005" y="52.599999999999994" type="line"/>
      <point x="551.6800000000002" y="339.6" type="line"/>
      <point x="868.6800000000002" y="339.6" type="line"/>
      <point x="877.6799999999998" y="392.2" type="line"/>
      <point x="560.28" y="392.2" type="line"/>
      <point x="601.0000000000001" y="647.4" type="line"/>
      <point x="938.8" y="647.4" type="line"/>
      <point x="947.76" y="700.0" type="line"/>
      <point x="606.6000000000001" y="700.0" type="line"/>
      <point x="544.7599999999999" y="704.3600000000001"/>
      <point x="475.96" y="710.0"/>
      <point x="413.5200000000001" y="710.0" type="curve" smooth="yes"/>
      <point x="195.44" y="710.0"/>
      <point x="48.31999999999999" y="526.9200000000001"/>
      <point x="48.31999999999999" y="229.52" type="curve" smooth="yes"/>
      <point x="48.31999999999999" y="63.03999999999999"/>
      <point x="130.28" y="-10.0"/>
      <point x="314.08" y="-10.0" type="curve" smooth="yes"/>
      <point x="370.84" y="-10.0"/>
      <point x="427.48" y="-5.84"/>
      <point x="495.08" y="0.0" type="curve"/>
    </contour>
    <contour>
      <point x="447.00000000000006" y="46.64" type="line"/>
      <point x="400.72" y="41.96"/>
      <point x="362.56" y="39.84"/>
      <point x="317.40000000000003" y="39.84" type="curve" smooth="yes"/>
      <point x="170.20000000000002" y="39.84"/>
      <point x="107.16" y="104.79999999999998"/>
      <point x="107.16" y="236.76000000000002" type="curve" smooth="yes"/>
      <point x="107.16" y="483.99999999999994"/>
      <point x="226.12000000000003" y="659.72"/>
      <point x="408.6800000000001" y="659.72" type="curve" smooth="yes"/>
      <point x="436.8" y="659.72"/>
      <point x="517.92" y="655.76"/>
      <point x="543.16" y="653.0400000000001" type="curve"/>
    </contour>
  </outline>
</glyph>
<glyph name="oe" format="2">
  <advance width="821.0"/>
  <unicode hex="0153"/>
  <outline>
    <contour>
      <point x="216.0" y="-10.0" type="curve" smooth="yes"/>
      <point x="297.0" y="-10.0"/>
      <point x="361.20000000000005" y="47.8"/>
      <point x="396.2" y="134.8" type="curve"/>
      <point x="411.4" y="42.6"/>
      <point x="470.59999999999997" y="-10.0"/>
      <point x="572.2" y="-10.0" type="curve" smooth="yes"/>
      <point x="634.0" y="-10.0"/>
      <point x="706.8" y="4.199999999999999"/>
      <point x="759.4" y="26.6" type="curve"/>
      <point x="748.8" y="73.4" type="line"/>
      <point x="692.2" y="51.800000000000004"/>
      <point x="629.0" y="39.599999999999994"/>
      <point x="581.4000000000001" y="39.599999999999994" type="curve" smooth="yes"/>
      <point x="487.8" y="39.599999999999994"/>
      <point x="437.8" y="92.2"/>
      <point x="437.8" y="193.0" type="curve" smooth="yes"/>
      <point x="437.8" y="372.2"/>
      <point x="529.5999999999999" y="497.2"/>
      <point x="652.6" y="497.2" type="curve" smooth="yes"/>
      <point x="718.6" y="497.2"/>
      <point x="753.8" y="472.4"/>
      <point x="753.8" y="425.0" type="curve" smooth="yes"/>
      <point x="753.8" y="359.4"/>
      <point x="684.2" y="311.8"/>
      <point x="569.6" y="290.8" type="curve" smooth="yes"/>
      <point x="524.8000000000001" y="282.6"/>
      <point x="473.4" y="279.59999999999997"/>
      <point x="429.8" y="282.2" type="curve"/>
      <point x="425.20000000000005" y="239.6" type="line"/>
      <point x="476.4" y="237.20000000000002"/>
      <point x="533.2" y="239.8"/>
      <point x="579.8000000000001" y="247.8" type="curve" smooth="yes"/>
      <point x="725.2" y="272.4"/>
      <point x="810.6" y="340.8"/>
      <point x="810.6" y="433.2" type="curve" smooth="yes"/>
      <point x="810.6" y="502.2"/>
      <point x="755.0" y="544.0"/>
      <point x="659.0" y="544.0" type="curve" smooth="yes"/>
      <point x="560.0" y="544.0"/>
      <point x="481.20000000000005" y="489.6"/>
      <point x="436.8" y="402.0" type="curve"/>
      <point x="427.8" y="493.0"/>
      <point x="367.2" y="544.4"/>
      <point x="267.2" y="544.4" type="curve" smooth="yes"/>
      <point x="121.80000000000001" y="544.4"/>
      <point x="32.4" y="365.2"/>
      <point x="32.4" y="176.39999999999998" type="curve" smooth="yes"/>
      <point x="32.4" y="52.8"/>
      <point x="92.80000000000001" y="-10.0"/>
    </contour>
    <contour>
      <point x="218.79999999999998" y="37.2" type="curve" smooth="yes"/>
      <point x="130.0" y="37.2"/>
      <point x="89.39999999999999" y="80.4"/>
      <point x="89.0" y="174.8" type="curve" smooth="yes"/>
      <point x="88.2" y="333.20000000000005"/>
      <point x="162.6" y="496.8"/>
      <point x="264.6" y="497.2" type="curve" smooth="yes"/>
      <point x="350.2" y="497.2"/>
      <point x="393.0" y="449.79999999999995"/>
      <point x="393.4" y="357.0" type="curve" smooth="yes"/>
      <point x="394.2" y="195.20000000000002"/>
      <point x="320.6" y="37.60000000000001"/>
    </contour>
  </outline>
</glyph>
<glyph name="uni0162" format="2">
  <advance width="474.24"/>
  <unicode hex="0162"/>
  <anchor x="193.17867999999999" y="0.0" name="_bottom"/>
  <anchor x="145.88" y="-220.0" name="bottom"/>
  <outline>
    <contour>
      <point x="73.24000000000001" y="-200.12" type="line"/>
      <point x="97.16000000000001" y="-214.4"/>
      <point x="120.2" y="-220.0"/>
      <point x="148.76" y="-220.0" type="curve" smooth="yes"/>
      <point x="214.44" y="-220.0"/>
      <point x="253.39999999999998" y="-165.76"/>
      <point x="253.39999999999998" y="-97.76" type="curve" smooth="yes"/>
      <point x="253.39999999999998" y="-57.48"/>
      <point x="237.84" y="-21.759999999999998"/>
      <point x="214.35999999999999" y="3.36" type="curve"/>
      <point x="171.88" y="1.6400000000000001" type="line"/>
      <point x="196.44" y="-27.36"/>
      <point x="208.8" y="-56.44"/>
      <point x="208.8" y="-92.52000000000001" type="curve" smooth="yes"/>
      <point x="208.8" y="-147.28"/>
      <point x="182.16" y="-178.23999999999998"/>
      <point x="141.6" y="-178.23999999999998" type="curve" smooth="yes"/>
      <point x="120.52000000000001" y="-178.23999999999998"/>
      <point x="103.0" y="-172.11999999999998"/>
      <point x="84.75999999999999" y="-161.28" type="curve"/>
    </contour>
    <component base="T"/>
  </outline>
</glyph>
<glyph name="Tbar" format="2">
  <advance width="477.76"/>
  <unicode hex="0166"/>
  <outline>
    <contour>
      <point x="528.5200000000001" y="649.76" type="line"/>
      <point x="537.04" y="700.0" type="line"/>
      <point x="75.39999999999999" y="700.0" type="line"/>
      <point x="66.80000000000001" y="649.76" type="line"/>
      <point x="268.52" y="649.76" type="line"/>
      <point x="226.88000000000002" y="390.2" type="line"/>
      <point x="86.64000000000001" y="390.2" type="line"/>
      <point x="78.36" y="341.72" type="line"/>
      <point x="219.52" y="341.72" type="line"/>
      <point x="165.4" y="0.0" type="line"/>
      <point x="223.8" y="0.0" type="line"/>
      <point x="277.92" y="341.72" type="line"/>
      <point x="422.40000000000003" y="341.72" type="line"/>
      <point x="430.68" y="390.2" type="line"/>
      <point x="285.76000000000005" y="390.2" type="line"/>
      <point x="326.84000000000003" y="649.76" type="line"/>
    </contour>
  </outline>
</glyph>
<glyph name="tbar" format="2">
  <advance width="334.92"/>
  <unicode hex="0167"/>
  <outline>
    <contour>
      <point x="23.080000000000002" y="298.36000000000007" type="line"/>
      <point x="302.24000000000007" y="298.36000000000007" type="line"/>
      <point x="309.64" y="340.36" type="line"/>
      <point x="30.480000000000004" y="340.36" type="line"/>
    </contour>
    <contour>
      <point x="288.76000000000005" y="59.6" type="line"/>
      <point x="257.56000000000006" y="49.8"/>
      <point x="226.67999999999998" y="42.599999999999994"/>
      <point x="198.04000000000002" y="42.599999999999994" type="curve" smooth="yes"/>
      <point x="142.52" y="42.599999999999994"/>
      <point x="122.44" y="69.24000000000001"/>
      <point x="122.44" y="114.44000000000001" type="curve" smooth="yes"/>
      <point x="122.44" y="126.36000000000001"/>
      <point x="123.8" y="139.28000000000003"/>
      <point x="126.04" y="153.68" type="curve" smooth="yes"/>
      <point x="179.4" y="486.68000000000006" type="line"/>
      <point x="353.64000000000004" y="486.68000000000006" type="line"/>
      <point x="361.84" y="534.0" type="line"/>
      <point x="187.2" y="534.0" type="line"/>
      <point x="207.64" y="663.4" type="line"/>
      <point x="159.95999999999998" y="663.4" type="line"/>
      <point x="129.39999999999998" y="534.0" type="line"/>
      <point x="41.2" y="526.8" type="line"/>
      <point x="33.760000000000005" y="487.08" type="line"/>
      <point x="121.2" y="487.08" type="line"/>
      <point x="67.84000000000002" y="150.08" type="line" smooth="yes"/>
      <point x="64.44000000000001" y="130.04"/>
      <point x="62.800000000000004" y="107.8"/>
      <point x="62.800000000000004" y="92.92" type="curve" smooth="yes"/>
      <point x="62.800000000000004" y="21.16"/>
      <point x="101.72" y="-10.0"/>
      <point x="171.67999999999998" y="-10.0" type="curve" smooth="yes"/>
      <point x="206.16000000000003" y="-10.0"/>
      <point x="246.88" y="-3.4399999999999995"/>
      <point x="290.0" y="12.360000000000001" type="curve"/>
    </contour>
  </outline>
</glyph>
